<svg xmlns="http://www.w3.org/2000/svg" viewBox="0 0 73.92 49.48" fill="#fff"><title>affordable </title><g id="Layer_2" data-name="Layer 2"><g id="Layer_1-2" data-name="Layer 1"><path d="M32.38,4.08A15.8,15.8,0,1,0,48.17,19.87,15.79,15.79,0,0,0,32.38,4.08Zm0,28.54A12.74,12.74,0,1,1,45.11,19.88,12.74,12.74,0,0,1,32.38,32.62Z"/><path d="M68,9.77h-3.2V6.05a6,6,0,0,0-6-6H6A6,6,0,0,0,0,6.05V33.69a6,6,0,0,0,6,6H9.16v3.72a6,6,0,0,0,6,6H68a6,6,0,0,0,6-6V15.79A6,6,0,0,0,68,9.77ZM6,36.65a3,3,0,0,1-2.92-3V6.05A3,3,0,0,1,6,3.05H58.78a3,3,0,0,1,2.92,3V33.69a3,3,0,0,1-2.92,3Zm64.89,6.78a3,3,0,0,1-2.91,3H15.13a3,3,0,0,1-2.91-3V39.71H58.78a6,6,0,0,0,6-6V12.83H68a3,3,0,0,1,2.91,3Z"/><path d="M37.29,15H35.81a6.28,6.28,0,0,0-.46-1.07h1.94a1.54,1.54,0,0,0,0-3.07H27.46a1.53,1.53,0,1,0,0,3.06h2.81A2.82,2.82,0,0,1,32.48,15h-5a1.53,1.53,0,1,0,0,3h5a2.15,2.15,0,0,1-.32.41,2.75,2.75,0,0,1-1.91.81H27.46a1.54,1.54,0,0,0-1.53,1.53,1.5,1.5,0,0,0,.48,1.11l7,6.65a1.52,1.52,0,0,0,2.15-.08,1.54,1.54,0,0,0-.06-2.14l-4.32-4.07a5.68,5.68,0,0,0,3.11-1.61s0,0,0,0A5.2,5.2,0,0,0,35.81,18h1.48a1.53,1.53,0,0,0,0-3.06Z"/><path d="M9.56,4.67a4.74,4.74,0,1,0,4.73,4.74A4.74,4.74,0,0,0,9.56,4.67Zm0,6.4a1.68,1.68,0,1,1,1.68-1.68A1.68,1.68,0,0,1,9.56,11.07Z"/><path d="M55.18,25.47a4.74,4.74,0,1,0,4.73,4.74A4.75,4.75,0,0,0,55.18,25.47Zm0,6.42a1.68,1.68,0,1,1,1.68-1.68A1.7,1.7,0,0,1,55.18,31.89Z"/></g></g></svg>