<svg id="Layer_5" enable-background="new 0 0 64 64" fill="#18ba60" height="512" viewBox="0 0 64 64" width="512" xmlns="http://www.w3.org/2000/svg"><g><path d="m33 30h-2v2c-1.654 0-3 1.346-3 3s1.346 3 3 3h2c.551 0 1 .449 1 1s-.449 1-1 1h-3v-1h-2v3h3v2h2v-2c1.654 0 3-1.346 3-3s-1.346-3-3-3h-2c-.551 0-1-.449-1-1s.449-1 1-1h3v1h2v-3h-3z"/><path d="m45 37.306c0-3.661-1.58-7.143-4.334-9.553l-3.507-3.068 3.131-9.394-5.691-1.423-2.707 3.609-2.585-2.585-5.637 1.409 3.151 8.402-3.486 3.05c-2.755 2.411-4.335 5.893-4.335 9.553 0 7 5.694 12.694 12.694 12.694h.612c7 0 12.694-5.694 12.694-12.694zm-16.307-20.199 3.415 3.415 3.293-4.391 2.308.577-2.43 7.292h-6.586l-2.363-6.302zm3.613 30.893h-.612c-5.897 0-10.694-4.797-10.694-10.694 0-3.084 1.331-6.017 3.652-8.048l3.723-3.258h7.249l3.724 3.258c2.321 2.031 3.652 4.964 3.652 8.048 0 5.897-4.797 10.694-10.694 10.694z"/><path d="m11.03 30.09c.914-10.13 8.929-18.146 19.06-19.06l.91-.082v-8.021l-1.07.076c-14.338 1.013-25.914 12.589-26.928 26.927l-.075 1.07h8.021zm10.261-18.503c-.59.309-1.163.645-1.721 1.002l-2.208-3.305c.775-.502 1.572-.972 2.398-1.394zm.285-4.537c.863-.364 1.742-.694 2.647-.968l.785 3.949c-.649.206-1.284.442-1.906.702zm-3.642 6.691c-.522.402-1.024.825-1.509 1.27l-2.808-2.808c.672-.625 1.373-1.217 2.105-1.772zm-2.923 2.684c-.444.484-.868.987-1.27 1.508l-3.31-2.212c.555-.732 1.147-1.433 1.771-2.105zm-2.422 3.144c-.358.558-.693 1.131-1.002 1.722l-3.697-1.532c.423-.826.892-1.623 1.395-2.398zm-1.856 3.533c-.26.623-.497 1.257-.702 1.906l-3.949-.785c.273-.905.604-1.784.968-2.647zm18.267-13.964c-.697.091-1.381.217-2.057.368l-.78-3.922c.931-.207 1.874-.382 2.837-.489zm-23.905 19.862c.107-.963.282-1.906.489-2.837l3.923.78c-.152.675-.278 1.36-.369 2.057z"/><path d="m52.97 33.91c-.914 10.13-8.929 18.146-19.06 19.06l-.91.082v8.021l1.07-.076c14.338-1.013 25.914-12.589 26.927-26.927l.076-1.07h-8.021zm5.935 1.09c-1.387 12.498-11.407 22.518-23.905 23.905v-4.043c10.358-1.346 18.516-9.504 19.862-19.862z"/><path d="m11.03 33.91-.082-.91h-8.021l.076 1.07c.605 8.559 4.976 16.132 11.45 21.064l-3.867 3.866h-3.77c-.414-1.161-1.514-2-2.816-2-1.654 0-3 1.346-3 3s1.346 3 3 3c1.302 0 2.402-.839 2.816-2h4.598l4.696-4.696c4.033 2.653 8.752 4.335 13.82 4.693l1.07.076v-8.021l-.91-.082c-10.131-.914-18.146-8.929-19.06-19.06zm-7.03 27.09c-.551 0-1-.449-1-1s.449-1 1-1 1 .449 1 1-.449 1-1 1zm25-2.095c-12.498-1.387-22.518-11.407-23.905-23.905h4.043c1.346 10.358 9.504 18.516 19.862 19.862z"/><path d="m57.184 5c.414 1.161 1.514 2 2.816 2 1.654 0 3-1.346 3-3s-1.346-3-3-3c-1.302 0-2.402.839-2.816 2h-4.598l-4.696 4.696c-4.033-2.653-8.752-4.335-13.82-4.693l-1.07-.076v8.021l.91.082c10.13.914 18.146 8.929 19.06 19.06l.082.91h8.021l-.076-1.07c-.605-8.559-4.976-16.132-11.45-21.064l3.867-3.866zm2.816-2c.551 0 1 .449 1 1s-.449 1-1 1-1-.449-1-1 .449-1 1-1zm-1.095 26h-4.043c-1.346-10.358-9.504-18.516-19.862-19.862v-4.043c12.498 1.387 22.518 11.407 23.905 23.905z"/></g></svg>