<svg id="Layer_3" height="512" viewBox="0 0 64 64" width="512" xmlns="http://www.w3.org/2000/svg" data-name="Layer 3"><g fill="#ccc"><path d="m50 20h-1a14.05 14.05 0 0 1 -11.715-6.27l-3.337-4.277 1.578-1.229 3.38 4.337a12.1 12.1 0 0 0 10.094 5.439h1z"/><path d="m15 20h-1v-2h1a12.056 12.056 0 0 0 10.051-5.379l3.423-4.4 1.578 1.229-3.38 4.338a14.011 14.011 0 0 1 -11.672 6.212z"/><path d="m17.945 33.852-5.945-9.909-5.945 9.909-1.715-1.029 6.8-11.338a1.039 1.039 0 0 1 1.714 0l6.8 11.338z"/><path d="m57.945 33.852-5.945-9.909-5.945 9.909-1.715-1.029 6.8-11.338a1.039 1.039 0 0 1 1.714 0l6.8 11.338z"/></g><rect fill="#f9d266" height="4" rx="2" width="20" x="42" y="32"/><path d="m60 32h-16a2 2 0 0 0 -2 2h16a2 2 0 0 0 2-2z" fill="#fce797"/><path d="m44 36a8 8 0 0 0 8 8 8 8 0 0 0 8-8" fill="#f0ae42"/><circle cx="52" cy="19" fill="#c18e59" r="3"/><path d="m49 19a2.965 2.965 0 0 0 .446 1.554 2.965 2.965 0 0 0 1.554.446 3 3 0 0 0 3-3 2.965 2.965 0 0 0 -.446-1.554 2.965 2.965 0 0 0 -1.554-.446 3 3 0 0 0 -3 3z" fill="#cc9664"/><path d="m34 6.535a4.006 4.006 0 0 0 -4 0v-2.535a2 2 0 0 1 2-2 2 2 0 0 1 2 2z" fill="#c18e59"/><path d="m30 54v-40.535a4.006 4.006 0 0 0 4 0v40.535z" fill="#976947"/><rect fill="#976947" height="4" rx="2" width="26" x="19" y="58"/><path d="m21 58v-2a2 2 0 0 1 2-2h18a2 2 0 0 1 2 2v2" fill="#c18e59"/><circle cx="32" cy="10" fill="#f0ae42" r="4"/><path d="m32 6a3.994 3.994 0 0 0 -3.281 6.28 3.994 3.994 0 0 0 5.562-5.561 3.977 3.977 0 0 0 -2.281-.719z" fill="#f9d266"/><rect fill="#f9d266" height="4" rx="2" width="20" x="2" y="32"/><path d="m20 32h-16a2 2 0 0 0 -2 2h16a2 2 0 0 0 2-2z" fill="#fce797"/><path d="m4 36a8 8 0 0 0 8 8 8 8 0 0 0 8-8" fill="#f0ae42"/><circle cx="12" cy="19" fill="#c18e59" r="3"/><circle cx="32" cy="40" fill="#4d8c28" r="8"/><path d="m32 32a7.995 7.995 0 0 0 -6.565 12.565 7.995 7.995 0 0 0 11.13-11.13 7.96 7.96 0 0 0 -4.565-1.435z" fill="#6bc13b"/><path d="m27 40 4 4 6-6-2-2-4 4-2-2z" fill="#f2f2f2"/><path d="m9 19a2.965 2.965 0 0 0 .446 1.554 2.965 2.965 0 0 0 1.554.446 3 3 0 0 0 3-3 2.965 2.965 0 0 0 -.446-1.554 2.965 2.965 0 0 0 -1.554-.446 3 3 0 0 0 -3 3z" fill="#cc9664"/></svg>