<svg id="_x31__px" enable-background="new 0 0 24 24" height="512" viewBox="0 0 24 24" width="512" xmlns="http://www.w3.org/2000/svg" fill="#14C44C"><path d="m17.55 13.81c-.12 0-.239-.042-.335-.129-.205-.185-.221-.501-.036-.706.099-.109.209-.217.319-.325.224-.218.502-.489.502-.65 0-.165-.283-.435-.511-.652-.302-.288-.614-.585-.736-.979-.122-.405-.037-.842.044-1.264.055-.279.136-.7.053-.818-.075-.107-.468-.155-.729-.187-.401-.048-.856-.104-1.194-.363-.326-.248-.503-.654-.674-1.048-.099-.225-.28-.644-.401-.685-.113-.035-.479.186-.658.291-.357.208-.761.445-1.194.445s-.837-.237-1.193-.446c-.182-.106-.557-.327-.653-.292-.195.196-.487.176-.683-.02-.195-.195-.17-.531.025-.727.111-.112.232-.161.306-.189.558-.194 1.063.104 1.511.365.234.138.526.309.687.309s.453-.171.688-.309c.446-.262.952-.559 1.485-.375.539.18.782.739.997 1.233.108.25.243.561.363.652.123.094.434.132.708.165.515.063 1.098.133 1.429.607.325.465.21 1.058.109 1.581-.057.289-.12.617-.07.781.044.142.271.358.471.549.384.367.82.783.82 1.376 0 .583-.427.999-.804 1.366-.096.093-.19.186-.275.28-.099.108-.235.164-.371.164z"/><path d="m13.831 19c-.405 0-.793-.227-1.144-.432-.234-.137-.526-.308-.687-.308s-.453.171-.688.309c-.446.261-.953.556-1.485.375-.539-.18-.782-.739-.997-1.233-.108-.25-.243-.561-.363-.652-.123-.094-.434-.132-.708-.165-.515-.063-1.098-.133-1.429-.607-.325-.465-.21-1.058-.109-1.581.057-.289.12-.617.07-.781-.044-.142-.271-.358-.471-.549-.384-.367-.82-.783-.82-1.376s.436-1.009.82-1.375c.2-.19.427-.407.472-.553.049-.161-.015-.488-.071-.777-.101-.523-.216-1.116.109-1.581.309-.454.887-.533 1.232-.58.265-.039.525.154.563.428s-.154.526-.428.563c-.32.043-.503.096-.544.156-.086.124-.005.544.05.823.081.422.166.859.045 1.26-.123.398-.436.695-.737.983-.228.218-.511.488-.511.653s.283.435.511.652c.302.288.614.585.736.979.122.405.037.842-.044 1.264-.055.279-.136.7-.053.818.075.107.468.155.729.187.401.048.856.104 1.194.363.326.248.503.654.674 1.048.099.225.28.644.401.685.112.038.479-.186.658-.291.356-.209.761-.446 1.193-.446s.837.237 1.193.446c.181.106.561.323.653.292.126-.042.308-.461.406-.686.171-.394.348-.801.675-1.049.327-.255.752-.308 1.163-.36l.209-.027c.269-.04.525.151.565.424.039.273-.151.527-.425.566l-.226.029c-.264.033-.563.071-.677.16-.125.094-.26.405-.368.655-.215.494-.458 1.053-1.002 1.234-.11.04-.223.057-.334.057z"/><path d="m12 24c-6.617 0-12-5.383-12-12s5.383-12 12-12 12 5.383 12 12-5.383 12-12 12zm0-23c-6.065 0-11 4.935-11 11s4.935 11 11 11 11-4.935 11-11-4.935-11-11-11z"/><path d="m11.5.51h1v22.981h-1z" transform="matrix(.707 -.707 .707 .707 -4.971 12)"/><path d="m10.5 15c-.062 0-.125-.011-.186-.036-.257-.103-.381-.394-.278-.65.297-.742.909-1.284 1.682-1.488.771-.204 1.571-.034 2.197.465l.397.318c.216.173.25.487.078.703-.172.215-.485.251-.703.078l-.397-.318c-.374-.299-.851-.402-1.317-.279-.463.122-.83.447-1.009.892-.078.196-.266.315-.464.315z"/><path d="m14.25 10c-.085 0-.17-.021-.248-.066l-1.75-1c-.24-.137-.323-.442-.187-.682.138-.242.444-.323.683-.186l1.75 1c.24.137.323.442.187.682-.093.162-.262.252-.435.252z"/></svg>