<?xml version="1.0" encoding="utf-8"?>
<!-- Generator: Adobe Illustrator 24.3.0, SVG Export Plug-In . SVG Version: 6.00 Build 0)  -->
<svg version="1.1" id="Layer_1" xmlns="http://www.w3.org/2000/svg" xmlns:xlink="http://www.w3.org/1999/xlink" x="0px" y="0px"
	 viewBox="0 0 150 50" style="enable-background:new 0 0 150 50;" xml:space="preserve">
<style type="text/css">
	.st0{fill-rule:evenodd;clip-rule:evenodd;fill:#557EBF;}
	.st1{fill-rule:evenodd;clip-rule:evenodd;fill:#E9432F;}
	.st2{fill:#767677;}
	.st3{fill:#767777;}
	.st4{fill:#557DBF;}
	.st5{fill:#F9BC17;}
	.st6{fill:#EA4536;}
	.st7{fill:#38A952;}
	.st8{fill:#E94531;}
	.st9{fill:#537DBF;}
</style>
<g>
	<g>
		<path class="st0" d="M49.8,11.8c0.5,0,1.1,0,1.6,0c1.4,0,1.4,0,1.4,1.4c0,2.6-1.3,4.5-3.6,5.4c-2.5,1-5.5,0.3-7.3-1.7
			c-2.2-2.4-2.2-6-0.1-8.5c2.1-2.4,5.9-3,8.5-1.3c1,0.7,1,0.9,0.1,1.7c-0.4,0.4-0.6,0.1-0.9-0.1c-2.9-1.8-6.3-0.5-7.1,2.8
			c-0.5,1.9,0.4,4.1,2.2,5.1c1.7,1,4,0.8,5.4-0.5c0.1-0.1,0.3-0.3,0.4-0.4c0.4-0.5,0.8-1.1,0.6-1.7c-0.2-0.6-1-0.2-1.5-0.3
			c-0.5,0-1-0.1-1.5,0c-0.9,0.1-1.2-0.3-1.1-1.1c0-0.6,0.2-0.8,0.8-0.7C48.3,11.8,49,11.8,49.8,11.8z"/>
		<path class="st1" d="M53.9,14c0.6,0.2,0.3,0.7,0.6,1.2c-0.5-0.4-0.2-0.8-0.6-1C53.9,14.1,53.9,14.1,53.9,14z"/>
		<g>
			<path class="st2" d="M49.1,23.9c-2.5-0.4-5.1-0.1-7.7-0.2c-0.7,0-0.9,0.2-0.9,0.9c0,3.2,0,6.4,0,9.6c0,2.9,0,5.8,0,8.7
				c0,1.9,0,1.9,1.9,1.9c0.7,0,0.9-0.2,0.9-0.9c0-2.3,0-4.6,0-6.9c0-0.6,0.2-0.8,0.7-0.7c1.3,0,2.7,0,4.1,0c3.2-0.1,6-2.6,6.2-5.6
				C54.6,27.3,52.5,24.5,49.1,23.9z M47.9,33.7c-0.6,0-1.2,0-2,0c-0.7-0.1-1.8,0.4-2.4-0.2C43,33,43.4,31.8,43.3,31
				c0-1.3,0-2.6,0-3.8c0-0.5,0.1-0.8,0.7-0.8c1.3,0,2.6,0,3.9,0c2.1,0.1,3.6,1.7,3.5,3.8C51.5,32.1,49.9,33.6,47.9,33.7z"/>
			<path class="st2" d="M68.1,36c0-0.9-0.1-1.7-0.5-2.5c-1.6-4.1-8-4.9-11-1.4c-1.1,1.3-1.1,1.3,0.5,2c0.7,0.3,1.2,0.5,1.8-0.4
				c0.9-1.3,3-1.6,4.5-0.9c1.4,0.6,2.1,1.8,2,3.4c-0.3-0.1-0.6-0.2-0.9-0.3c-2.4-0.7-4.7-0.6-6.9,0.6c-1.6,0.9-2.3,2.4-2.2,4.2
				c0.1,1.8,0.9,3.1,2.6,3.9c2.5,1.3,5.2,0.7,7.6-1.7c0.1,1.8,0.2,1.8,1.8,1.8c0.7,0,0.9-0.2,0.9-0.9C68.1,41.3,68.1,38.6,68.1,36z
				 M65.3,39.7c-0.7,2.3-3.3,3.7-5.5,2.9c-0.8-0.3-1.5-0.7-1.7-1.7c-0.2-1,0.3-1.8,1.1-2.4c0.7-0.5,1.6-0.7,3.2-0.7
				c0.5,0,1.3,0.1,2.1,0.4C65.4,38.4,65.6,38.9,65.3,39.7z"/>
			<path class="st2" d="M118,30.5c-2.6-1.1-5.3-0.9-7.5,1.1c-2.2,2-2.8,4.5-2.4,7.4c0.4,2.9,1.9,5,4.7,5.9c2.8,0.9,5.4,0.6,7.6-1.6
				c1.6-1.6,1.4-2-0.6-2.7c-0.4-0.1-0.6-0.1-0.8,0.3c-1.1,1.7-2.8,2.3-4.7,1.9c-1.9-0.5-3.2-2-3.5-3.9c-0.1-0.5,0.1-0.6,0.6-0.6
				c1.7,0,3.4,0,5.1,0c1.4,0,2.8,0,4.3,0c1.5,0,1.5,0,1.4-1.6C121.8,33.8,120.6,31.6,118,30.5z M118.3,35.9c-1.1-0.1-2.2,0-3.2,0
				c-1.2,0-2.4,0-3.6,0c-0.4,0-0.5-0.1-0.4-0.5c0.4-1.5,2-2.8,3.5-2.9c2.2-0.1,3.7,0.7,4.4,2.5C119.2,35.6,119.2,36,118.3,35.9z"/>
			<path class="st2" d="M105.6,35.3c-0.1-3.5-2.4-5.6-5.9-5.4c-1.7,0.1-3,0.9-4.1,2.3c-0.1-1.9-0.1-1.9-1.8-1.9c-0.1,0-0.1,0-0.2,0
				c-0.5-0.1-0.6,0.2-0.6,0.6c0,4.4,0,8.8,0,13.2c0,0.3,0,0.6,0.4,0.6c2,0.3,2.3,0.1,2.3-1.9c0-1.8,0-3.6,0-5.5c0-0.5,0-0.9,0.1-1.4
				c0.4-2.4,1.9-3.8,4.2-3.6c2,0.1,3,1.5,3.1,4c0,2.2,0,4.3,0,6.5c0,2,0,2,2,1.9c0.5,0,0.7-0.2,0.7-0.7
				C105.6,41.2,105.7,38.3,105.6,35.3z"/>
			<path class="st2" d="M89.3,42.5c-1.9,0.3-2.6-0.4-2.7-2.3c0-1.1,0-2.2,0-3.2c0-0.3,0-0.7,0-1c0-0.9-0.3-2.1,0.1-2.8
				c0.5-0.8,1.8-0.2,2.7-0.3c0.6,0,0.8-0.2,0.7-0.8c0-0.3,0-0.5,0-0.8c0.1-0.7-0.1-1-0.9-0.9c-0.7,0.1-1.4,0-2,0
				c-0.5,0-0.7-0.2-0.7-0.7c0-1,0-2.1,0-3.1c0-0.3,0.1-0.6-0.3-0.6c-0.7,0-1.6-0.2-2.2,0.1c-0.4,0.2-0.1,1.1-0.2,1.6
				c0,0.3,0,0.5,0,0.8c0,1.8,0,1.8-1.8,1.9c-0.3,0-0.7-0.1-0.7,0.3c0,0.7-0.2,1.4,0.1,2c0.3,0.4,0.9,0.1,1.4,0.2c0,0,0.1,0,0.1,0
				c0.8-0.1,1,0.2,0.9,1c0,2.1,0,4.3,0,6.4c0,3.4,1.6,4.9,4.9,4.8c2,0,2.1-0.2,1.3-2C90,42.7,89.9,42.4,89.3,42.5z"/>
			<path class="st3" d="M132.8,30.2c-2.1-0.5-4,0.2-5.7,2.5c0-0.4,0-0.5,0-0.7c0-1.6,0-1.6-1.5-1.6c0,0-0.1,0-0.1,0
				c-0.8-0.1-1,0.2-1,1c0,3.9,0,7.8,0,11.7c0,1.8,0,1.7,1.7,1.8c0.9,0,1.1-0.3,1-1.1c-0.1-2.4-0.1-4.8,0-7.2c0.1-2.4,2-4.1,4.4-3.7
				c0.6,0.1,0.9-0.1,1.1-0.6c0.1-0.4,0.3-0.8,0.5-1.2C133.5,30.5,133.3,30.3,132.8,30.2z"/>
			<path class="st2" d="M78.7,30c-2,0-3.7,0.6-4.8,2.5c-0.2-0.1-0.1-0.3-0.1-0.4c-0.1-1.7-0.1-1.7-1.7-1.7c-0.7,0-0.9,0.2-0.9,0.9
				c0,3.9,0,7.8,0,11.7c0,1.8,0,1.8,1.9,1.8c0.7,0,0.9-0.2,0.9-0.8c0-2.3,0-4.6,0-6.9c0-2.6,1.6-4.2,4.1-4.4
				c1.4-0.1,1.4-0.1,1.4-1.6c0-0.1,0-0.3,0-0.4C79.5,30.2,79.2,30,78.7,30z"/>
		</g>
		<path class="st4" d="M79,11.1c-0.4,0.2-0.5,0.1-0.7,0c-1.6-0.8-3.5-0.4-4.6,1.1c-1.3,1.6-1.3,3.8,0,5.3c1.3,1.6,3,1.9,5.2,0.9
			c0.2,1.2-0.2,2.1-1,2.5c-1,0.5-2.1,0.3-2.8-0.7c-0.6-0.9-1.2-0.2-1.6,0c-0.6,0.4,0,0.8,0.2,1c1,1.4,2.8,1.9,4.5,1.4
			c1.5-0.5,2.5-1.9,2.6-3.9c0-2.2,0-4.4,0-6.6C80.7,10.9,80,10.4,79,11.1z M76.8,17.3c-1.3,0-2.3-1-2.3-2.4c0-1.4,0.9-2.5,2.2-2.5
			c1.3,0,2.2,1,2.3,2.4C79.1,16.2,78.1,17.3,76.8,17.3z"/>
		<path class="st5" d="M67.5,10.6c-2.3,0-4.2,1.9-4.2,4.2c0,2.4,1.9,4.2,4.3,4.2c2.3,0,4.1-1.8,4.2-4.2
			C71.7,12.5,69.8,10.6,67.5,10.6z M67.5,17.3c-1.3,0-2.3-1.1-2.3-2.5c0-1.4,1-2.4,2.3-2.4c1.3,0,2.3,1,2.3,2.4
			C69.8,16.2,68.8,17.3,67.5,17.3z"/>
		<path class="st6" d="M58.8,10.7c-2.4-0.4-4.4,1-4.8,3.3c0.2,0.1,0.4,0.3,0.2,0.5c0-0.2,0.1-0.4-0.3-0.3c-0.3,2.3,1.1,4.4,3.3,4.7
			c2.5,0.4,4.6-1,5-3.4C62.6,13.2,61.1,11.1,58.8,10.7z M58,17.3c-1.3,0-2.3-1.1-2.3-2.4c0-1.4,1-2.5,2.3-2.5c1.3,0,2.4,1.1,2.4,2.5
			C60.3,16.2,59.3,17.3,58,17.3z"/>
		<path class="st7" d="M84.3,12.7c0-1.8,0-3.6,0-5.5c0-0.8-0.4-0.8-0.9-0.8c-0.5,0-1-0.1-1,0.7c0,3.6,0,7.2,0,10.8
			c0,0.9,0.5,0.7,1,0.7c0.5,0,1,0.1,0.9-0.8C84.3,16.2,84.3,14.4,84.3,12.7z"/>
		<path class="st8" d="M92.8,16.9c-0.4-0.3-0.8-1.1-1.6-0.3c-0.9,0.9-2.4,0.9-3.2,0.1c-0.4-0.4-0.4-0.6,0.2-0.9
			c1.4-0.6,2.8-1.2,4.3-1.8c0.6-0.2,0.6-0.5,0.4-1c-0.8-1.9-2.5-2.7-4.4-2.3c-1.9,0.4-3,2.1-2.9,4.3c0,0.2,0,0.4,0,0.6
			c0.7,3.6,5,4.2,6.9,2.2C92.7,17.6,93.4,17.4,92.8,16.9z M88.9,12.4c0.8-0.3,1.4-0.1,2.1,0.8c-1.2,0.5-2.4,1-3.6,1.5
			C87.5,13.4,88,12.7,88.9,12.4z"/>
	</g>
	<rect x="16.6" y="-0.1" class="st9" width="15.3" height="50.5"/>
</g>
</svg>
