<?xml version="1.0" encoding="utf-8"?>
<!-- Generator: Adobe Illustrator 24.3.0, SVG Export Plug-In . SVG Version: 6.00 Build 0)  -->
<svg version="1.1" id="Layer_1" xmlns="http://www.w3.org/2000/svg" xmlns:xlink="http://www.w3.org/1999/xlink" x="0px" y="0px"
	 viewBox="0 0 150 50" style="enable-background:new 0 0 150 50;" xml:space="preserve">
<style type="text/css">
	.st0{fill-rule:evenodd;clip-rule:evenodd;fill:#1E398D;}
	.st1{fill-rule:evenodd;clip-rule:evenodd;fill:#00AEEF;}
</style>
<g>
	<path class="st0" d="M0.9,10.8c0-1,0.7-1.6,1.6-1.6h15.1c4.6,0.5,7.9,2.9,8.2,9.1v8.4c0,1.2-0.1,2.3-0.4,3.5
		c-1.2,4.1-4.1,6.1-8.4,6.3h-6.5c0,3.4,0,6.9,0,10.3c0,0.8-0.6,1.2-1.4,1.2c-2.3,0-4.5,0-6.8,0c-0.8,0-1.4-0.5-1.4-1.4L0.9,10.8
		L0.9,10.8z M10.5,18.8h4c0.9,0,1.7,0.7,1.7,1.7v4.9c0,0.9-0.7,1.7-1.7,1.7h-4V18.8L10.5,18.8z"/>
	<path class="st0" d="M33.3,9.3h10.6c6.2,0.4,9.6,3.6,9.5,10.4v25c0,1.9-2,3.4-3.6,3.4H35.8c-4.2,0-7-3.3-7.7-6.5
		c-0.7-3.1-0.2-6.8-0.2-10c0-4.9,3.2-9.7,8.6-9.7h5.7c1.6-0.1,1.6-3.7,0-3.6h-8.8c-0.9,0-1.5-0.5-1.6-1.4c0-2.2,0-4.4,0-6.5
		C31.8,9.6,32.5,9.3,33.3,9.3L33.3,9.3z M39.1,30.9h3.2c0.8,0,1.4,0.6,1.4,1.4v5.6c0,0.8-0.6,1.4-1.4,1.4h-3.2
		c-0.8,0-1.4-0.6-1.4-1.4v-5.6C37.7,31.5,38.4,30.9,39.1,30.9L39.1,30.9z"/>
	<path class="st0" d="M56.6,11.1v15.8c0.4,5,4.8,8.7,9.7,8.7h4.5c1.8,0,1.7,3.1,0,3.1H61c-1,0-1.4,0.5-1.4,1.5V47
		c0,0.7,0.6,1.2,1.3,1.2h9c7.5,0,11.7-3.6,11.7-11.6V10.5c0-0.9-0.5-1.2-1.1-1.2H73c-0.7,0-1.1,0.8-1.1,1.3v14.3c0,0.6-0.3,1-0.9,1
		h-3.6c-0.8,0-1.3-0.4-1.3-1.2V10.8c0-0.9-0.4-1.6-1.4-1.6c-2.4,0-4.8,0-7.2,0C56.8,9.2,56.6,10.1,56.6,11.1L56.6,11.1z"/>
	<path class="st1" d="M85.4,17.6v-6.8c0-0.7,0.6-1.3,1.3-1.3h1.6c4.2-0.9,5.2-3.4,7.8-6.2c1.6-1.7,3-2.2,4-0.4v6.5h3.9
		c0.7,0,1.3,0.6,1.3,1.3v6.8c0,0.7-0.6,1.3-1.3,1.3h-3.9v28c0,0.7-0.6,1.3-1.3,1.3H92c-0.7,0-1.3-0.6-1.3-1.3v-28h-4
		C86,18.9,85.4,18.3,85.4,17.6L85.4,17.6z"/>
	<path class="st1" d="M133.7,46.4c0,0.9-0.8,1.7-1.7,1.7h-6.4c-0.9,0-1.7-0.7-1.7-1.7V26.5v-5.8c0-2.8-5.5-3.2-5.5,0v25.7
		c0,0.9-0.7,1.7-1.7,1.7h-6.4c-0.9,0-1.7-0.7-1.7-1.7V10.8c0-0.9,0.8-1.7,1.7-1.7h6.4c0.9,0,1.7,0.7,1.7,1.7v0.5
		c3.7-3.6,10.2-3,13.7,0.7c6.5-7.4,17.6-0.8,17.1,7.3c0,9-0.1,18-0.1,27c0,0.9-0.8,1.7-1.7,1.7h-6.4c-0.9,0-1.7-0.7-1.7-1.7
		c0-8.6,0-17,0-25.5c-0.4-3.6-5.7-2.7-5.7,0C133.7,29.4,133.7,37.9,133.7,46.4L133.7,46.4z"/>
</g>
</svg>
