<?xml version="1.0" encoding="utf-8"?>
<!-- Generator: Adobe Illustrator 24.3.0, SVG Export Plug-In . SVG Version: 6.00 Build 0)  -->
<svg version="1.1" id="Layer_1" xmlns="http://www.w3.org/2000/svg" xmlns:xlink="http://www.w3.org/1999/xlink" x="0px" y="0px"
	 viewBox="0 0 150 50" style="enable-background:new 0 0 150 50;" xml:space="preserve">
<style type="text/css">
	.st0{enable-background:new    ;}
	.st1{fill:#CF232A;}
	.st2{fill:#FFFFFF;}
</style>
<g>
	<g class="st0">
		<g>
			<path class="st1" d="M6.6,34H3.1V15.6h8.4c0.9,0,1.8,0.2,2.6,0.5c0.8,0.3,1.4,0.7,2,1.3c0.6,0.6,1,1.2,1.3,2
				c0.3,0.8,0.5,1.6,0.5,2.5c0,1.4-0.3,2.6-1,3.6c-0.7,1-1.6,1.8-2.8,2.2c1.5,2,3.1,4.1,4.6,6.2h-4.2c-0.7-1-1.5-1.9-2.2-2.9
				c-0.7-1-1.4-2-2.1-3H6.6C6.6,28.2,6.6,34,6.6,34z M6.6,25.1h4.8c0.3,0,0.6-0.1,1-0.2c0.3-0.1,0.6-0.3,0.9-0.6
				c0.3-0.3,0.5-0.6,0.7-1c0.2-0.4,0.3-0.8,0.3-1.4c0-0.3,0-0.6-0.1-1c-0.1-0.4-0.2-0.7-0.4-1.1c-0.2-0.3-0.5-0.6-0.9-0.9
				c-0.4-0.2-0.9-0.4-1.5-0.4H6.6V25.1z"/>
		</g>
		<g>
			<path class="st1" d="M24.7,18.8v4.6h8.9v3.2h-8.9v4.3h10V34H21.2V15.6h13.5v3.1C34.7,18.8,24.7,18.8,24.7,18.8z"/>
		</g>
		<g>
			<path class="st1" d="M46.5,15.6c0.9,0,1.8,0.2,2.5,0.5c0.8,0.3,1.5,0.8,2.1,1.4c0.6,0.6,1.1,1.3,1.4,2.1c0.3,0.8,0.5,1.6,0.5,2.5
				c0,0.9-0.2,1.7-0.5,2.5c-0.3,0.8-0.7,1.4-1.3,2c-0.6,0.6-1.3,1-2.2,1.4c-0.9,0.3-1.9,0.5-3.1,0.5h-4.1V34h-3.5V15.6H46.5z
				 M46.5,25.4c0.5,0,1-0.1,1.4-0.3c0.4-0.2,0.7-0.4,0.9-0.7c0.2-0.3,0.4-0.6,0.5-1c0.1-0.4,0.2-0.8,0.2-1.2c0-0.4-0.1-0.8-0.2-1.2
				c-0.2-0.4-0.4-0.8-0.7-1.1c-0.3-0.3-0.6-0.6-1.1-0.8c-0.4-0.2-0.9-0.3-1.5-0.3h-4.3v6.6C41.8,25.4,46.5,25.4,46.5,25.4z"/>
		</g>
		<g>
			<path class="st1" d="M63.2,34.4c-1.2,0-2.3-0.2-3.2-0.6c-1-0.4-1.8-0.9-2.5-1.6c-0.7-0.7-1.2-1.5-1.6-2.4c-0.4-1-0.6-2-0.6-3.2
				v-11h3.5v10.9c0,0.9,0.2,1.7,0.5,2.3c0.3,0.6,0.7,1.1,1.1,1.4c0.4,0.4,0.9,0.6,1.4,0.7c0.5,0.1,1,0.2,1.4,0.2
				c0.4,0,0.9-0.1,1.4-0.2c0.5-0.1,1-0.4,1.4-0.7c0.4-0.4,0.8-0.8,1.1-1.4c0.3-0.6,0.5-1.4,0.5-2.3V15.7h3.5v11
				c0,1.2-0.2,2.2-0.6,3.2c-0.4,1-0.9,1.8-1.6,2.4c-0.7,0.7-1.5,1.2-2.5,1.6C65.5,34.2,64.4,34.4,63.2,34.4z"/>
		</g>
		<g>
			<path class="st1" d="M88.6,20.8c0,0.4-0.1,0.8-0.2,1.2c-0.2,0.4-0.4,0.8-0.6,1.2c-0.3,0.4-0.6,0.7-0.9,0.9
				c-0.4,0.2-0.8,0.4-1.2,0.4c0.5,0,0.9,0.2,1.3,0.4c0.4,0.2,0.8,0.5,1.2,0.9c0.4,0.4,0.6,0.8,0.9,1.3c0.2,0.5,0.3,1,0.3,1.6
				c0,1-0.2,1.8-0.5,2.5c-0.3,0.7-0.7,1.3-1.2,1.7c-0.5,0.4-1.1,0.7-1.8,0.9c-0.7,0.2-1.4,0.3-2.2,0.3h-8.5V15.6h8.1
				c0.7,0,1.4,0.1,2.1,0.2c0.7,0.1,1.2,0.4,1.7,0.8c0.5,0.4,0.9,0.9,1.2,1.6C88.5,18.9,88.6,19.7,88.6,20.8z M78.7,23.1H83
				c0.4,0,0.7-0.1,0.9-0.2c0.3-0.1,0.5-0.3,0.7-0.5c0.2-0.2,0.3-0.5,0.4-0.7c0.1-0.3,0.1-0.6,0.1-0.8c0-0.3-0.1-0.5-0.2-0.8
				c-0.1-0.3-0.2-0.5-0.4-0.7c-0.2-0.2-0.4-0.3-0.6-0.5c-0.2-0.1-0.5-0.2-0.7-0.2h-4.6L78.7,23.1L78.7,23.1z M83.6,30.9
				c0.3,0,0.6-0.1,0.9-0.2c0.3-0.1,0.5-0.3,0.7-0.6c0.2-0.2,0.4-0.5,0.5-0.8c0.1-0.3,0.2-0.6,0.2-0.9c0-0.6-0.2-1.1-0.7-1.6
				c-0.5-0.4-1.1-0.6-1.9-0.6h-4.6v4.7L83.6,30.9L83.6,30.9z"/>
		</g>
		<g>
			<path class="st1" d="M105.8,30.9V34H92.6V15.6h3.5v15.3H105.8z"/>
		</g>
		<g>
			<path class="st1" d="M112.1,34h-3.5V15.7h3.5V34z"/>
		</g>
	</g>
	<g class="st0">
		<g>
			<path class="st1" d="M19.6,34.6h-5.6l-0.2-0.2c-0.7-0.9-1.4-1.9-2.2-2.9c-0.7-0.9-1.3-1.8-1.9-2.7H7.2v5.9H2.5V15.1h8.9
				c1,0,1.9,0.2,2.8,0.5c0.8,0.3,1.6,0.8,2.2,1.4c0.6,0.6,1.1,1.4,1.4,2.2c0.3,0.8,0.5,1.8,0.5,2.8c0,1.5-0.4,2.8-1.1,4
				c-0.6,0.9-1.4,1.6-2.4,2.1c1.4,1.9,2.8,3.7,4.2,5.6L19.6,34.6z M14.6,33.5h2.8c-1.3-1.8-2.6-3.5-3.9-5.3l-0.4-0.6l0.7-0.3
				c1.1-0.4,1.9-1.1,2.5-2c0.6-0.9,1-2.1,1-3.3c0-0.8-0.1-1.6-0.4-2.3c-0.3-0.7-0.7-1.3-1.2-1.8c-0.5-0.5-1.1-0.9-1.8-1.2
				c-0.7-0.3-1.5-0.4-2.4-0.4H3.6v17.3H6v-5.9h4.3l0.2,0.2c0.7,1,1.4,2,2.1,3C13.3,31.7,14,32.6,14.6,33.5z M11.4,25.6H6v-7.4h5.4
				c0.7,0,1.3,0.1,1.8,0.4c0.4,0.3,0.8,0.6,1,1c0.2,0.4,0.4,0.8,0.5,1.2c0.1,0.4,0.1,0.8,0.1,1.1c0,0.6-0.1,1.1-0.3,1.6
				c-0.2,0.4-0.5,0.8-0.8,1.1c-0.3,0.3-0.7,0.5-1.1,0.7C12.2,25.6,11.8,25.6,11.4,25.6z M7.2,24.5h4.3c0.2,0,0.5-0.1,0.8-0.2
				c0.3-0.1,0.5-0.2,0.7-0.5c0.2-0.2,0.4-0.5,0.5-0.8c0.1-0.3,0.2-0.7,0.2-1.1c0-0.2,0-0.5-0.1-0.9c-0.1-0.3-0.2-0.6-0.3-0.9
				c-0.2-0.3-0.4-0.5-0.7-0.7c-0.3-0.2-0.7-0.3-1.2-0.3H7.2V24.5z"/>
		</g>
		<g>
			<path class="st1" d="M35.3,34.6H20.6V15.1h14.7v4.2h-10v3.5h8.9v4.3h-8.9v3.2h10V34.6z M21.7,33.5h12.4v-2h-10V26H33v-2.1h-8.9
				v-5.7h10v-2H21.7V33.5z"/>
		</g>
		<g>
			<path class="st1" d="M42.4,34.6h-4.6V15.1h8.7c1,0,1.9,0.2,2.8,0.6c0.9,0.4,1.6,0.9,2.2,1.5c0.6,0.6,1.1,1.4,1.5,2.2
				c0.4,0.9,0.6,1.8,0.6,2.8c0,1-0.2,1.9-0.5,2.7c-0.3,0.8-0.8,1.6-1.5,2.2c-0.6,0.6-1.5,1.1-2.4,1.5c-1,0.3-2.1,0.5-3.3,0.5h-3.5
				V34.6z M38.9,33.5h2.4V28h4.7c1.1,0,2.1-0.2,2.9-0.5c0.8-0.3,1.5-0.7,2-1.2c0.5-0.5,0.9-1.1,1.2-1.8c0.3-0.7,0.4-1.5,0.4-2.3
				c0-0.8-0.2-1.6-0.5-2.3c-0.3-0.7-0.7-1.4-1.3-1.9c-0.5-0.5-1.2-1-1.9-1.3c-0.7-0.3-1.5-0.5-2.3-0.5h-7.6V33.5z M46.5,26h-5.2
				v-7.7h4.9c0.6,0,1.2,0.1,1.7,0.4c0.5,0.2,0.9,0.5,1.2,0.9c0.3,0.4,0.6,0.8,0.8,1.3c0.2,0.5,0.3,1,0.3,1.4c0,0.5-0.1,0.9-0.2,1.4
				c-0.1,0.5-0.4,0.9-0.6,1.2c-0.3,0.4-0.7,0.7-1.1,0.9C47.6,25.8,47.1,26,46.5,26z M42.4,24.8h4.1c0.4,0,0.8-0.1,1.1-0.2
				c0.3-0.1,0.6-0.3,0.7-0.6c0.2-0.2,0.3-0.5,0.4-0.8c0.1-0.3,0.2-0.7,0.2-1c0-0.4-0.1-0.7-0.2-1.1c-0.1-0.3-0.3-0.6-0.5-0.9
				c-0.2-0.3-0.5-0.5-0.9-0.6c-0.3-0.2-0.7-0.2-1.2-0.2h-3.7V24.8z"/>
		</g>
		<g>
			<path class="st1" d="M63.2,34.9c-1.3,0-2.4-0.2-3.4-0.6c-1-0.4-1.9-1-2.7-1.7c-0.7-0.7-1.3-1.6-1.7-2.6c-0.4-1-0.6-2.2-0.6-3.4
				V15.1h4.6v11.5c0,0.8,0.1,1.5,0.4,2c0.3,0.5,0.6,0.9,1,1.2c0.4,0.3,0.8,0.5,1.2,0.6c0.5,0.1,0.9,0.2,1.2,0.2
				c0.4,0,0.8-0.1,1.2-0.2c0.4-0.1,0.8-0.3,1.2-0.6c0.4-0.3,0.7-0.7,1-1.2c0.3-0.5,0.4-1.2,0.4-2V15.1h4.6v11.5
				c0,1.2-0.2,2.4-0.6,3.4c-0.4,1-1,1.9-1.7,2.6c-0.7,0.7-1.6,1.3-2.7,1.7C65.7,34.7,64.5,34.9,63.2,34.9z M55.9,16.2v10.4
				c0,1.1,0.2,2.1,0.5,3c0.3,0.9,0.8,1.6,1.5,2.2c0.6,0.6,1.4,1.1,2.3,1.4c0.9,0.3,1.9,0.5,3,0.5c1.1,0,2.2-0.2,3.1-0.5
				c0.9-0.3,1.7-0.8,2.3-1.4c0.6-0.6,1.1-1.4,1.5-2.2c0.3-0.9,0.5-1.9,0.5-3V16.2h-2.4v10.4c0,1-0.2,1.9-0.5,2.5
				c-0.3,0.7-0.8,1.2-1.3,1.6c-0.5,0.4-1.1,0.7-1.6,0.8c-0.6,0.1-1.1,0.2-1.5,0.2c-0.4,0-1-0.1-1.5-0.2c-0.6-0.2-1.1-0.4-1.6-0.8
				c-0.5-0.4-0.9-0.9-1.3-1.6c-0.3-0.7-0.5-1.5-0.5-2.5V16.2H55.9z"/>
		</g>
		<g>
			<path class="st1" d="M83.6,34.6h-9V15.1h8.6c0.8,0,1.5,0.1,2.2,0.2c0.7,0.2,1.4,0.5,1.9,0.9c0.6,0.4,1,1,1.3,1.8
				c0.3,0.7,0.5,1.7,0.5,2.8c0,0.4-0.1,0.9-0.3,1.4c-0.2,0.5-0.4,0.9-0.7,1.3c-0.3,0.3-0.6,0.6-0.9,0.9c0.5,0.2,0.9,0.6,1.2,1
				c0.4,0.4,0.7,0.9,1,1.5c0.3,0.6,0.4,1.2,0.4,1.8c0,1.1-0.2,2-0.5,2.8c-0.3,0.8-0.8,1.4-1.4,1.9c-0.6,0.5-1.3,0.8-2,1
				C85.3,34.5,84.5,34.6,83.6,34.6z M75.7,33.5h7.9c0.7,0,1.4-0.1,2.1-0.3c0.6-0.2,1.2-0.4,1.6-0.8c0.4-0.4,0.8-0.9,1.1-1.5
				c0.3-0.6,0.4-1.4,0.4-2.3c0-0.5-0.1-0.9-0.3-1.4c-0.2-0.4-0.5-0.8-0.8-1.2c-0.3-0.3-0.7-0.6-1-0.8c-0.4-0.2-0.8-0.3-1.1-0.3
				l0-1.1c0.3,0,0.6-0.1,0.9-0.3c0.3-0.2,0.6-0.5,0.8-0.8c0.2-0.3,0.4-0.6,0.5-1c0.1-0.4,0.2-0.7,0.2-1c0-1-0.1-1.7-0.4-2.3
				c-0.2-0.6-0.6-1-1-1.3c-0.4-0.3-0.9-0.6-1.5-0.7c-0.6-0.1-1.3-0.2-2-0.2h-7.5V33.5z M83.6,31.5l-5.5,0v-5.8h5.2
				c0.9,0,1.7,0.3,2.3,0.8c0.6,0.5,0.9,1.2,0.9,2c0,0.4-0.1,0.7-0.2,1.1c-0.1,0.3-0.3,0.7-0.6,1c-0.2,0.3-0.5,0.5-0.9,0.7
				C84.4,31.4,84,31.5,83.6,31.5z M79.2,30.4l4.4,0c0.2,0,0.4,0,0.6-0.1c0.2-0.1,0.4-0.3,0.5-0.4c0.2-0.2,0.3-0.4,0.4-0.7
				c0.1-0.2,0.1-0.5,0.1-0.7c0-0.5-0.2-0.8-0.5-1.1c-0.4-0.3-0.9-0.5-1.5-0.5h-4V30.4z M83,23.7h-4.9v-5.5h5.1c0.3,0,0.7,0.1,1,0.2
				c0.3,0.1,0.5,0.3,0.7,0.6c0.2,0.2,0.4,0.5,0.5,0.8c0.1,0.3,0.2,0.6,0.2,1c0,0.3-0.1,0.7-0.2,1c-0.1,0.3-0.3,0.6-0.5,0.9
				c-0.2,0.3-0.5,0.5-0.8,0.7C83.8,23.6,83.4,23.7,83,23.7z M79.2,22.6H83c0.3,0,0.5,0,0.7-0.1c0.2-0.1,0.3-0.2,0.5-0.4
				c0.1-0.2,0.2-0.4,0.3-0.6c0.1-0.2,0.1-0.4,0.1-0.6c0-0.2,0-0.4-0.1-0.6c-0.1-0.2-0.2-0.4-0.3-0.5c-0.1-0.1-0.3-0.2-0.4-0.3
				c-0.1-0.1-0.3-0.1-0.5-0.1h-4V22.6z"/>
		</g>
		<g>
			<path class="st1" d="M106.4,34.6H92V15.1h4.6v15.3h9.7V34.6z M93.2,33.5h12.1v-2h-9.7V16.2h-2.4V33.5z"/>
		</g>
		<g>
			<path class="st1" d="M112.6,34.6H108V15.1h4.6V34.6z M109.1,33.5h2.4V16.2h-2.4V33.5z"/>
		</g>
	</g>
	<g class="st0">
		<g>
			<path class="st1" d="M136.9,29.5c-0.4,0.7-0.9,1.4-1.5,2c-0.6,0.6-1.2,1.1-1.9,1.5c-0.7,0.4-1.5,0.8-2.3,1
				c-0.8,0.2-1.7,0.4-2.6,0.4c-1.3,0-2.5-0.3-3.7-0.8c-1.2-0.5-2.2-1.2-3-2c-0.9-0.9-1.5-1.9-2-3c-0.5-1.2-0.8-2.4-0.8-3.7
				c0-1.3,0.3-2.5,0.8-3.7c0.5-1.2,1.2-2.2,2-3c0.9-0.9,1.9-1.5,3-2c1.2-0.5,2.4-0.8,3.7-0.8c0.9,0,1.7,0.1,2.6,0.4
				c0.8,0.2,1.6,0.6,2.3,1c0.7,0.4,1.4,0.9,1.9,1.5c0.6,0.6,1.1,1.3,1.5,2l-3.3,1.3c-0.3-0.4-0.6-0.8-0.9-1.1
				c-0.4-0.4-0.8-0.7-1.2-0.9c-0.4-0.3-0.9-0.5-1.4-0.6c-0.5-0.2-1-0.2-1.5-0.2c-0.8,0-1.6,0.2-2.3,0.5c-0.7,0.3-1.4,0.8-1.9,1.4
				c-0.5,0.6-1,1.2-1.3,2c-0.3,0.8-0.5,1.6-0.5,2.4c0,0.8,0.2,1.6,0.5,2.4c0.3,0.8,0.7,1.4,1.3,2c0.5,0.6,1.2,1,1.9,1.4
				c0.7,0.3,1.5,0.5,2.3,0.5c0.5,0,1-0.1,1.5-0.2c0.5-0.2,0.9-0.4,1.4-0.6c0.4-0.3,0.8-0.6,1.2-0.9c0.4-0.4,0.7-0.7,0.9-1.1
				L136.9,29.5z"/>
		</g>
	</g>
	<g class="st0">
		<g>
			<path class="st1" d="M128.6,34.9c-1.4,0-2.7-0.3-3.9-0.8c-1.2-0.5-2.3-1.3-3.2-2.2c-0.9-0.9-1.6-2-2.2-3.2
				c-0.5-1.2-0.8-2.5-0.8-3.9c0-1.4,0.3-2.7,0.8-3.9c0.5-1.2,1.3-2.3,2.2-3.2c0.9-0.9,2-1.6,3.2-2.2c1.2-0.5,2.5-0.8,3.9-0.8
				c0.9,0,1.9,0.1,2.7,0.4c0.9,0.2,1.7,0.6,2.4,1.1c0.7,0.4,1.4,1,2.1,1.6c0.6,0.6,1.1,1.3,1.6,2.1l0.3,0.6l-4.3,1.7l-0.3-0.4
				c-0.2-0.4-0.5-0.7-0.9-1c-0.3-0.3-0.7-0.6-1.1-0.9c-0.4-0.2-0.8-0.4-1.3-0.6c-0.4-0.1-0.9-0.2-1.3-0.2c-0.7,0-1.5,0.2-2.1,0.5
				c-0.7,0.3-1.2,0.7-1.7,1.2c-0.5,0.5-0.9,1.1-1.2,1.8c-0.3,0.7-0.4,1.4-0.4,2.2c0,0.8,0.1,1.5,0.4,2.2c0.3,0.7,0.7,1.3,1.2,1.8
				c0.5,0.5,1.1,0.9,1.7,1.2c0.7,0.3,1.4,0.5,2.1,0.5c0.5,0,0.9-0.1,1.3-0.2c0.4-0.1,0.9-0.3,1.3-0.6c0.4-0.2,0.8-0.5,1.1-0.9
				c0.3-0.3,0.6-0.7,0.9-1.1l0.3-0.4l4.3,1.7l-0.3,0.6c-0.4,0.8-1,1.5-1.6,2.1c-0.6,0.6-1.3,1.2-2.1,1.6c-0.8,0.5-1.6,0.8-2.4,1.1
				C130.5,34.8,129.6,34.9,128.6,34.9z M128.6,15.9c-1.2,0-2.4,0.2-3.5,0.7c-1.1,0.5-2,1.1-2.9,1.9c-0.8,0.8-1.5,1.8-1.9,2.9
				c-0.5,1.1-0.7,2.2-0.7,3.5c0,1.2,0.2,2.4,0.7,3.5c0.5,1.1,1.1,2,1.9,2.9c0.8,0.8,1.8,1.5,2.9,1.9c1.1,0.5,2.2,0.7,3.5,0.7
				c0.8,0,1.6-0.1,2.4-0.3c0.8-0.2,1.5-0.5,2.2-0.9c0.7-0.4,1.3-0.9,1.8-1.4c0.4-0.4,0.8-0.9,1.1-1.3l-2.3-0.9
				c-0.2,0.3-0.5,0.6-0.7,0.9c-0.4,0.4-0.8,0.7-1.3,1c-0.5,0.3-1,0.5-1.5,0.7c-0.5,0.2-1.1,0.3-1.7,0.3c-0.9,0-1.8-0.2-2.6-0.6
				c-0.8-0.4-1.5-0.9-2.1-1.5c-0.6-0.6-1-1.3-1.4-2.2c-0.3-0.8-0.5-1.7-0.5-2.6c0-0.9,0.2-1.8,0.5-2.6c0.3-0.8,0.8-1.5,1.4-2.2
				c0.6-0.6,1.3-1.1,2.1-1.5c0.8-0.4,1.7-0.6,2.6-0.6c0.6,0,1.1,0.1,1.7,0.3c0.5,0.2,1,0.4,1.5,0.7c0.5,0.3,0.9,0.6,1.3,1
				c0.3,0.3,0.5,0.6,0.8,0.8l2.3-0.9c-0.3-0.5-0.7-0.9-1.1-1.3c-0.6-0.6-1.2-1-1.8-1.4c-0.7-0.4-1.4-0.7-2.2-0.9
				C130.3,16,129.5,15.9,128.6,15.9z"/>
		</g>
	</g>
	<g>
		<g>
			<g>
				<path class="st1" d="M143.6,27.3c2.2,0,3.9,1.8,3.9,4s-1.8,4-3.9,4c-2.2,0-3.9-1.8-3.9-4S141.4,27.3,143.6,27.3z"/>
			</g>
		</g>
		<g class="st0">
			<g>
				<path class="st2" d="M143.2,30.5h-1v2.8h-0.7v-2.8h-1v-0.6h2.6L143.2,30.5L143.2,30.5z"/>
			</g>
			<g>
				<path class="st2" d="M146.6,29.9l-1.6,3.4h0l-1.6-3.4h0.7l0.9,2l0.9-2H146.6z"/>
			</g>
		</g>
	</g>
</g>
</svg>
