<?xml version="1.0" encoding="utf-8"?>
<!-- Generator: Adobe Illustrator 24.3.0, SVG Export Plug-In . SVG Version: 6.00 Build 0)  -->
<svg version="1.1" id="Layer_1" xmlns="http://www.w3.org/2000/svg" xmlns:xlink="http://www.w3.org/1999/xlink" x="0px" y="0px"
	 viewBox="0 0 150 50" style="enable-background:new 0 0 150 50;" xml:space="preserve">
<style type="text/css">
	.st0{fill:#DB242E;}
	.st1{fill:#FFFFFF;}
</style>
<g>
	<path class="st0" d="M63,30.8h7.7c0.3-1.2,0.5-2.5,0.6-3.8H63L63,30.8L63,30.8z"/>
	<path class="st0" d="M63,21.4v3.5h8.4c0-1.2-0.1-2.4-0.3-3.5H63z"/>
	<path class="st0" d="M60.6,19.3h10.1C68.1,8.5,58.4,0.5,46.9,0.5c-13.5,0-24.5,11-24.5,24.5c0,13.5,11,24.5,24.5,24.5
		c10.7,0,19.8-6.9,23.2-16.5l-9.4,0L60.6,19.3L60.6,19.3z M46.4,32.9H36.2V31l7-9.6h-7v-2.1h10.1v1.9l-7,9.6h7.2L46.4,32.9
		L46.4,32.9z M58.2,21.4h-7v3.5H58V27h-6.8v3.8h7v2.1h-9.4V19.3h9.4V21.4z"/>
	<polygon class="st1" points="46.3,21.2 46.3,19.3 36.2,19.3 36.2,21.4 43.1,21.4 36.2,31 36.2,32.9 46.4,32.9 46.4,30.8 39.3,30.8 
			"/>
	<polygon class="st1" points="48.8,32.9 58.2,32.9 58.2,30.8 51.2,30.8 51.2,27 58,27 58,24.9 51.2,24.9 51.2,21.4 58.2,21.4 
		58.2,19.3 48.8,19.3 	"/>
	<path class="st1" d="M63,21.4h8.1c-0.1-0.7-0.2-1.4-0.4-2.1H60.6v13.7l9.4,0c0.2-0.7,0.5-1.4,0.6-2.2H63V27h8.3
		c0.1-0.7,0.1-1.3,0.1-2c0,0,0-0.1,0-0.1H63L63,21.4L63,21.4z"/>
	<polygon class="st0" points="81.9,28.7 74.9,19.3 72.5,19.3 72.5,32.9 74.9,32.9 74.9,23.2 82,32.9 84.3,32.9 84.3,19.3 81.9,19.3 
			"/>
	<polygon class="st0" points="87.2,32.9 96.6,32.9 96.6,30.8 89.6,30.8 89.6,27 96.5,27 96.5,24.9 89.6,24.9 89.6,21.4 96.6,21.4 
		96.6,19.3 87.2,19.3 	"/>
	<polygon class="st0" points="110.7,29.8 107.8,19.3 105.9,19.3 103.1,29.8 100.4,19.3 97.8,19.3 101.7,32.9 104.2,32.9 106.9,22.8 
		109.5,32.9 112.1,32.9 116,19.3 113.3,19.3 	"/>
	<path class="st0" d="M119.6,22.9c0-1,0.9-1.7,2.3-1.7c1.4,0,2.9,0.5,4,1.6l1.4-1.8c-1.3-1.2-3-1.9-5.1-1.9c-3,0-5,1.7-5,4
		c0,5,8,3.2,8,6.1c0,0.9-0.8,1.9-2.7,1.9c-1.9,0-3.4-0.9-4.3-1.9l-1.4,1.9c1.2,1.3,3.1,2.2,5.6,2.2c3.7,0,5.3-2,5.3-4.2
		C127.6,23.8,119.6,25.4,119.6,22.9z"/>
</g>
</svg>
