<svg height="461pt" viewBox="0 -18 461.24702 461" width="461pt" xmlns="http://www.w3.org/2000/svg"><path d="m415.902344 281.6875-149.808594 144.296875-260.847656-270.800781 19.410156-129.769532 135.949219-8.765624zm0 0" fill="#f7ba61"/><path d="m21.898438 172.46875 149.808593-144.296875 244.195313 253.519531-149.808594 144.296875zm0 0" fill="#ebebeb"/><path d="m87.503906 65.742188c0 13.253906-10.746094 24-24 24s-24-10.746094-24-24c0-13.253907 10.746094-24 24-24s24 10.746093 24 24zm0 0" fill="#ea9d2d"/><path d="m75.503906 65.742188c0 6.628906-5.375 12-12 12-6.628906 0-12-5.371094-12-12 0-6.628907 5.371094-12 12-12 6.625 0 12 5.371093 12 12zm0 0" fill="#ebebeb"/><path d="m164.671875 101.589844-11.105469-11.527344c-3.066406-3.175781-8.125-3.269531-11.304687-.207031l-46.09375 44.398437c-3.183594 3.066406-3.273438 8.132813-.207031 11.3125l11.09375 11.519532c4.394531 4.589843 10.445312 7.234374 16.800781 7.34375h.464843c12.578126.03125 23.011719-9.726563 23.824219-22.277344 5.925781-.160156 11.582031-2.523438 15.855469-6.632813 9.550781-9.183593 9.851562-24.375.671875-33.929687zm-34.792969 44.609375c-1.476562 1.546875-3.558594 2.363281-5.695312 2.238281-2.121094-.039062-4.136719-.921875-5.601563-2.453125l-5.542969-5.761719 11.519532-11.097656 5.542968 5.761719c3.0625 3.183593 2.964844 8.25-.222656 11.3125zm23.046875-22.199219c-1.464843 1.566406-3.554687 2.386719-5.695312 2.238281-2.117188-.035156-4.132813-.917969-5.597657-2.449219l-5.546874-5.765624 11.519531-11.097657 5.546875 5.761719c3.0625 3.183594 2.960937 8.25-.226563 11.3125zm0 0" fill="#6fbbc6"/><path d="m247.925781 188.015625c-2.3125-2.402344-5.875-3.117187-8.933593-1.792969l-62.753907 27.113282c-4.019531 1.773437-5.855469 6.457031-4.113281 10.488281 1.742188 4.035156 6.410156 5.90625 10.457031 4.199219l10.601563-4.585938 17.28125 17.953125-4.96875 10.398437c-1.902344 3.988282-.210938 8.761719 3.773437 10.664063 1.074219.523437 2.25.796875 3.441407.800781 3.074218-.007812 5.875-1.777344 7.199218-4.550781l29.449219-61.6875c1.445313-3.007813.875-6.59375-1.433594-9zm-39.054687 28.648437 16.878906-7.296874-7.917969 16.597656zm0 0" fill="#e06661"/><g fill="#6fbbc6"><path d="m203.519531 141.925781-11.074219-11.527343c-1.46875-1.523438-3.480468-2.40625-5.597656-2.449219-2.113281-.007813-4.152344.789062-5.695312 2.234375l-23.105469 22.199218-23.046875 22.199219c-2.144531 1.960938-3.058594 4.933594-2.382812 7.757813.671874 2.828125 2.828124 5.066406 5.625 5.851562 2.796874.78125 5.800781-.015625 7.84375-2.082031l17.289062-16.648437 2.121094 2.203124-10.296875 29.054688c-.996094 2.703125-.457031 5.734375 1.402343 7.929688 1.863282 2.199218 4.761719 3.226562 7.59375 2.691406 2.828126-.535156 5.152344-2.550782 6.082032-5.277344l8.753906-24.71875c10.441406 3.328125 21.8125-.863281 27.589844-10.175781 5.78125-9.3125 4.492187-21.363281-3.125-29.242188zm-11.746093 22.402344c-1.527344 1.476563-3.578126 2.285156-5.703126 2.25-2.125-.039063-4.148437-.921875-5.625-2.453125l-5.542968-5.765625 11.519531-11.097656 5.554687 5.761719c3.058594 3.183593 2.960938 8.25-.226562 11.3125zm0 0"/><path d="m257.109375 309.34375c-2.460937-.003906-4.785156-1.140625-6.300781-3.082031-1.511719-1.941407-2.046875-4.472657-1.449219-6.863281l11.558594-46.152344-26.007813 25.046875c-3.199218 2.929687-8.152344 2.773437-11.160156-.351563-3.011719-3.125-2.980469-8.078125.066406-11.167968l46.09375-44.398438c2.570313-2.46875 6.464844-2.941406 9.550782-1.152344 3.085937 1.785156 4.617187 5.398438 3.753906 8.855469l-11.566406 46.152344 26.007812-25.046875c2.042969-2.066406 5.046875-2.863282 7.84375-2.082032 2.796875.785157 4.953125 3.023438 5.625 5.851563.675781 2.828125-.238281 5.796875-2.382812 7.757813l-46.085938 44.398437c-1.492188 1.433594-3.476562 2.234375-5.546875 2.234375zm0 0"/><path d="m302.375 342.175781c-10.863281.011719-21.265625-4.40625-28.800781-12.234375l-5.550781-5.765625c-3.058594-3.183593-2.960938-8.242187.214843-11.304687l46.097657-44.402344c1.574218-1.394531 3.589843-2.191406 5.695312-2.238281 2.117188.042969 4.132812.929687 5.601562 2.457031l5.542969 5.757812c11.113281 11.554688 14.253907 28.628907 7.980469 43.382813s-20.75 24.335937-36.78125 24.347656zm-17.296875-23.328125c9.199219 9.542969 24.390625 9.828125 33.9375.632813 9.546875-9.199219 9.828125-24.390625.632813-33.9375zm0 0"/></g><path d="m52.445312 62.222656c-2.175781.003906-4.257812-.882812-5.765624-2.449218l-44.441407-46.09375c-3.066406-3.183594-2.96875-8.25.210938-11.316407 3.183593-3.066406 8.25-2.972656 11.316406.210938l44.402344 46.097656c2.226562 2.308594 2.855469 5.726563 1.601562 8.679687-1.253906 2.953126-4.152343 4.871094-7.363281 4.871094zm0 0" fill="#69b0bb"/><path d="m213.246094 369.984375h112l-59.152344 56zm0 0" fill="#f7ba61"/><path d="m461.246094 269.984375c0 28.71875-23.28125 52-52 52s-52-23.28125-52-52 23.28125-52 52-52 52 23.28125 52 52zm0 0" fill="#aedee2"/><path d="m441.246094 261.984375h-12.6875l8.96875-8.96875-11.3125-11.3125-8.96875 8.96875v-12.6875h-16v12.6875l-8.96875-8.96875-11.308594 11.3125 8.964844 8.96875h-12.6875v16h12.6875l-8.964844 8.972656 11.308594 11.3125 8.96875-8.976562v12.691406h16v-12.691406l8.96875 8.976562 11.3125-11.3125-8.96875-8.972656h12.6875zm0 0" fill="#6fbbc6"/></svg>