<svg id="Capa_1" enable-background="new 0 0 512 512" fill="#169d50" height="512" viewBox="0 0 512 512" width="512" xmlns="http://www.w3.org/2000/svg"><g><path d="m359.031 327.518c-15.05 0-27.293 12.241-27.293 27.288s12.243 27.288 27.293 27.288 27.293-12.241 27.293-27.288-12.243-27.288-27.293-27.288zm0 39.576c-6.778 0-12.293-5.512-12.293-12.288s5.515-12.288 12.293-12.288 12.293 5.512 12.293 12.288-5.514 12.288-12.293 12.288z"/><path d="m128.944 382.094c15.05 0 27.294-12.241 27.294-27.288s-12.244-27.288-27.294-27.288-27.293 12.241-27.293 27.288 12.244 27.288 27.293 27.288zm0-39.576c6.779 0 12.294 5.512 12.294 12.288s-5.515 12.288-12.294 12.288c-6.778 0-12.293-5.512-12.293-12.288s5.515-12.288 12.293-12.288z"/><path d="m414.492 381.999h74.121c12.896 0 23.388-10.492 23.388-23.388v-2.178c0-8.425-4.479-15.823-11.181-19.94v-86.551c0-12.406-8.879-22.778-20.618-25.094l-47.295-99.239c-9.124-19.147-28.728-31.519-49.942-31.519h-282.51c-4.143 0-7.5 3.358-7.5 7.5s3.357 7.5 7.5 7.5h282.51c15.463 0 29.751 9.017 36.401 22.972l2.419 5.075h-385.639v-7.842c0-11.141 9.067-20.205 20.213-20.205h14.096c4.143 0 7.5-3.358 7.5-7.5s-3.357-7.5-7.5-7.5h-14.097c-19.416 0-35.213 15.793-35.213 35.205v203.86c-11.848 1.133-21.145 11.138-21.145 23.278v2.178c0 12.896 10.491 23.388 23.388 23.388h50.096c4.009 8.139 9.758 15.269 16.76 20.911h-82.305c-4.143 0-7.5 3.358-7.5 7.5s3.357 7.5 7.5 7.5h496.121c4.143 0 7.5-3.358 7.5-7.5s-3.357-7.5-7.5-7.5h-106.328c7.001-5.642 12.751-12.772 16.76-20.911zm-55.461 19.579c-25.799 0-46.787-20.982-46.787-46.772s20.988-46.772 46.787-46.772c25.798 0 46.786 20.982 46.786 46.772s-20.988 46.772-46.786 46.772zm137.969-42.967c0 4.625-3.763 8.388-8.388 8.388h-69.009c.793-3.943 1.214-8.019 1.214-12.193 0-2.285-.134-4.539-.378-6.76h68.172c4.625 0 8.388 3.763 8.388 8.388v2.177zm-11.181-79.203h-7.536c-8.656 0-15.698-7.042-15.698-15.698v-24.346h12.652c5.835 0 10.582 4.745 10.582 10.578zm-22.464-55.043h-131.493c-5.12 0-9.285-4.165-9.285-9.285v-62.942h106.355zm-155.778-72.228v134.771c0 4.142 3.358 7.5 7.5 7.5 4.143 0 7.5-3.358 7.5-7.5v-49.393c2.862 1.189 5.998 1.849 9.285 1.849h115.723v24.346c0 16.927 13.771 30.698 30.698 30.698h7.536v38.637h-68.972c-8.823-23.354-31.406-40.012-57.816-40.012-26.411 0-48.994 16.658-57.817 40.012h-32.162c-4.143 0-7.5 3.358-7.5 7.5s3.357 7.5 7.5 7.5h28.57c-.243 2.221-.378 4.475-.378 6.76 0 4.173.421 8.249 1.214 12.193h-108.941c.793-3.943 1.214-8.019 1.214-12.193 0-2.285-.134-4.539-.377-6.76h48.698c4.143 0 7.5-3.358 7.5-7.5s-3.357-7.5-7.5-7.5h-52.29c-8.824-23.354-31.407-40.012-57.817-40.012-26.411 0-48.993 16.658-57.816 40.012h-34.983v-12.878h7.901c12.052 0 21.857-9.805 21.857-21.858v-1.043c0-12.053-9.806-21.858-21.857-21.858h-7.901v-10.848h196.382c4.143 0 7.5-3.358 7.5-7.5s-3.357-7.5-7.5-7.5h-196.382v-97.422h271.431zm-271.431 138.271h7.901c3.781 0 6.857 3.076 6.857 6.858v1.043c0 3.781-3.076 6.858-6.857 6.858h-7.901zm-12.758 76.591c-4.625 0-8.388-3.763-8.388-8.388v-2.178c0-4.625 3.763-8.388 8.388-8.388h44.148c-.243 2.221-.377 4.475-.377 6.76 0 4.173.421 8.249 1.214 12.193h-44.985zm58.77-12.193c0-25.79 20.988-46.772 46.786-46.772 25.799 0 46.787 20.982 46.787 46.772s-20.988 46.772-46.787 46.772c-25.798 0-46.786-20.982-46.786-46.772zm85.488 48.103c7.003-5.642 12.753-12.773 16.762-20.914.024 0 .046.004.07.004h119.092c4.009 8.139 9.759 15.269 16.76 20.911h-152.684z"/><path d="m194.309 234.454h76.436c8.504 0 15.422-6.918 15.422-15.422v-34.473c0-8.504-6.918-15.422-15.422-15.422h-76.436c-8.504 0-15.422 6.918-15.422 15.422v34.473c0 8.504 6.918 15.422 15.422 15.422zm-.422-49.895c0-.233.189-.422.422-.422h76.436c.232 0 .422.189.422.422v34.473c0 .233-.189.422-.422.422h-76.436c-.232 0-.422-.189-.422-.422z"/><path d="m68.456 234.454h76.436c8.504 0 15.422-6.918 15.422-15.422v-34.473c0-8.504-6.918-15.422-15.422-15.422h-76.436c-8.504 0-15.422 6.918-15.422 15.422v34.473c0 8.504 6.918 15.422 15.422 15.422zm-.422-49.895c0-.233.189-.422.422-.422h76.436c.232 0 .422.189.422.422v34.473c0 .233-.189.422-.422.422h-76.436c-.232 0-.422-.189-.422-.422z"/></g></svg>