<?xml version="1.0" encoding="iso-8859-1"?>
<!-- Generator: Adobe Illustrator 19.0.0, SVG Export Plug-In . SVG Version: 6.00 Build 0)  -->
<svg version="1.1" id="Capa_1" fill="#169d50" xmlns="http://www.w3.org/2000/svg" xmlns:xlink="http://www.w3.org/1999/xlink" x="0px" y="0px"
	 viewBox="0 0 512 512" style="enable-background:new 0 0 512 512;" xml:space="preserve">
<g>
	<g>
		<g>
			<path d="M119.985,229.777h0.001c9.016-8.94,14.61-21.326,14.61-34.996c0-27.19-22.121-49.311-49.311-49.311
				s-49.311,22.121-49.311,49.311c0,15.126,6.852,28.677,17.608,37.729l-17.386,17.385l-0.062,36.001l-10.188-10.188H0V512h35.992
				v-88.578h61.79V512h35.992v-58.797h40.814V326.651h-54.603V229.777z M50.975,194.782c0-18.919,15.392-34.311,34.311-34.311
				s34.311,15.392,34.311,34.311s-15.392,34.311-34.311,34.311S50.975,213.701,50.975,194.782z M20.992,497H15v-73.578h5.992V497z
				 M118.774,497h-5.992v-73.578h5.992V497z M118.774,408.422H15V290.708h4.735l16.24,16.24v73.078l-0.013,7.42h82.812V408.422z
				 M159.589,341.651L159.589,341.651v96.552h-25.814v-65.757H50.988l0.2-116.327l12.027-12.027h41.771v97.559H159.589z"/>
			<path d="M307.481,497h-6.522v-27.917h-15V497h-6.503V314.293h100.091V271.5h-82.304v-14.075h-15V271.5H229.75v-14.075h-15V271.5
				h-82.297v42.793h100.091V497h-6.522v-27.917h-15V497H204.5v-27.917h-15V512h132.981v-42.917h-15V497z M147.453,299.293V286.5
				h217.094v12.793H147.453z M264.456,497h-16.912V314.293h16.912V497z"/>
			<path d="M486.052,275.708l-10.188,10.188l-0.062-36.001l-17.386-17.385c10.756-9.053,17.608-22.603,17.608-37.729
				c0-27.19-22.121-49.311-49.311-49.311s-49.311,22.121-49.311,49.311c0,13.67,5.595,26.055,14.61,34.996v96.874h-54.603v126.552
				h40.814V512h35.992v-88.578h61.79V512H512V275.708H486.052z M426.714,160.471c18.919,0,34.311,15.392,34.311,34.311
				s-15.392,34.311-34.311,34.311s-34.311-15.392-34.311-34.311S407.795,160.471,426.714,160.471z M378.226,438.203h-25.815v-96.552
				h54.603v-97.559h41.771l12.027,12.027l0.2,116.327h-82.786V438.203z M399.218,497h-5.992v-73.578h5.992V497z M497,497h-5.992
				v-73.578H497V497z M497,408.421H393.226v-20.975h82.812l-0.013-7.42v-73.078l16.24-16.24H497V408.421z"/>
			<path d="M328.75,259v-13.14l-17.512-17.511h-20.033c8.491-8.806,13.73-20.769,13.73-33.939c0-26.985-21.954-48.939-48.938-48.939
				c-26.985,0-48.939,21.954-48.939,48.939c0,13.17,5.239,25.133,13.731,33.939h-20.033l-17.511,17.511V259h15v-6.926l8.724-8.724
				h98.058l8.725,8.725V259H328.75z M255.997,228.35c-18.713,0-33.939-15.225-33.939-33.939c0-18.714,15.226-33.939,33.939-33.939
				s33.938,15.225,33.938,33.939S274.71,228.35,255.997,228.35z"/>
			<rect x="74.12" y="278.25" width="15" height="15"/>
			<rect x="74.12" y="303.25" width="15" height="42.25"/>
			<rect x="74.12" y="253.25" width="15" height="15"/>
			<rect x="428.23" y="253.25" width="15" height="15"/>
			<rect x="428.23" y="303.25" width="15" height="42.25"/>
			<rect x="428.23" y="278.25" width="15" height="15"/>
			<polygon points="183.244,326.793 183.244,344 189.5,344 189.5,456.583 220.044,456.583 220.044,441.583 204.5,441.583 204.5,344 
				220.044,344 220.044,329 198.244,329 198.244,326.793 			"/>
			<polygon points="313.737,329 291.938,329 291.938,344 307.481,344 307.481,441.583 291.938,441.583 291.938,456.583 
				322.481,456.583 322.481,344 328.737,344 328.737,326.793 313.737,326.793 			"/>
			<rect x="285.96" y="352.46" width="15" height="15"/>
			<rect x="285.96" y="402.46" width="15" height="30"/>
			<rect x="285.96" y="377.46" width="15" height="15"/>
			<path d="M256,135.606l23.999-23.999h56.447V0H175.554v111.608h56.447L256,135.606z M190.554,15h130.893v81.608h-47.66
				L256,114.394l-17.786-17.786h-47.66V15z"/>
			<path d="M307.75,67.5h-11.196c-3.089-16.741-16.313-29.965-33.054-33.054V28h-15v6.446
				c-16.741,3.089-29.965,16.313-33.054,33.054H204.25v15h103.5V67.5z M230.842,67.5c3.234-10.831,13.289-18.75,25.158-18.75
				s21.924,7.919,25.158,18.75H230.842z"/>
		</g>
	</g>
</g>
<g>
</g>
<g>
</g>
<g>
</g>
<g>
</g>
<g>
</g>
<g>
</g>
<g>
</g>
<g>
</g>
<g>
</g>
<g>
</g>
<g>
</g>
<g>
</g>
<g>
</g>
<g>
</g>
<g>
</g>
</svg>
