<svg id="Layer_5" enable-background="new 0 0 64 64" height="512" viewBox="0 0 64 64" width="512" xmlns="http://www.w3.org/2000/svg" fill="#2fc72f"><g><path d="m53 17.145v-2.145h-2v2.145c-1.155.366-2 1.435-2 2.709 0 1.088.604 2.065 1.578 2.553l1.949.975c.292.145.473.438.473.764 0 .47-.384.854-.854.854h-.291c-.471 0-.855-.384-.855-.854v-1.146h-2v1.146c0 1.275.845 2.344 2 2.709v2.145h2v-2.145c1.155-.366 2-1.435 2-2.709 0-1.088-.604-2.065-1.578-2.553l-1.949-.975c-.292-.145-.473-.438-.473-.764 0-.47.384-.854.854-.854h.291c.471 0 .855.384.855.854v.146h2v-.146c0-1.274-.845-2.343-2-2.709z"/><path d="m61 17-3.902-5.203 1.761-6.168c.094-.324.141-.66.141-.997 0-2.003-1.629-3.632-3.632-3.632h-2.736c-1.413 0-2.627.819-3.227 2h-2.577c-2.11 0-3.828 1.718-3.828 3.828 0 1.022.398 1.984 1.121 2.707l2.559 2.559-3.68 4.906c-1.29 1.721-2 3.852-2 6 0 4.94 3.605 9.044 8.319 9.847l-1.566 10.178c-.922.046-1.781.328-2.506.808l-4.548-4.548c.188-.391.301-.823.301-1.285 0-1.302-.839-2.402-2-2.816v-29.184c0-2.757-2.243-5-5-5h-28c-2.757 0-5 2.243-5 5v52c0 2.757 2.243 5 5 5h28c2.757 0 5-2.243 5-5v-17.184c.098-.035.193-.072.285-.116l4.548 4.548c-.524.79-.833 1.735-.833 2.752 0 2.757 2.243 5 5 5s5-2.243 5-5c0-2.146-1.367-3.965-3.27-4.673l1.589-10.327h1.681c5.514 0 10-4.486 10-10 0-2.148-.71-4.279-2-6zm-16-10.172c0-1.008.82-1.828 1.828-1.828h2.172v2h2v-2.368c0-.9.732-1.632 1.632-1.632h2.736c.9 0 1.632.732 1.632 1.632 0 .151-.021.302-.063.448l-1.692 5.92h-6.831l-2.879-2.879c-.34-.34-.535-.811-.535-1.293zm-28-.828v-3h6v3c0 1.654-1.346 3-3 3s-3-1.346-3-3zm20 5v24.184c-1.161.414-2 1.514-2 2.816 0 .614.187 1.185.505 1.661l-4.005 5.339h-1.5v2h2.5l4.5-6.001v8.001h-34v-38zm0 27c0-.552.448-1 1-1s1 .448 1 1-.448 1-1 1-1-.448-1-1zm0-32v3h-13.026c.635-.838 1.026-1.87 1.026-3v-3h9c1.654 0 3 1.346 3 3zm-31-3h9v3c0 1.13.391 2.162 1.026 3h-13.026v-3c0-1.654 1.346-3 3-3zm28 58h-28c-1.654 0-3-1.346-3-3v-7h34v7c0 1.654-1.346 3-3 3zm17-13c0 1.654-1.346 3-3 3s-3-1.346-3-3 1.346-3 3-3 3 1.346 3 3zm2-17h-2c-4.411 0-8-3.589-8-8 0-1.719.568-3.424 1.6-4.801l3.9-5.199h7l3.9 5.199c1.032 1.377 1.6 3.082 1.6 4.801 0 4.411-3.589 8-8 8z"/><path d="m23 53h-6c-1.103 0-2 .897-2 2v2c0 1.103.897 2 2 2h6c1.103 0 2-.897 2-2v-2c0-1.103-.897-2-2-2zm-6 4v-2h6l.002 2z"/><path d="m9 53h-2c-1.103 0-2 .897-2 2v2c0 1.103.897 2 2 2h2c1.103 0 2-.897 2-2v-2c0-1.103-.897-2-2-2zm-2 4v-2h2l.002 2z"/><path d="m33 53h-2c-1.103 0-2 .897-2 2v2c0 1.103.897 2 2 2h2c1.103 0 2-.897 2-2v-2c0-1.103-.897-2-2-2zm-2 4v-2h2l.002 2z"/><circle cx="20" cy="6" r="1"/><path d="m9 25v10.184c-1.161.414-2 1.514-2 2.816v3h26v-3c0-1.302-.839-2.402-2-2.816v-10.184h4v-2.598l-12.646-6.81c-1.445-.775-3.263-.775-4.71 0l-12.644 6.81v2.598zm6 0v10h-4v-10zm2 10v-10h6v10zm14 4h-22v-1c0-.552.448-1 1-1h20c.552 0 1 .448 1 1zm-2-4h-4v-10h4zm-10.407-17.646c.863-.463 1.952-.463 2.813 0l10.485 5.646h-23.782z"/><path d="m22 45h2v2h-2z"/><path d="m26 45h2v2h-2z"/><path d="m18 45h2v2h-2z"/></g></svg>