<svg height="100" viewBox="0 -68 512 512" width="100" xmlns="http://www.w3.org/2000/svg" fill="#fff"><path d="m88 232h-80c-4.425781 0-8-3.574219-8-8v-216c0-4.425781 3.574219-8 8-8h80c4.425781 0 8 3.574219 8 8v216c0 4.425781-3.574219 8-8 8zm-72-16h64v-200h-64zm0 0"/><path d="m8 280c-4.425781 0-8-3.574219-8-8v-48c0-4.425781 3.574219-8 8-8s8 3.574219 8 8v48c0 4.425781-3.574219 8-8 8zm0 0"/><path d="m88 280c-4.425781 0-8-3.574219-8-8v-48c0-4.425781 3.574219-8 8-8s8 3.574219 8 8v48c0 4.425781-3.574219 8-8 8zm0 0"/><path d="m88 280h-80c-4.425781 0-8-3.574219-8-8s3.574219-8 8-8h80c4.425781 0 8 3.574219 8 8s-3.574219 8-8 8zm0 0"/><path d="m504 280h-416c-4.425781 0-8-3.574219-8-8s3.574219-8 8-8h416c4.425781 0 8 3.574219 8 8s-3.574219 8-8 8zm0 0"/><path d="m504 256h-416c-4.425781 0-8-3.574219-8-8s3.574219-8 8-8h416c4.425781 0 8 3.574219 8 8s-3.574219 8-8 8zm0 0"/><path d="m504 232h-416c-4.425781 0-8-3.574219-8-8s3.574219-8 8-8h416c4.425781 0 8 3.574219 8 8s-3.574219 8-8 8zm0 0"/><path d="m504 280c-4.425781 0-8-3.574219-8-8v-264c0-4.425781 3.574219-8 8-8s8 3.574219 8 8v264c0 4.425781-3.574219 8-8 8zm0 0"/><path d="m504 16h-416c-4.425781 0-8-3.574219-8-8s3.574219-8 8-8h416c4.425781 0 8 3.574219 8 8s-3.574219 8-8 8zm0 0"/><path d="m96 40h-8c-4.425781 0-8-3.574219-8-8s3.574219-8 8-8h8c4.425781 0 8 3.574219 8 8s-3.574219 8-8 8zm0 0"/><path d="m96 64h-8c-4.425781 0-8-3.574219-8-8s3.574219-8 8-8h8c4.425781 0 8 3.574219 8 8s-3.574219 8-8 8zm0 0"/><path d="m96 88h-8c-4.425781 0-8-3.574219-8-8s3.574219-8 8-8h8c4.425781 0 8 3.574219 8 8s-3.574219 8-8 8zm0 0"/><path d="m96 112h-8c-4.425781 0-8-3.574219-8-8s3.574219-8 8-8h8c4.425781 0 8 3.574219 8 8s-3.574219 8-8 8zm0 0"/><path d="m96 136h-8c-4.425781 0-8-3.574219-8-8s3.574219-8 8-8h8c4.425781 0 8 3.574219 8 8s-3.574219 8-8 8zm0 0"/><path d="m96 160h-8c-4.425781 0-8-3.574219-8-8s3.574219-8 8-8h8c4.425781 0 8 3.574219 8 8s-3.574219 8-8 8zm0 0"/><path d="m96 184h-8c-4.425781 0-8-3.574219-8-8s3.574219-8 8-8h8c4.425781 0 8 3.574219 8 8s-3.574219 8-8 8zm0 0"/><path d="m96 208h-8c-4.425781 0-8-3.574219-8-8s3.574219-8 8-8h8c4.425781 0 8 3.574219 8 8s-3.574219 8-8 8zm0 0"/><path d="m164 104c-19.847656 0-36-16.152344-36-36s16.152344-36 36-36 36 16.152344 36 36-16.152344 36-36 36zm0-56c-11.03125 0-20 8.96875-20 20s8.96875 20 20 20 20-8.96875 20-20-8.96875-20-20-20zm0 0"/><path d="m472 184h-56c-4.425781 0-8-3.574219-8-8s3.574219-8 8-8h56c4.425781 0 8 3.574219 8 8s-3.574219 8-8 8zm0 0"/><path d="m456 200c-4.425781 0-8-3.574219-8-8v-32c0-4.425781 3.574219-8 8-8s8 3.574219 8 8v32c0 4.425781-3.574219 8-8 8zm0 0"/><path d="m456.007812 200c-2.441406 0-4.832031-1.105469-6.40625-3.199219l-24-32c-2.65625-3.527343-1.9375-8.542969 1.597657-11.191406 3.527343-2.65625 8.535156-1.945313 11.191406 1.597656l24 32c2.65625 3.527344 1.9375 8.546875-1.597656 11.191407-1.433594 1.082031-3.113281 1.601562-4.785157 1.601562zm0 0"/><path d="m432 200c-4.425781 0-8-3.574219-8-8v-32c0-4.425781 3.574219-8 8-8s8 3.574219 8 8v32c0 4.425781-3.574219 8-8 8zm0 0"/><path d="m320 64h-96c-4.425781 0-8-3.574219-8-8s3.574219-8 8-8h96c4.425781 0 8 3.574219 8 8s-3.574219 8-8 8zm0 0"/><path d="m272 88h-48c-4.425781 0-8-3.574219-8-8s3.574219-8 8-8h48c4.425781 0 8 3.574219 8 8s-3.574219 8-8 8zm0 0"/><path d="m320 168h-24c-4.425781 0-8-3.574219-8-8s3.574219-8 8-8h24c4.425781 0 8 3.574219 8 8s-3.574219 8-8 8zm0 0"/><path d="m320.007812 200c-2.441406 0-4.832031-1.105469-6.40625-3.199219l-24-32c-2.65625-3.527343-1.9375-8.542969 1.597657-11.191406 3.519531-2.65625 8.542969-1.945313 11.191406 1.597656l24 32c2.65625 3.527344 1.9375 8.546875-1.597656 11.191407-1.433594 1.082031-3.113281 1.601562-4.785157 1.601562zm0 0"/><path d="m320 200h-24c-4.425781 0-8-3.574219-8-8s3.574219-8 8-8h24c4.425781 0 8 3.574219 8 8s-3.574219 8-8 8zm0 0"/><path d="m264 184h-128c-4.425781 0-8-3.574219-8-8s3.574219-8 8-8h128c4.425781 0 8 3.574219 8 8s-3.574219 8-8 8zm0 0"/><path d="m472 56h-56c-4.425781 0-8-3.574219-8-8s3.574219-8 8-8h56c4.425781 0 8 3.574219 8 8s-3.574219 8-8 8zm0 0"/><path d="m472 80h-56c-4.425781 0-8-3.574219-8-8s3.574219-8 8-8h56c4.425781 0 8 3.574219 8 8s-3.574219 8-8 8zm0 0"/><path d="m440 104h-24c-4.425781 0-8-3.574219-8-8s3.574219-8 8-8h24c4.425781 0 8 3.574219 8 8s-3.574219 8-8 8zm0 0"/><path d="m448 352c-4.425781 0-8-3.574219-8-8s3.574219-8 8-8c4.414062 0 8-3.585938 8-8s-3.585938-8-8-8c-4.425781 0-8-3.574219-8-8s3.574219-8 8-8c13.230469 0 24 10.769531 24 24s-10.769531 24-24 24zm0 0"/><path d="m448 320h-368c-4.425781 0-8-3.574219-8-8s3.574219-8 8-8h368c4.425781 0 8 3.574219 8 8s-3.574219 8-8 8zm0 0"/><path d="m448 352h-368c-4.425781 0-8-3.574219-8-8s3.574219-8 8-8h368c4.425781 0 8 3.574219 8 8s-3.574219 8-8 8zm0 0"/><path d="m56.007812 336c-2.582031 0-5.128906-1.246094-6.664062-3.558594-2.457031-3.679687-1.464844-8.640625 2.214844-11.097656l24-16c3.679687-2.449219 8.640625-1.464844 11.097656 2.214844 2.457031 3.679687 1.464844 8.640625-2.214844 11.097656l-24 16c-1.371094.902344-2.914062 1.34375-4.433594 1.34375zm0 0"/><path d="m79.992188 352c-1.519532 0-3.0625-.441406-4.433594-1.34375l-24-16c-3.679688-2.457031-4.671875-7.417969-2.214844-11.097656 2.449219-3.679688 7.398438-4.671875 11.097656-2.214844l24 16c3.679688 2.457031 4.671875 7.417969 2.214844 11.097656-1.535156 2.3125-4.082031 3.558594-6.664062 3.558594zm0 0"/><path d="m56 336h-8c-4.425781 0-8-3.574219-8-8s3.574219-8 8-8h8c4.425781 0 8 3.574219 8 8s-3.574219 8-8 8zm0 0"/><path d="m96 352c-4.425781 0-8-3.574219-8-8v-32c0-4.425781 3.574219-8 8-8s8 3.574219 8 8v32c0 4.425781-3.574219 8-8 8zm0 0"/><path d="m424 376c-4.425781 0-8-3.574219-8-8s3.574219-8 8-8c4.414062 0 8-3.585938 8-8 0-4.425781 3.574219-8 8-8s8 3.574219 8 8c0 13.230469-10.769531 24-24 24zm0 0"/><path d="m424 376h-112c-4.425781 0-8-3.574219-8-8s3.574219-8 8-8h112c4.425781 0 8 3.574219 8 8s-3.574219 8-8 8zm0 0"/><path d="m440 360c-4.425781 0-8-3.574219-8-8v-8c0-4.425781 3.574219-8 8-8s8 3.574219 8 8v8c0 4.425781-3.574219 8-8 8zm0 0"/><path d="m312 352c-4.425781 0-8-3.574219-8-8v-32c0-4.425781 3.574219-8 8-8s8 3.574219 8 8v32c0 4.425781-3.574219 8-8 8zm0 0"/></svg>