<svg id="Capa_1" enable-background="new 0 0 497 497" height="100" viewBox="0 0 497 497" width="100" xmlns="http://www.w3.org/2000/svg"><g><path d="m497 29.875v301.52c0 5.66-4.59 10.26-10.26 10.26h-476.48c-5.67 0-10.26-4.6-10.26-10.26v-301.52c0-5.66 4.59-10.26 10.26-10.26h476.48c5.67 0 10.26 4.6 10.26 10.26z" fill="#f0bdb1"/><path d="m445.62 309.294c0 11.4-2.11 22.31-5.97 32.36h-168.88c-3.86-10.05-5.97-20.96-5.97-32.36 0-49.94 40.48-90.41 90.41-90.41 49.93.001 90.41 40.471 90.41 90.41z" fill="#eaa998"/><path d="m486.739 19.616h-16.518c5.667 0 10.261 4.594 10.261 10.261v301.515c0 5.667-4.594 10.261-10.261 10.261h16.518c5.667 0 10.261-4.594 10.261-10.261v-301.515c0-5.667-4.594-10.261-10.261-10.261z" fill="#eaa998"/><path d="m317.879 474.799-14.265-18.482c-1.224-1.585-3.097-2.535-5.099-2.584l-23.34-.572c-4.884-.12-7.974-5.291-5.766-9.649l46.834-92.431 59.66 30.229-46.834 92.431c-2.207 4.359-8.205 4.926-11.19 1.058z" fill="#e5646e"/><path d="m316.24 351.085-4.23 8.34 43.2 21.89-38.906 76.781c-2.081 4.107-7.733 4.642-10.548.998l6.064 7.851 6.06 7.85c2.98 3.87 8.98 3.31 11.19-1.05l46.83-92.43z" fill="#db4655"/><path d="m433.929 474.799 14.265-18.482c1.224-1.585 3.097-2.535 5.099-2.584l23.34-.572c4.884-.12 7.974-5.291 5.766-9.649l-46.834-92.431-59.66 30.229 46.834 92.431c2.207 4.359 8.205 4.926 11.19 1.058z" fill="#e5646e"/><path d="m482.398 443.513-46.834-92.431-16.467 8.344 42.606 84.087c2.208 4.358-.882 9.529-5.766 9.649l-23.34.572c-2.002.049-3.875.998-5.099 2.584l-8.204 10.629 3.444 6.796c2.208 4.358 8.206 4.924 11.191 1.057l14.265-18.482c1.224-1.585 3.097-2.535 5.099-2.584l23.34-.572c4.883-.12 7.973-5.291 5.765-9.649z" fill="#db4655"/><path d="m464.64 86.555v222.74h-394.77c-2.83 0-5.54-1.18-7.48-3.25l-27.26-29.08c-1.78-1.9-2.77-4.41-2.77-7.02v-207.71c0-5.66 4.6-10.26 10.26-10.26h386.8c2.67 0 5.24 1.05 7.16 2.91l24.96 24.32c1.98 1.93 3.1 4.579 3.1 7.35z" fill="#fff3be"/><path d="m445.62 309.294h-180.82c0-49.94 40.48-90.41 90.41-90.41 49.93.001 90.41 40.471 90.41 90.41z" fill="#ffea8c"/><path d="m461.538 79.203-24.961-24.315c-1.916-1.866-4.485-2.911-7.16-2.911h-20.02c2.675 0 5.244 1.044 7.16 2.911l24.961 24.315c1.983 1.931 3.101 4.582 3.101 7.35v222.738h20.02v-222.738c0-2.768-1.118-5.418-3.101-7.35z" fill="#ffea8c"/><circle cx="374.229" cy="309.291" fill="#f4dbb3" r="90.41"/><path d="m374.229 218.881c-3.212 0-6.384.171-9.51.497 45.461 4.753 80.899 43.193 80.899 89.912 0 46.72-35.438 85.16-80.899 89.912 3.126.327 6.298.497 9.51.497 49.932 0 90.41-40.478 90.41-90.41s-40.478-90.408-90.41-90.408z" fill="#eac89f"/><path d="m430.49 309.294c0 26.96-18.96 49.49-44.28 54.98-6.316 1.379-13.038 1.642-19.45.79-.8-.11-1.59-.23-2.37-.37-.74-.13-1.48-.28-2.21-.44-25.28-5.51-44.21-28.03-44.21-54.96 0-27.21 19.31-49.91 44.97-55.14.37-.07.74-.14 1.11-.2 0-.01 0-.01 0-.01.89-.16 1.8-.31 2.71-.43 6.216-.832 12.731-.593 18.87.66 25.6 5.281 44.86 27.951 44.86 55.12z" fill="#c3aff0"/><path d="m353.16 198.917h-207.95c-4.099 0-7.421-3.323-7.421-7.421v-23.438c0-4.099 3.323-7.421 7.421-7.421h207.95c4.099 0 7.421 3.323 7.421 7.421v23.438c.001 4.098-3.322 7.421-7.421 7.421z" fill="#ffd15b"/><path d="m353.16 160.636h-20.02c4.099 0 7.421 3.323 7.421 7.422v23.438c0 4.099-3.323 7.422-7.421 7.422h20.02c4.099 0 7.422-3.323 7.422-7.422v-23.438c0-4.1-3.323-7.422-7.422-7.422z" fill="#ffc344"/><g><g><path d="m283.132 95.842h-69.264c-4.143 0-7.5-3.358-7.5-7.5s3.357-7.5 7.5-7.5h69.264c4.143 0 7.5 3.358 7.5 7.5s-3.358 7.5-7.5 7.5z" fill="#eac89f"/></g><g><path d="m316.258 133.229h-135.516c-4.143 0-7.5-3.358-7.5-7.5s3.357-7.5 7.5-7.5h135.516c4.143 0 7.5 3.358 7.5 7.5s-3.358 7.5-7.5 7.5z" fill="#eac89f"/></g></g><g><path d="m186.326 287.554c-1.401 0-2.808-.391-4.046-1.187-2.834-1.823-4.12-5.299-3.121-8.518 2.247-7.315 2.576-15.493 1.303-17.341-.108-.02-.293-.041-.601-.035-8.166.171-22.764 12.296-30.52 20.851-2.37 2.614-6.245 3.224-9.302 1.462-3.059-1.762-4.476-5.415-3.402-8.777 3.337-10.515 6.124-28.225 1.863-34.66-.655-.989-1.584-1.935-3.929-2.155-6.009-.564-13.913 6.274-21.637 18.771-6.882 11.138-11.232 22.807-11.275 22.923-1.437 3.884-5.752 5.868-9.634 4.434-3.884-1.435-5.871-5.744-4.438-9.628 2.042-5.539 20.727-54.022 48.388-51.435 6.424.604 11.624 3.655 15.041 8.823 3.787 5.73 5.26 14.017 4.396 24.683 9.072-6.686 17.175-10.144 24.134-10.29 5.325-.095 9.868 1.987 12.82 5.907 2.845 3.777 3.789 8.836 3.822 13.794 10.444-4.815 25.958-9.038 45.256-5.733 4.082.7 6.825 4.576 6.126 8.659s-4.575 6.824-8.659 6.126c-28.843-4.945-46.815 10.741-47.566 11.411-1.415 1.266-3.212 1.914-5.019 1.915z" fill="#918291"/></g><circle cx="27.627" cy="311.722" fill="#e5646e" r="7.431"/><circle cx="467.07" cy="47.974" fill="#e5646e" r="7.431"/><g><path d="m96.625 187.276h-21.582c-4.143 0-7.5-3.358-7.5-7.5s3.357-7.5 7.5-7.5h21.582c4.143 0 7.5 3.358 7.5 7.5s-3.357 7.5-7.5 7.5z" fill="#ffc344"/></g><g><path d="m423.219 187.276h-21.582c-4.143 0-7.5-3.358-7.5-7.5s3.357-7.5 7.5-7.5h21.582c4.143 0 7.5 3.358 7.5 7.5s-3.358 7.5-7.5 7.5z" fill="#ffc344"/></g><path d="m399.79 284.165c-4.06-13.58-10.6-24.03-15.12-30.17-5.828-1.107-12.027-1.262-17.91-.48-.91.12-2.71.43-2.71.44-4.28 6.1-10.53 16.63-14.4 30.32-5.44 19.25-7.02 48.41 14.74 80.42.78.14 1.57.26 2.37.37 5.76.769 11.835.626 17.55-.41 22.93-32.01 21.25-61.21 15.48-80.49zm-25.39 68.43c-12.89-20.65-16.42-42.03-10.48-63.66 2.76-10.03 7.09-18.14 10.53-23.53 9.74 14.19 26.09 47.65-.05 87.19z" fill="#aa96e6"/></g></svg>