<svg id="Capa_1" enable-background="new 0 0 510 510" height="100" viewBox="0 0 510 510" width="100" xmlns="http://www.w3.org/2000/svg"><g><g><path d="m75 60h-60v420l127.5 10 112.5-10 10-15-10-15z" fill="#77d4f5"/><path d="m255 450v30l84.852 10 95.148-10v-30l-82-10z" fill="#69b4f4"/></g><path d="m75 0v450h180l10-229.315-10-220.685z" fill="#f1f5fd"/><path d="m495 98.786-68.5-27.286-30.287-71.5h-141.213v450h240z" fill="#dce6f4"/><g><path d="m296.356 122.997-5.44-15.126 27.724-27.724 21.212 21.213-27.723 27.724z" fill="#20b48d"/></g><g><g><path d="m191.36 249.853-21.213-21.213 27.724-27.724 11.879 7.459 9.333 13.755z" fill="#a1f33f"/></g></g><g><path d="m318.64 249.853-27.72-27.72 6.955-14.133 14.252-7.086 27.725 27.726z" fill="#20b48d"/></g><g><g><path d="m197.873 129.086-27.726-27.726 21.213-21.213 27.726 27.726-8.211 11.877z" fill="#a1f33f"/></g></g><g><path d="m360 180h-39.18l-10.135-16.5 10.133-13.5h39.182z" fill="#20b48d"/></g><g><g><path d="m189.181 180h-39.181v-30h39.181l4.652 14z" fill="#a1f33f"/></g></g><path d="m396.213 0-.213 99 99-.214z" fill="#cedcf2"/><path d="m240 60v39.182l7.5 5.568 7.5-7.251 10-15.124-10-22.375z" fill="#a1f33f"/><path d="m270 60h-15v37.499l7.5 6.001 7.5-4.318z" fill="#20b48d"/><path d="m240 230.819v39.181h15l10-21.875-10-15.625-7.5-6.25z" fill="#a1f33f"/><path d="m260.875 227.625-5.875 4.875v37.5h15v-39.181z" fill="#20b48d"/><path d="m150 300v30h105l10-15-10-15z" fill="#ff7038"/><path d="m255 300h165v30h-165z" fill="#ff405c"/><path d="m150 360v30h105l10-15-10-15z" fill="#ff7038"/><path d="m255 360h165v30h-165z" fill="#ff405c"/><path d="m187.5 165c0 37.22 30.28 67.5 67.5 67.5l10-69.501-10-65.499c-37.22 0-67.5 30.28-67.5 67.5z" fill="#77d4f5"/><path d="m255 97.5v135c37.22 0 67.5-30.28 67.5-67.5s-30.28-67.5-67.5-67.5z" fill="#69b4f4"/><path d="m217.5 165c0 20.678 16.822 37.5 37.5 37.5l10-37.5-10-37.5c-20.678 0-37.5 16.822-37.5 37.5z" fill="#69b4f4"/><path d="m255 127.5v75c20.678 0 37.5-16.822 37.5-37.5s-16.822-37.5-37.5-37.5z" fill="#6989f4"/><path d="m255 510h-240v-30h240l15 15z" fill="#69b4f4"/><path d="m255 480h180v30h-180z" fill="#6989f4"/></g></svg>