<?xml version="1.0" encoding="iso-8859-1"?>
<!-- Generator: Adobe Illustrator 19.0.0, SVG Export Plug-In . SVG Version: 6.00 Build 0)  -->
<svg version="1.1" id="Capa_1" xmlns="http://www.w3.org/2000/svg" fill="#18ba60" xmlns:xlink="http://www.w3.org/1999/xlink" x="0px" y="0px"
	 viewBox="0 0 480.001 480.001" style="enable-background:new 0 0 480.001 480.001;" xml:space="preserve">
<g>
	<g>
		<g>
			<path d="M314.649,303.336c4.44,0.392,8.888,0.664,13.352,0.664c83.947,0,152-68.053,152-152s-68.053-152-152-152
				s-152,68.053-152,152c0,4.464,0.272,8.912,0.664,13.352l-2.688-2.688L13.657,2.344C10.479-0.725,5.415-0.637,2.345,2.541
				c-2.994,3.1-2.994,8.015,0,11.115l146.888,146.888C61.118,166.441-5.534,242.653,0.363,330.768s82.109,154.767,170.224,148.87
				c79.899-5.347,143.523-68.971,148.87-148.87l146.888,146.888c3.178,3.07,8.242,2.982,11.312-0.196
				c2.995-3.1,2.995-8.016,0-11.116L314.649,303.336z M328.002,15.377c75.283-0.172,136.451,60.717,136.623,136
				s-60.717,136.451-136,136.623c-11.253,0.026-22.466-1.342-33.383-4.072l-99.2-99.2c-2.675-10.704-4.032-21.695-4.04-32.728
				C191.829,76.717,252.719,15.549,328.002,15.377z M160.001,464c-79.529,0-144-64.471-144-144s64.471-144,144-144
				c1.6,0,3.2,0.056,4.8,0.096L303.905,315.2c0.04,1.6,0.096,3.2,0.096,4.8C304.001,399.529,239.53,464,160.001,464z"/>
			<path d="M280.001,312c-4.418,0-8,3.582-8,8c0,61.856-50.144,112-112,112s-112-50.144-112-112s50.144-112,112-112
				c4.418,0,8-3.582,8-8s-3.582-8-8-8c-70.692,0-128,57.308-128,128s57.308,128,128,128s128-57.308,128-128
				C288.001,315.582,284.42,312,280.001,312z"/>
			<path d="M221.789,188.316c4.27-1.135,6.811-5.518,5.676-9.788c-14.687-55.565,18.452-112.515,74.017-127.201
				c55.565-14.687,112.515,18.452,127.201,74.017c14.687,55.565-18.452,112.515-74.017,127.201
				c-17.44,4.61-35.779,4.607-53.217-0.009c-4.272-1.131-8.653,1.416-9.784,5.688c-1.131,4.272,1.416,8.653,5.688,9.784V268
				c64.124,16.987,129.878-21.225,146.865-85.349c16.987-64.124-21.225-129.878-85.349-146.865s-129.878,21.225-146.865,85.349
				c-5.339,20.154-5.34,41.351-0.003,61.505C213.137,186.91,217.519,189.451,221.789,188.316z"/>
			<path d="M330.601,80.432c-3.235-1.113-6.821-0.046-8.92,2.656l-28,36c-2.713,3.49-2.082,8.519,1.408,11.232
				c3.49,2.713,8.519,2.082,11.232-1.408l13.68-17.6V208h-16c-4.418,0-8,3.582-8,8s3.582,8,8,8h48c4.418,0,8-3.582,8-8s-3.582-8-8-8
				h-16V88C336.002,84.583,333.833,81.543,330.601,80.432z"/>
			<path d="M168.001,232h-16v16.8c-21.65,4.396-35.636,25.51-31.24,47.16c3.789,18.658,20.202,32.059,39.24,32.04
				c13.255,0,24,10.745,24,24s-10.745,24-24,24s-24-10.745-24-24h-16c0.024,19.001,13.389,35.373,32,39.2V408h16v-16.8
				c21.65-4.396,35.636-25.51,31.24-47.16c-3.788-18.657-20.202-32.059-39.24-32.04c-13.255,0-24-10.745-24-24s10.745-24,24-24
				s24,10.745,24,24h16c-0.024-19.001-13.389-35.373-32-39.2V232z"/>
		</g>
	</g>
</g>
<g>
</g>
<g>
</g>
<g>
</g>
<g>
</g>
<g>
</g>
<g>
</g>
<g>
</g>
<g>
</g>
<g>
</g>
<g>
</g>
<g>
</g>
<g>
</g>
<g>
</g>
<g>
</g>
<g>
</g>
</svg>
