<svg xmlns="http://www.w3.org/2000/svg" viewBox="0 0 512 512" fill="#169d50" xmlns:v="https://vecta.io/nano"><path d="M415.807 126.193c-32.876-32.875-74.1-54.36-118.887-62.505C299.532 57.992 301 51.666 301 45c0-24.813-20.187-45-45-45s-45 20.187-45 45c0 6.666 1.468 12.992 4.08 18.688-44.788 8.146-86 29.63-118.886 62.505C53.508 168.88 30 225.633 30 286s23.508 117.12 66.194 159.807S195.633 512 256 512s117.12-23.508 159.807-66.193S482 346.367 482 286s-23.508-117.12-66.193-159.807zM256 30a15.02 15.02 0 0 1 15 15 15.02 15.02 0 0 1-15 15 15.02 15.02 0 0 1-15-15 15.02 15.02 0 0 1 15-15zm0 452c-108.075 0-196-87.925-196-196S147.925 90 256 90s196 87.925 196 196-87.925 196-196 196zm-15-362h30v40h-30zM90 271h40v30H90zm151 141h30v40h-30zm141-141h40v30h-40zm-161.88-20.88l-76.884 148.644L291.88 321.88l76.884-148.644L220.12 250.12zm49.497 49.498L213.2 328.8l29.182-56.42L298.8 243.2l-29.183 56.42z"/></svg>