<svg id="Capa_1" enable-background="new 0 0 512 512" fill="#169d50" height="512" viewBox="0 0 512 512" width="512" xmlns="http://www.w3.org/2000/svg"><g><path d="m302.727 252.565h-146.23c-5.403 0-9.798 4.396-9.798 9.798v47.919c0 5.403 4.396 9.798 9.798 9.798h146.23c5.403 0 9.798-4.396 9.798-9.798v-47.919c0-5.403-4.395-9.798-9.798-9.798zm-5.202 52.515h-135.826v-37.515h135.827v37.515z"/><circle cx="229.612" cy="286.322" r="7.5"/><circle cx="192.842" cy="286.322" r="7.5"/><circle cx="266.382" cy="286.322" r="7.5"/><path d="m147.827 173.132h33.215c4.142 0 7.5-3.358 7.5-7.5s-3.358-7.5-7.5-7.5h-33.215c-4.142 0-7.5 3.358-7.5 7.5s3.358 7.5 7.5 7.5z"/><path d="m147.827 199.962h33.215c4.142 0 7.5-3.358 7.5-7.5s-3.358-7.5-7.5-7.5h-33.215c-4.142 0-7.5 3.358-7.5 7.5s3.358 7.5 7.5 7.5z"/><path d="m181.042 226.792c4.142 0 7.5-3.358 7.5-7.5s-3.358-7.5-7.5-7.5h-33.215c-4.142 0-7.5 3.358-7.5 7.5s3.358 7.5 7.5 7.5z"/><path d="m213.004 173.132h33.215c4.142 0 7.5-3.358 7.5-7.5s-3.358-7.5-7.5-7.5h-33.215c-4.142 0-7.5 3.358-7.5 7.5s3.358 7.5 7.5 7.5z"/><path d="m213.004 199.962h33.215c4.142 0 7.5-3.358 7.5-7.5s-3.358-7.5-7.5-7.5h-33.215c-4.142 0-7.5 3.358-7.5 7.5s3.358 7.5 7.5 7.5z"/><path d="m213.004 226.792h33.215c4.142 0 7.5-3.358 7.5-7.5s-3.358-7.5-7.5-7.5h-33.215c-4.142 0-7.5 3.358-7.5 7.5s3.358 7.5 7.5 7.5z"/><path d="m311.397 158.132h-33.215c-4.142 0-7.5 3.358-7.5 7.5s3.358 7.5 7.5 7.5h33.215c4.142 0 7.5-3.358 7.5-7.5s-3.357-7.5-7.5-7.5z"/><path d="m311.397 184.962h-33.215c-4.142 0-7.5 3.358-7.5 7.5s3.358 7.5 7.5 7.5h33.215c4.142 0 7.5-3.358 7.5-7.5s-3.357-7.5-7.5-7.5z"/><path d="m311.397 211.792h-33.215c-4.142 0-7.5 3.358-7.5 7.5s3.358 7.5 7.5 7.5h33.215c4.142 0 7.5-3.358 7.5-7.5s-3.357-7.5-7.5-7.5z"/><circle cx="33.194" cy="252.302" r="7.5"/><circle cx="58.888" cy="252.302" r="7.5"/><circle cx="83.888" cy="252.302" r="7.5"/><path d="m494.704 222.749c.81-1.985 1.257-4.156 1.257-6.429 0-22.376-18.204-40.58-40.58-40.58h-9.864c-22.376 0-40.58 18.204-40.58 40.58 0 .702.043 1.394.126 2.074h-10.252c.083-.68.126-1.372.126-2.074 0-21.514-16.828-39.17-38.012-40.5v-40.756c0-4.502-3.044-8.305-7.182-9.461v-17.683c0-4.702-3.826-8.527-8.528-8.527h-166.18c-4.142 0-7.5 3.358-7.5 7.5s3.358 7.5 7.5 7.5h159.707v10.851h-210.26v-10.851h15.553c4.142 0 7.5-3.358 7.5-7.5s-3.358-7.5-7.5-7.5h-22.025c-4.702 0-8.528 3.825-8.528 8.527v17.684c-4.138 1.156-7.183 4.959-7.183 9.461v41.039c-1.797-.241-3.617-.363-5.456-.363h-9.863c-22.376 0-40.58 18.204-40.58 40.58 0 .702.043 1.394.126 2.074h-12.619c-18.696-.001-33.907 15.21-33.907 33.907 0 18.696 15.211 33.907 33.907 33.907h68.392v49.743c0 5.416 4.406 9.821 9.822 9.821h7.85v9.485c0 4.142 3.358 7.5 7.5 7.5s7.5-3.358 7.5-7.5v-9.485h10.129v68.767h-10.129v-24.281c0-4.142-3.358-7.5-7.5-7.5s-7.5 3.358-7.5 7.5v24.281h-8.759c-4.142 0-7.5 3.358-7.5 7.5s3.358 7.5 7.5 7.5h57.647c4.142 0 7.5-3.358 7.5-7.5s-3.358-7.5-7.5-7.5h-8.759v-68.767h139.024v68.767h-8.759c-4.142 0-7.5 3.358-7.5 7.5s3.358 7.5 7.5 7.5h57.647c4.142 0 7.5-3.358 7.5-7.5s-3.358-7.5-7.5-7.5h-8.759v-68.767h7.85c5.416 0 9.821-4.406 9.821-9.821v-49.743h15.001c4.142 0 7.5-3.358 7.5-7.5s-3.358-7.5-7.5-7.5h-15.001v-37.815h121.168c10.425 0 18.907 8.482 18.907 18.908 0 10.425-8.482 18.907-18.907 18.907h-71.167c-4.142 0-7.5 3.358-7.5 7.5s3.358 7.5 7.5 7.5h71.167c18.696 0 33.907-15.211 33.907-33.907.001-12.666-6.98-23.731-17.295-29.553zm-433.304-6.428c0-14.105 11.475-25.58 25.58-25.58h9.863c1.854 0 3.678.194 5.456.58v27.073h-38.844c-1.135-.01-2.055-.936-2.055-2.073zm-27.493 54.888c-10.425 0-18.907-8.482-18.907-18.907 0-10.426 8.482-18.908 18.907-18.908h68.392v37.815zm290.346 143.331h-10.129v-68.767h10.129zm17.671-83.766h-224.625c0-31.056 0-150.171 0-190.53h224.625zm15-139.905c12.904 1.292 23.012 12.214 23.012 25.452 0 1.137-.92 2.063-2.055 2.074h-20.957zm65.087 27.525c-1.144 0-2.074-.93-2.074-2.074 0-14.105 11.475-25.58 25.58-25.58h9.864c14.104 0 25.58 11.475 25.58 25.58 0 1.144-.931 2.074-2.074 2.074z"/><circle cx="478.806" cy="252.302" r="7.5"/><circle cx="453.112" cy="252.302" r="7.5"/><circle cx="427.418" cy="252.302" r="7.5"/><circle cx="401.724" cy="252.302" r="7.5"/><circle cx="376.03" cy="252.302" r="7.5"/><path d="m458.763 144.887c-2.645 3.188-2.205 7.916.983 10.561 3.207 2.661 7.934 2.184 10.561-.983l3.082-3.714c8.142-9.813 8.142-24.058-.001-33.871l-3.078-3.709c-3.538-4.264-3.538-10.452 0-14.715l3.075-3.705c2.645-3.188 2.206-7.916-.982-10.561-3.188-2.646-7.916-2.206-10.561.982l-3.075 3.705c-8.144 9.813-8.144 24.059 0 33.873l3.078 3.709c3.537 4.263 3.538 10.451 0 14.715z"/><path d="m419.648 144.886c-2.645 3.188-2.205 7.916.983 10.561 3.208 2.662 7.933 2.184 10.561-.983l3.083-3.715c8.141-9.813 8.141-24.058-.002-33.871l-3.078-3.709c-3.538-4.263-3.538-10.452 0-14.715l3.075-3.705c2.645-3.188 2.206-7.916-.982-10.561-3.188-2.646-7.916-2.206-10.561.982l-3.075 3.705c-8.144 9.814-8.144 24.059 0 33.873l3.078 3.709c3.537 4.263 3.537 10.451 0 14.714z"/><path d="m380.534 144.887c-2.645 3.188-2.205 7.916.983 10.561 3.207 2.661 7.934 2.184 10.561-.983l3.082-3.714c8.142-9.813 8.141-24.058-.001-33.871l-3.078-3.709c-3.538-4.263-3.537-10.452 0-14.714l3.075-3.705c2.646-3.188 2.207-7.916-.981-10.561-3.187-2.646-7.915-2.206-10.561.981l-3.076 3.706c-8.143 9.814-8.143 24.059 0 33.873l3.078 3.709c3.537 4.263 3.538 10.451 0 14.714z"/></g></svg>