<svg height="511pt" viewBox="0 -60 511.99782 511" width="511pt" xmlns="http://www.w3.org/2000/svg" fill="#fff"><path d="m505.917969 5.453125c-.203125-.207031-.417969-.402344-.640625-.582031-3.253906-2.722656-7.4375-4.371094-12.003906-4.371094h-242.886719c-4.144531 0-7.5 3.359375-7.5 7.5s3.355469 7.5 7.5 7.5h230.226562l-136.402343 95.019531c-3.265626 2.269531-7.648438 2.269531-10.90625 0l-136.40625-95.019531h18.488281c4.140625 0 7.5-3.359375 7.5-7.5 0-4.144531-3.359375-7.5-7.5-7.5h-31.148438c-4.570312 0-8.761719 1.648438-12.015625 4.382812-.21875.175782-.425781.363282-.625.566407-3.730468 3.425781-6.085937 8.324219-6.085937 13.777343v187.691407c0 5.5 2.398437 10.4375 6.183593 13.863281.152344.152344.308594.300781.476563.433594 3.261719 2.757812 7.46875 4.429687 12.066406 4.429687h309.035157c4.589843 0 8.796874-1.667969 12.058593-4.421875.171875-.140625.335938-.296875.496094-.453125 3.78125-3.425781 6.167969-8.359375 6.167969-13.851562v-187.691407c.003906-5.449218-2.351563-10.347656-6.078125-13.773437zm-153.136719 117.375.886719-.617187 54.820312 38.191406c3.382813 2.355468 8.0625 1.546875 10.4375-1.867188 2.371094-3.398437 1.535157-8.074218-1.867187-10.441406l-50.269532-35.023438 130.210938-90.707031v181.417969l-51.222656-35.6875c-3.394532-2.371094-8.070313-1.535156-10.4375 1.863281-2.367188 3.398438-1.535156 8.074219 1.863281 10.441407l43.410156 30.246093h-283.714843l126.949218-88.429687.882813.613281c8.390625 5.84375 19.660156 5.84375 28.050781 0zm-172.269531-100.464844 130.214843 90.710938-130.214843 90.707031zm0 0"/><path d="m216.859375 388.386719c17.75 3.613281 35.824219 3.71875 53.703125.289062 4.066406-.78125 6.730469-4.710937 5.953125-8.78125-.78125-4.066406-4.710937-6.726562-8.78125-5.953125-15.921875 3.058594-32.035156 2.972656-47.886719-.253906-102.144531-20.773438-181.570312-100.203125-202.347656-202.347656-8.285156-40.726563 4.3125-82.582032 33.699219-111.96875 10.144531-10.140625 26.644531-10.140625 36.785156 0l42.15625 42.160156c7.917969 7.914062 7 21.011719-1.925781 27.75l-26.210938 19.792969c-15.621094 11.800781-20.363281 33.039062-10.527344 50.070312 24.070313 41.722657 58.84375 76.5 100.5625 100.5625 17.023438 9.839844 38.269532 5.109375 50.074219-10.523437l19.792969-26.210938c6.726562-8.902344 19.8125-9.863281 27.753906-1.925781l42.160156 42.160156c10.140626 10.140625 10.140626 26.640625 0 36.78125-8.984374 8.984375-19.257812 16.5-30.542968 22.339844-3.675782 1.90625-5.113282 6.433594-3.210938 10.109375 1.90625 3.679688 6.429688 5.117188 10.109375 3.210938 12.652344-6.550782 24.175781-14.980469 34.25-25.054688 15.988281-15.988281 15.988281-42.003906 0-57.992188l-42.160156-42.160156c-14.355469-14.355468-38.105469-12.691406-50.328125 3.492188l-19.792969 26.210937c-7.050781 9.339844-20.246093 12.570313-30.601562 6.574219-39.445313-22.75-72.320313-55.625-95.074219-95.070312-5.992188-10.394532-2.75-23.558594 6.578125-30.601563l26.207031-19.792969c16.207032-12.238281 17.835938-35.988281 3.496094-50.328125l-42.160156-42.160156c-15.988282-15.988281-42.003906-15.988281-57.992188 0-32.957031 32.953125-47.085937 79.894531-37.796875 125.5625 21.980469 108.058594 106.003907 192.082031 214.058594 214.058594zm0 0"/></svg>