<svg height="512" viewBox="0 0 64 64" width="512" xmlns="http://www.w3.org/2000/svg" fill="#24730a"><g id="Safe_card_payment" data-name="Safe card payment"><path d="m57 6h-44a5.006 5.006 0 0 0 -5 5v13h-1a5.006 5.006 0 0 0 -5 5v28a5.006 5.006 0 0 0 5 5h44a5.006 5.006 0 0 0 5-5v-13h1a5.006 5.006 0 0 0 5-5v-28a5.006 5.006 0 0 0 -5-5zm-47 8h50v4h-50zm44 43a3 3 0 0 1 -3 3h-44a3 3 0 0 1 -3-3v-28a3 3 0 0 1 3-3h44a3 3 0 0 1 3 3zm6-18a3 3 0 0 1 -3 3h-1v-13a5.006 5.006 0 0 0 -5-5h-41v-4h50zm-50-27v-1a3 3 0 0 1 3-3h44a3 3 0 0 1 3 3v1z"/><path d="m47 42v-3a5 5 0 0 0 -10 0v3a3 3 0 0 0 -3 3v10a3 3 0 0 0 3 3h10a3 3 0 0 0 3-3v-10a3 3 0 0 0 -3-3zm-8-3a3 3 0 0 1 6 0v3h-6zm9 16a1 1 0 0 1 -1 1h-10a1 1 0 0 1 -1-1v-10a1 1 0 0 1 1-1h10a1 1 0 0 1 1 1z"/><path d="m44 47a2 2 0 1 0 -3 1.722v6.278h3v-2h-1v-1h1v-2h-1v-1.278a1.993 1.993 0 0 0 1-1.722z"/><path d="m8 50h4v2h-4z"/><path d="m14 50h4v2h-4z"/><path d="m20 50h4v2h-4z"/><path d="m26 50h4v2h-4z"/><path d="m20 30h-10a2 2 0 0 0 -2 2v8a2 2 0 0 0 2 2h10a2 2 0 0 0 2-2v-8a2 2 0 0 0 -2-2zm0 6h-2v-4h2zm-4-2h-2v-2h2zm-4-2v2h-2v-2zm-2 4h6v4h-6zm8 4v-2h2v2z"/></g></svg>