<?xml version="1.0"?>
<svg xmlns="http://www.w3.org/2000/svg" viewBox="0 0 512 512" width="512" height="512" fill="#14C44C"><g id="outline"><path d="M352,64H288a8,8,0,0,0-8-8H256a40,40,0,0,0-80,0H152a8,8,0,0,0-8,8H80A32.036,32.036,0,0,0,48,96V464a32.036,32.036,0,0,0,32,32H368a96,96,0,0,0,16-190.659V96A32.036,32.036,0,0,0,352,64ZM288,80h64a16.019,16.019,0,0,1,16,16V304a96.231,96.231,0,0,0-16,1.341V104a8,8,0,0,0-8-8H288ZM160,72h24a8,8,0,0,0,8-8V56a24,24,0,0,1,48,0v8a8,8,0,0,0,8,8h24V96a16.019,16.019,0,0,1-16,16H176a16.019,16.019,0,0,1-16-16Zm-11.695,40A32.012,32.012,0,0,0,176,128h80A32.012,32.012,0,0,0,283.7,112H336V309.491a96.461,96.461,0,0,0-46.1,34.746A8,8,0,0,0,288,344H248a8,8,0,0,0,0,16h32.741a95.862,95.862,0,0,0,4.146,88H96V112ZM80,480a16.019,16.019,0,0,1-16-16V96A16.019,16.019,0,0,1,80,80h64V96H88a8,8,0,0,0-8,8V456a8,8,0,0,0,8,8H296.512A96.786,96.786,0,0,0,315,480Zm368-80a80,80,0,1,1-80-80A80.091,80.091,0,0,1,448,400Z"/><path d="M152,280H280a8,8,0,0,0,8-8V152a8,8,0,0,0-8-8H152a8,8,0,0,0-8,8V272A8,8,0,0,0,152,280Zm56-120h16v16H208Zm-48,0h32v24a8,8,0,0,0,8,8h32a8,8,0,0,0,8-8V160h32V264H160Z"/><path d="M248,208H216a8,8,0,0,0,0,16h32a8,8,0,0,0,0-16Z"/><path d="M232,232H216a8,8,0,0,0,0,16h16a8,8,0,0,0,0-16Z"/><path d="M120,328h24a8,8,0,0,0,0-16H120a8,8,0,0,0,0,16Z"/><path d="M120,360h80a8,8,0,0,0,0-16H120a8,8,0,0,0,0,16Z"/><path d="M120,392h24a8,8,0,0,0,0-16H120a8,8,0,0,0,0,16Z"/><path d="M200,376H176a8,8,0,0,0,0,16h24a8,8,0,0,0,0-16Z"/><path d="M344,360a24,24,0,1,0,24-24A24.027,24.027,0,0,0,344,360Zm32,0a8,8,0,1,1-8-8A8.009,8.009,0,0,1,376,360Z"/><path d="M384,392H352a8,8,0,0,0-8,8v56a8,8,0,0,0,8,8h32a8,8,0,0,0,8-8V400A8,8,0,0,0,384,392Zm-8,56H360V408h16Z"/><path d="M272,312H248a8,8,0,0,0,0,16h24a8,8,0,0,0,0-16Z"/><circle cx="216" cy="56" r="10"/></g></svg>
