<svg height="100" viewBox="0 0 64 64" width="100" xmlns="http://www.w3.org/2000/svg"><g id="Digital_signature" data-name="Digital signature"><rect fill="#3d9ae2" height="58" rx="4" width="34" x="3" y="3"/><path d="m33 8v48a1 1 0 0 1 -1 1h-24a1 1 0 0 1 -1-1v-48a1 1 0 0 1 1-1h4a2.006 2.006 0 0 0 2 2h12a2.006 2.006 0 0 0 2-2h4a1 1 0 0 1 1 1z" fill="#d1e7f8"/><path d="m25.6 48.43 6.6-5.43 2.31-4h-4.51a2.974 2.974 0 0 1 -1.98-.76l-1.02 1.76z" fill="#ffcd00"/><path d="m41 33a2.012 2.012 0 0 0 1.992-2.177 2.075 2.075 0 0 0 -2.104-1.823h-.608l-2.31 4z" fill="#ff9478"/><path d="m37.97 21h-2.919a7 7 0 0 0 -6.069 3.512l-6.182 10.758a2 2 0 0 0 .74 2.73 3.973 3.973 0 0 0 4.14-.1 3.022 3.022 0 0 1 -.68-1.87 3.162 3.162 0 0 1 3.184-3.03h.856l3.96-6.86z" fill="#ffb8a5"/><path d="m11 13h8v8h-8z" fill="none"/><path d="m49.2 13.56-5.2-3-6.03 10.44-2.97 5.14-3.96 6.86h6.93l2.31-4 4.62-8z" fill="#ffcd00"/><path d="m46.5 6.225-2.5 4.33 5.2 3 2.5-4.33a3 3 0 0 0 -5.2-3z" fill="#a7a9ac"/><path d="m11 13h8v8h-8z" fill="#5eac24"/><path d="m44.9 21h2.29a6 6 0 0 1 4.61 2.159l1.4 1.682a6 6 0 0 0 4.61 2.159h3.19v14h-11.111a7.994 7.994 0 0 1 -3.578-.845l-.622-.31a7.994 7.994 0 0 0 -3.578-.845h-12.111a2.974 2.974 0 0 1 -1.98-.76.806.806 0 0 1 -.14-.12 2.089 2.089 0 0 1 -.2-.22 3.022 3.022 0 0 1 -.68-1.87 3.162 3.162 0 0 1 3.184-3.03h10.816a2.012 2.012 0 0 0 1.992-2.177 2.075 2.075 0 0 0 -2.104-1.823h-.608z" fill="#ffac96"/><path d="m7 33v23a1 1 0 0 0 1 1h23a23.986 23.986 0 0 1 -24-24z" fill="#9bc9ff"/><path d="m20.084 49.742-1.214.809a3.493 3.493 0 0 0 -6.453-2.622l-2.312 4.624a1 1 0 0 0 1.79.894l2.312-4.624a1.493 1.493 0 0 1 2.752 1.138l-.908 2.723a1 1 0 0 0 1.5 1.148l3.638-2.426a1 1 0 0 1 1.525.59l.312 1.247a1 1 0 0 0 .974.757h5a1 1 0 0 0 0-2h-4.219l-.122-.489a3 3 0 0 0 -4.575-1.769z" fill="#808285"/><g fill="#2488ff"><path d="m22 13a1 1 0 0 0 1 1h6a1 1 0 0 0 0-2h-6a1 1 0 0 0 -1 1z"/><path d="m29 16h-6a1 1 0 0 0 0 2h6a1 1 0 0 0 0-2z"/><path d="m27 20h-4a1 1 0 0 0 0 2h4a1 1 0 0 0 0-2z"/><path d="m22 26h-11a1 1 0 0 0 0 2h11a1 1 0 0 0 0-2z"/><path d="m11 32h8a1 1 0 0 0 0-2h-8a1 1 0 0 0 0 2z"/><path d="m11 36h8a1 1 0 0 0 0-2h-8a1 1 0 0 0 0 2z"/><path d="m11 40h8a1 1 0 0 0 0-2h-8a1 1 0 0 0 0 2z"/></g></g></svg>