<svg id="flat" height="512" viewBox="0 0 512 512" width="512" xmlns="http://www.w3.org/2000/svg"><path d="m216 368h64v112h-64z" fill="#3a5cd6"/><path d="m280 320h64v160h-64z" fill="#4367e0"/><path d="m344 264h64v216h-64z" fill="#4976f2"/><path d="m408 208h64v272h-64z" fill="#548aff"/><path d="m192 472h304v16h-304z" fill="#a6cfff"/><path d="m112 464v24h80v-16l-32-24z" fill="#c5dafa"/><path d="m40 464v-216h120v200l-48 16v-176l-24 160z" fill="#8098ab"/><path d="m280 184 11.02944 11.02944a16.97054 16.97054 0 0 1 4.97056 12 16.97054 16.97054 0 0 1 -16.97055 16.97056h-55.02945v-40z" fill="#ffceb6"/><path d="m184 112-6.62742-6.62742a32 32 0 0 0 -22.62741-9.37258h-84.22463a46.52053 46.52053 0 0 0 -46.52054 46.52054v.00006a46.52055 46.52055 0 0 0 11.51026 30.634l4.48974 5.13114v69.71426h120v-24h24z" fill="#ffa100"/><circle cx="224" cy="160" fill="#ffc431" r="64"/><rect fill="#f78e00" height="33.74" rx="8" transform="matrix(.768 -.64 .64 .768 -78.025 82.412)" width="16" x="66.8" y="132.09"/><rect fill="#f78e00" height="22.54" rx="8" transform="matrix(.753 -.659 .659 .753 -108.987 73.213)" width="16" x="34.932" y="170.366"/><path d="m85.6 161.92-35.24706 28.19764 20.0852 22.95452a32 32 0 0 0 24.08244 10.92784h108.26832a5.2111 5.2111 0 0 0 5.2111-5.2111 5.2111 5.2111 0 0 0 -2.3205-4.33589l-21.6795-14.45301v-25.85927a6.14073 6.14073 0 0 0 -6.14073-6.14073 6.14073 6.14073 0 0 0 -3.40626 1.03133l-22.45301 14.96867h-48z" fill="#ffceb6"/><path d="m220 144h28v-16h-16v-8h-16v8.40308a20.00055 20.00055 0 0 0 4 39.59692h8a4 4 0 0 1 0 8h-28v16h16v8h16v-8.40308a20.00055 20.00055 0 0 0 -4-39.59692h-8a4 4 0 0 1 0-8z" fill="#ffe28f"/><path d="m40 464v24h80v-16l-32-24z" fill="#e0edff"/><g fill="#02c26a"><path d="m212.686 320h22.627v16h-22.627z" transform="matrix(.707 -.707 .707 .707 -166.323 254.461)"/><path d="m464 80h-32v16h12.68652l-202.34326 202.34326 11.31348 11.31348 202.34326-202.34326v12.68652h16v-32a7.99977 7.99977 0 0 0 -8-8z"/><path d="m316.686 128h22.627v16h-22.627z" transform="matrix(.707 -.707 .707 .707 -.098 271.765)"/><path d="m346.34326 106.34326 11.31348 11.31348 74.34326-74.34326v12.68652h16v-32a7.99977 7.99977 0 0 0 -8-8h-32v16h12.68652z"/><path d="m285.65674 101.65674 50.34326-50.34326v12.68652h16v-32a7.99977 7.99977 0 0 0 -8-8h-32v16h12.68652l-50.34326 50.34326z"/></g><path d="m136 120-8 16h-16l-8-16 16-16z" fill="#e04f2b"/><path d="m136 184-8-48h-16l-8 48z" fill="#ef5e3b"/><path d="m140.6865 136.00008-20.6865-20.68608-20.6865 20.68608a7.99986 7.99986 0 0 1 -11.3135-.00008 7.99987 7.99987 0 0 1 0-11.31352l26.34324-26.34324a7.99984 7.99984 0 0 1 11.31348 0l26.34328 26.34326a7.99987 7.99987 0 0 1 0 11.3135 7.99986 7.99986 0 0 1 -11.3135.00008z" fill="#f78e00"/><path d="m120 104a24 24 0 0 1 -24-24v-8l24-16h24v24a24 24 0 0 1 -24 24z" fill="#ffceb6"/><path d="m144 56 3.02944-3.02945a16.97051 16.97051 0 0 0 4.97056-12 16.97054 16.97054 0 0 0 -16.97055-16.97055h-15.02945a24 24 0 0 0 -24 24v24l24-16z" fill="#c47220"/></svg>