<svg enable-background="new 0 0 58 58" height="512" viewBox="0 0 58 58" width="512" xmlns="http://www.w3.org/2000/svg"><path d="m29 50c-.552 0-1-.447-1-1v-7c0-.553.448-1 1-1s1 .447 1 1v7c0 .553-.448 1-1 1z" fill="#e7eced"/><path d="m37 2h-16-21v38h19 20 19v-38z" fill="#e7eced"/><path d="m46.431 33h4.138c.238 0 .431-.193.431-.431v-14.138c0-.238-.193-.431-.431-.431h-4.138c-.238 0-.431.193-.431.431v14.138c0 .238.193.431.431.431z" fill="#c5411e"/><path d="m37.431 33h4.138c.238 0 .431-.193.431-.431v-6.138c0-.238-.193-.431-.431-.431h-4.138c-.238 0-.431.193-.431.431v6.138c0 .238.193.431.431.431z" fill="#dc691d"/><path d="m19.431 33h4.138c.238 0 .431-.193.431-.431v-3.138c0-.238-.193-.431-.431-.431h-4.138c-.238 0-.431.193-.431.431v3.138c0 .238.193.431.431.431z" fill="#ebba16"/><path d="m28.431 33h4.138c.238 0 .431-.193.431-.431v-10.138c0-.238-.193-.431-.431-.431h-4.138c-.238 0-.431.193-.431.431v10.138c0 .238.193.431.431.431z" fill="#ed8a19"/><g fill="#25ae88"><path d="m19 25c-.256 0-.512-.098-.707-.293-.391-.391-.391-1.023 0-1.414l11-11c.337-.338.865-.39 1.262-.125l8.246 5.497 8.426-10.298c.35-.429.98-.49 1.407-.142.427.351.49.98.141 1.407l-9 11c-.326.399-.9.485-1.329.199l-8.318-5.545-10.42 10.42c-.196.196-.452.294-.708.294z"/><path d="m48 9h-5c-.552 0-1-.447-1-1s.448-1 1-1h5c.552 0 1 .447 1 1s-.448 1-1 1z"/><path d="m48 14c-.552 0-1-.447-1-1v-5c0-.553.448-1 1-1s1 .447 1 1v5c0 .553-.448 1-1 1z"/><path d="m14 30h-8c-.552 0-1-.447-1-1s.448-1 1-1h8c.552 0 1 .447 1 1s-.448 1-1 1z"/></g><path d="m10 34h-4c-.552 0-1-.447-1-1s.448-1 1-1h4c.552 0 1 .447 1 1s-.448 1-1 1z" fill="#366db6"/><path d="m14 20h-8c-.552 0-1-.447-1-1s.448-1 1-1h8c.552 0 1 .447 1 1s-.448 1-1 1z" fill="#dc691d"/><path d="m10 24h-4c-.552 0-1-.447-1-1s.448-1 1-1h4c.552 0 1 .447 1 1s-.448 1-1 1z" fill="#ebba16"/><path d="m14 10h-8c-.552 0-1-.447-1-1s.448-1 1-1h8c.552 0 1 .447 1 1s-.448 1-1 1z" fill="#dd352e"/><path d="m10 14h-4c-.552 0-1-.447-1-1s.448-1 1-1h4c.552 0 1 .447 1 1s-.448 1-1 1z" fill="#75348b"/><path d="m21 0h16v4h-16z" fill="#7383bf"/><path d="m19 38h20v4h-20z" fill="#7383bf"/><path d="m29 58c-2.757 0-5-2.243-5-5s2.243-5 5-5 5 2.243 5 5-2.243 5-5 5zm0-8c-1.654 0-3 1.346-3 3s1.346 3 3 3 3-1.346 3-3-1.346-3-3-3z" fill="#28384c"/></svg>