<svg xmlns="http://www.w3.org/2000/svg" viewBox="0 0 67.9 75.4" fill="#fff"><title>experts</title><g id="Layer_2" data-name="Layer 2"><g id="Layer_1-2" data-name="Layer 1"><path d="M53.6,53.6l-7-2.3-2.5-5a16.53,16.53,0,0,0,4.4-8.6l.3-1.9h2.7a4.44,4.44,0,0,0,4.4-4.4V22.1a22.1,22.1,0,0,0-44.2,0v9.3a4.42,4.42,0,0,0,3,4.2v1.7a4.44,4.44,0,0,0,4.4,4.4h1.3a13.91,13.91,0,0,0,2.5,3.8,4.62,4.62,0,0,0,.7.7l-2.5,5-7,2.3C5.9,56.2,0,64.8,0,73.9a1.54,1.54,0,0,0,1.5,1.5H66.4a1.54,1.54,0,0,0,1.5-1.5C67.7,65,61.8,56.4,53.6,53.6Zm-.7-22.2a1.54,1.54,0,0,1-1.5,1.5H49.1a88.58,88.58,0,0,0,.7-9v-.3h3l.1,7.8ZM16,32.9a1.54,1.54,0,0,1-1.5-1.5V23.6h3v.5h0a82.53,82.53,0,0,0,.7,8.8Zm3,5.9a1.54,1.54,0,0,1-1.5-1.5V35.8h1.2l.3,1.9c.1.4.1.7.2,1.1ZM17.5,20.6H14.6a19.16,19.16,0,0,1,38.2,0H49.9A15,15,0,0,0,35,5.8H32.4A15.12,15.12,0,0,0,17.5,20.6ZM32.4,8.8H35a12,12,0,0,1,12,12V22h0l-1.8-.3A23.56,23.56,0,0,1,31.9,15a1.43,1.43,0,0,0-1-.4,13.24,13.24,0,0,0-10.3,4.9A11.92,11.92,0,0,1,32.4,8.8Zm-10.1,30a90.44,90.44,0,0,1-1.8-14.3l2-2.6a10.59,10.59,0,0,1,7.7-4.1,26.87,26.87,0,0,0,14.5,7.1l2.2.3a63.79,63.79,0,0,1-.9,9h0c-.1.9-.2,1.5-.5,3.1a12.66,12.66,0,0,1-8.9,10.1,11.4,11.4,0,0,1-5.8,0,11.67,11.67,0,0,1-7.2-5.6h3a4.45,4.45,0,0,0,4.2,3h3a4.4,4.4,0,1,0,0-8.8h-3a4.45,4.45,0,0,0-4.2,3H22.3v-.2Zm8.4,11.5a15.53,15.53,0,0,0,3.1.3,19.42,19.42,0,0,0,2.4-.2l-2.6,2.8Zm.8,5-4.7,4.9a52.48,52.48,0,0,1-3.3-7.7L25.3,49Zm10.4-6.7,2,4a57.54,57.54,0,0,1-3.3,7.7l-5-5ZM29.3,40.3a1.54,1.54,0,0,1,1.5-1.5h3a1.5,1.5,0,0,1,0,3h-3A1.61,1.61,0,0,1,29.3,40.3ZM2.8,72.6c.6-7.3,5.4-14,12-16.1L21,54.4a53.38,53.38,0,0,0,4.2,9.1h0c1.2,2.1,2.6,4.2,4,6.2L31,72.6Zm30.9-1.3-2-3.2a.1.1,0,0,0-.1-.1,53.93,53.93,0,0,1-3.3-5l5.3-5.6,5.5,5.5a53.93,53.93,0,0,1-3.3,5A24.6,24.6,0,0,1,33.7,71.3Zm2.7,1.3,1.8-2.9c1.5-2,2.8-4.1,4.1-6.2h0a73.63,73.63,0,0,0,4.2-9l6.2,2.1c6.5,2.2,11.4,8.8,12,16.1l-28.3-.1Z"/></g></g></svg>