<?xml version="1.0" encoding="utf-8"?>
<!-- Generator: Adobe Illustrator 24.3.0, SVG Export Plug-In . SVG Version: 6.00 Build 0)  -->
<svg version="1.1" id="Layer_1" xmlns="http://www.w3.org/2000/svg" xmlns:xlink="http://www.w3.org/1999/xlink" x="0px" y="0px"
	 viewBox="0 0 2000 351.28" style="enable-background:new 0 0 2000 351.28;" xml:space="preserve">
<style type="text/css">
	.st0{fill:#009EFF;}
	.st1{opacity:0.94;}
	.st2{fill:#0084CE;}
	.st3{fill:#FFFFFF;}
	.st4{fill:#202121;}
</style>
<g>
	<g>
		<g>
			<g>
				<path class="st0" d="M336.08,212.46L212.46,336.09c-18.11,18.11-46.52,20.02-66.82,5.75c-2.4-1.7-4.69-3.61-6.83-5.75
					L15.18,212.46c-20.24-20.26-20.24-53.4,0-73.64L138.81,15.2C148.93,5.06,162.29,0,175.64,0c13.35,0,26.7,5.06,36.83,15.2
					l123.62,123.63C356.34,159.07,356.34,192.21,336.08,212.46z"/>
			</g>
		</g>
		<g class="st1">
			<g>
				<g>
					<path class="st2" d="M251.48,200.2v79.62c-0.77,0.08-1.56,0.12-2.37,0.12h-25.65c-9.47,0-17.15-5.6-17.15-12.5v-79.62
						c0.77-0.08,1.56-0.12,2.37-0.12h25.65C243.8,187.7,251.48,193.3,251.48,200.2z"/>
				</g>
			</g>
		</g>
		<g class="st1">
			<g>
				<g>
					<path class="st2" d="M251.62,159.3v21.52h-34.99c-5.72-0.61-10.17-5.44-10.17-11.32v-21.52h34.99
						c5.54,0.59,9.89,5.15,10.16,10.78C251.62,158.93,251.62,159.12,251.62,159.3z"/>
				</g>
			</g>
		</g>
		<g class="st1">
			<g>
				<g>
					<path class="st2" d="M200.37,180.86c-0.77-1.41-1.83-2.66-2.58-4.1c-0.95-1.81-1.79-3.7-2.1-5.72
						c-0.33-2.19-0.24-4.42-0.24-6.63c0-3.83,0.04-7.67,0.06-11.5c0-0.77,0-1.53,0-2.3h-77.39c0,0,0,44.81,0,44.81v71.55
						c0,7.08,5.74,12.82,12.82,12.82h19.17c0.61,0,1.2-0.04,1.78-0.13v-98.77c0,0,11.04,0,11.04,0c1.45,0,2.9,0,4.34,0
						c3.39,0,6.77,0,10.16,0c3.9,0,7.8,0,11.7,0c2.99,0,5.98,0,8.97,0C198.81,180.88,199.67,181,200.37,180.86z"/>
				</g>
			</g>
		</g>
		<g>
			<g>
				<path class="st3" d="M193.81,176.7c-1.97-2.59-2.73-5.57-2.92-8.72c-0.03-0.43-0.04-0.86-0.05-1.3
					c-0.09-6.75,0.02-13.51,0.02-20.27h-77.39v44.81h0v71.55c0,7.08,5.74,12.82,12.82,12.82h19.17c0.61,0,1.2-0.04,1.78-0.13V176.7
					h11.04v0H193.81z"/>
			</g>
		</g>
		<g>
			<g>
				<path class="st3" d="M246.8,199.13v76.57c-0.71,0.08-1.43,0.12-2.17,0.12h-23.5c-8.68,0-15.71-5.38-15.71-12.02v-76.57
					c0.71-0.08,1.43-0.12,2.17-0.12h23.5C239.77,187.11,246.8,192.49,246.8,199.13z"/>
			</g>
		</g>
		<g>
			<g>
				<path class="st3" d="M246.8,156.84v19.8h-32.2c-5.26-0.56-9.36-5.01-9.36-10.42v-19.8h32.2c5.1,0.54,9.1,4.73,9.35,9.92
					C246.79,156.5,246.8,156.67,246.8,156.84z"/>
			</g>
		</g>
		<g class="st1">
			<g>
				<g>
					<path class="st2" d="M251.48,89.46v20.75h-99.57v32.04h-33.76V79.63H241C246.79,79.63,251.48,84.03,251.48,89.46z"/>
				</g>
			</g>
		</g>
		<g>
			<g>
				<path class="st3" d="M246.8,85.94v19.8h-99.57v36.51h-33.76V92.17c0-9.22,7.48-16.7,16.7-16.7h106.15
					C242.11,75.46,246.8,80.16,246.8,85.94z"/>
			</g>
		</g>
	</g>
	<g>
		<g>
			<path d="M1703.66,313.41c0,10.25,8.35,18.6,18.6,18.6h18.6v-11.08h-18.6V310.6h28.93v31.75h-28.93
				c-15.96,0-28.94-12.98-28.94-28.94c0-15.96,12.98-28.93,28.94-28.93h28.93v10.33h-28.93
				C1712.01,294.81,1703.66,303.16,1703.66,313.41z"/>
			<path d="M1806.17,332.18l5.29,10.33h-11.57l-5.29-10.33l-5.54-10.83l-0.25-0.5c-1.82-2.98-5.04-4.96-8.76-4.96h-10.33v26.62
				h-10.33v-57.87h36.54c4.3,0,8.18,1.74,11,4.55c2.81,2.81,4.55,6.7,4.55,11c0,6.28-3.72,11.74-9.09,14.22
				c-1.41,0.66-2.89,1.08-4.46,1.24L1806.17,332.18z M1795.92,305.56c0.74,0,1.49-0.17,2.15-0.5c1.9-0.83,3.14-2.73,3.14-4.79
				c0-1.9-0.99-3.22-1.57-3.8c-0.66-0.66-1.9-1.49-3.72-1.49h-26.21v10.67L1795.92,305.56z"/>
			<path d="M1875.7,313.41c0,15.96-12.98,28.94-28.93,28.94c-15.96,0-28.94-12.98-28.94-28.94c0-15.96,12.98-28.93,28.94-28.93
				C1862.72,284.48,1875.7,297.46,1875.7,313.41z M1865.36,313.41c0-10.25-8.35-18.6-18.6-18.6c-10.25,0-18.6,8.35-18.6,18.6
				c0,10.25,8.35,18.6,18.6,18.6C1857.01,332.01,1865.36,323.66,1865.36,313.41z"/>
			<path d="M1939.85,284.48v28.93c0,15.96-12.98,28.94-28.93,28.94c-15.96,0-28.94-12.98-28.94-28.94v-28.93h10.33v28.93
				c0,10.25,8.35,18.6,18.6,18.6c10.25,0,18.6-8.35,18.6-18.6v-28.93H1939.85z"/>
			<path d="M1995.74,289.11c2.81,2.89,4.55,6.78,4.55,11.08c0,6.28-3.72,11.74-9.09,14.22c-1.41,0.66-2.89,1.08-4.46,1.24
				c-0.17,0-0.33,0-0.5,0v0.08h-27.69v26.62h-10.33v-57.87h36.46c4.3,0,8.18,1.74,11,4.55L1995.74,289.11z M1986.89,304.9
				c1.9-0.83,3.14-2.73,3.14-4.79c0-1.9-0.99-3.22-1.57-3.8c-0.66-0.66-1.9-1.49-3.72-1.49h-26.21v10.66h26.21
				c0.74,0,1.49-0.17,2.15-0.5V304.9z"/>
		</g>
		<g>
			<g>
				<g>
					<rect x="1231.31" y="8.31" class="st0" width="768.59" height="250.74"/>
				</g>
			</g>
			<g>
				<g>
					<path d="M619.12,36v35.16H475.4c-9.84,0-18,8.16-18,18v18.28h126.56v35.16H457.12v90.28h-34.88V89.15
						c0-29.25,23.63-53.16,52.88-53.16H619.12z"/>
				</g>
				<g>
					<path d="M793.49,232.87h-39.38l-18-35.16l-43.03-84.38l-43.03,84.38l-18,35.16h-39.38l18-35.16L693.09,36l82.41,161.72
						L793.49,232.87z"/>
				</g>
				<g>
					<path d="M945.93,90.56v-1.13c0-9.84-8.16-18-18-18h-79.88c-9.84,0-18,8.16-18,18v1.13c0,9.84,8.16,18,18,18h70.88
						c18.28,0,34.59,7.88,45.84,20.25c0.84,0.84,1.41,1.69,2.25,2.53c8.72,10.69,14.06,24.47,14.06,39.38
						c0,34.31-27.84,62.16-62.16,62.16h-61.59c-34.31,0-62.16-27.84-62.16-62.16h35.16c0,14.91,12.09,27,27,27h61.59
						c14.91,0,27.28-12.09,27.28-27s-12.38-27-27.28-27h-70.88c-14.34,0-27.28-5.63-36.84-14.91c-2.53-2.53-4.78-5.34-6.75-8.44
						c-5.91-8.44-9.28-18.84-9.28-30.09v-1.13c0-29.25,23.63-53.16,52.88-53.16h79.88c29.25,0,53.16,23.91,53.16,53.16v1.13
						L945.93,90.56z"/>
				</g>
				<g>
					<path d="M1196.53,36.28v35.16h-80.72v161.72h-35.16V71.43h-80.72V36.28H1196.53z"/>
				</g>
			</g>
			<g>
				<g>
					<g>
						<path class="st3" d="M1319.38,118.75v115.1c-0.87,0.12-1.77,0.18-2.68,0.18h-29.11c-10.75,0-19.46-8.09-19.46-18.08v-115.1
							c0.87-0.12,1.77-0.18,2.68-0.18h29.11C1310.66,100.68,1319.38,108.77,1319.38,118.75z"/>
					</g>
				</g>
				<g>
					<g>
						<path class="st3" d="M1319.38,53.14V84.2h-41.62c-6.8-0.87-12.1-7.85-12.1-16.34V36.8h41.62c6.59,0.85,11.76,7.43,12.08,15.56
							C1319.37,52.61,1319.38,52.87,1319.38,53.14z"/>
					</g>
				</g>
				<g>
					<g>
						<path class="st3" d="M1547.61,36.79v196.88l-35.16-27l-126.56-97.59v124.59h-35.16V37.36l35.16,27l126.56,97.59V36.51
							L1547.61,36.79z"/>
					</g>
					<g>
						<path class="st3" d="M1772.89,36.51v35.16h-143.72c-9.84,0-18,8.16-18,18v18.28h126.56v35.16h-126.84v90.28h-34.88V89.67
							c0-29.25,23.63-53.16,52.88-53.16H1772.89z"/>
					</g>
					<g>
						<path class="st3" d="M1965.83,134.95c0,54.28-44.16,98.44-98.44,98.44s-98.44-44.16-98.44-98.44s44.16-98.44,98.44-98.44
							S1965.83,80.67,1965.83,134.95z M1930.67,134.95c0-34.88-28.41-63.28-63.28-63.28s-63.28,28.41-63.28,63.28
							s28.41,63.28,63.28,63.28S1930.67,169.83,1930.67,134.95z"/>
					</g>
				</g>
			</g>
		</g>
		<g>
			<rect x="422.24" y="312.53" class="st4" width="1240.33" height="0.5"/>
		</g>
	</g>
</g>
</svg>
