<svg height="512" viewBox="0 0 64 64" width="512" xmlns="http://www.w3.org/2000/svg" fill="#14C44C"><g id="Finance"><path d="m47 33a1 1 0 0 0 2 0 2 2 0 0 1 2-2 1 1 0 0 0 1-1v-12a1 1 0 0 0 -1-1 2 2 0 0 1 -2-2 1 1 0 0 0 -1-1h-28a1 1 0 0 0 -1 1 2 2 0 0 1 -2 2 1 1 0 0 0 -1 1v12a1 1 0 0 0 2 0v-11.126a4.016 4.016 0 0 0 2.874-2.874h26.252a4.016 4.016 0 0 0 2.874 2.874v10.252a4.009 4.009 0 0 0 -3 3.874z"/><path d="m46 23h-2a1 1 0 0 0 0 2h2a1 1 0 0 0 0-2z"/><path d="m22 23a1 1 0 0 0 0 2h2a1 1 0 0 0 0-2z"/><path d="m28 24a6 6 0 1 0 6-6 6.006 6.006 0 0 0 -6 6zm10 0a4 4 0 1 1 -4-4 4 4 0 0 1 4 4z"/><path d="m61 4h-42a1 1 0 0 0 -1 1v2h-2a1 1 0 0 0 -1 1v2h-2a1 1 0 0 0 -1 1v19a1 1 0 0 0 2 0v-18h40v24h-6a1 1 0 0 0 0 2h7a1 1 0 0 0 1-1v-2h2a1 1 0 0 0 1-1v-2h2a1 1 0 0 0 1-1v-26a1 1 0 0 0 -1-1zm-4 29h-1v-22a1 1 0 0 0 -1-1h-38v-1h40zm3-3h-1v-22a1 1 0 0 0 -1-1h-38v-1h40z"/><path d="m41 32h-34a5.006 5.006 0 0 0 -5 5v18a5.006 5.006 0 0 0 5 5h34a5.006 5.006 0 0 0 5-5v-18a5.006 5.006 0 0 0 -5-5zm3 23a3 3 0 0 1 -3 3h-34a3 3 0 0 1 -3-3v-18a3 3 0 0 1 3-3h34a3 3 0 0 1 3 3z"/><path d="m36 48a3.986 3.986 0 0 0 -2.51.894 4 4 0 1 0 0 6.212 4 4 0 1 0 2.51-7.106zm-5 6a2 2 0 1 1 2-2 2 2 0 0 1 -2 2zm5 0a1.968 1.968 0 0 1 -1.3-.486 3.946 3.946 0 0 0 0-3.028 1.968 1.968 0 0 1 1.3-.486 2 2 0 0 1 0 4z"/><path d="m11 44h4a3 3 0 0 0 3-3v-2a3 3 0 0 0 -3-3h-4a3 3 0 0 0 -3 3v2a3 3 0 0 0 3 3zm4-2h-1v-1h2a1 1 0 0 1 -1 1zm1-3h-2v-1h1a1 1 0 0 1 1 1zm-6 0a1 1 0 0 1 1-1h1v4h-1a1 1 0 0 1 -1-1z"/><path d="m30 38h2v4h-2z"/><path d="m34 38h2v4h-2z"/><path d="m26 38h2v4h-2z"/><path d="m38 38h2v4h-2z"/><path d="m8 54h14v2h-14z"/><path d="m8 51h2v2h-2z"/><path d="m12 51h2v2h-2z"/><path d="m16 51h2v2h-2z"/><path d="m20 51h2v2h-2z"/></g></svg>