<?xml version="1.0"?>
<svg xmlns="http://www.w3.org/2000/svg" viewBox="0 0 64 64" width="512" height="512" fill="#24730a"><title>presentation-Analytics-powerpoint-report-Business</title><g id="Expand"><path d="M15,8v3H7a1,1,0,0,0-1,1V48a1,1,0,0,0,1,1h8v3a1,1,0,0,0,1,1H31v2.446l-7.53,4.706,1.06,1.7L31,57.8V62h2V57.8l6.47,4.044,1.06-1.7L33,55.446V53H48a1,1,0,0,0,1-1V49h8a1,1,0,0,0,1-1V12a1,1,0,0,0-1-1H49V8a1,1,0,0,0-1-1H36a4,4,0,0,0-8,0H16A1,1,0,0,0,15,8ZM47,51H17V49H47Zm9-4H8V13H56ZM32,5a2,2,0,0,1,2,2H30A2,2,0,0,1,32,5ZM17,9H47v2H17Z"/><path d="M49,24a1,1,0,0,0-1-1H43a1,1,0,0,0-1,1V42H40V33a1,1,0,0,0-1-1H34a1,1,0,0,0-1,1v9H31V28a1,1,0,0,0-1-1H25a1,1,0,0,0-1,1V42H22V37a1,1,0,0,0-1-1H16a1,1,0,0,0-1,1v5H11v2H53V42H49ZM17,42V38h3v4Zm9,0V29h3V42Zm9,0V34h3v8Zm9,0V25h3V42Z"/><rect x="14" y="16" width="2" height="2"/><rect x="51" y="16" width="2" height="2"/><rect x="47" y="16" width="2" height="2"/><rect x="18" y="16" width="14" height="2"/><rect x="11" y="20" width="17" height="2"/><rect x="2" y="15" width="2" height="22"/><rect x="2" y="39" width="2" height="2"/><rect x="60" y="28" width="2" height="18"/></g></svg>
