<svg height="512" viewBox="0 0 64 64" width="512" xmlns="http://www.w3.org/2000/svg" fill="#14C44C"><g id="Document-2" data-name="Document"><path d="m59 2h-38a3 3 0 0 0 -3 3v11h-11a5.006 5.006 0 0 0 -5 5v36c0 3.131 1.5 5 4 5h53a3 3 0 0 0 3-3v-54a3 3 0 0 0 -3-3zm-53 58c-.5 0-2 0-2-3v-36a3 3 0 0 1 3-3h24a3 3 0 0 1 3 3v36a3 3 0 0 1 -3 3zm54-1a1 1 0 0 1 -1 1h-24.026a4.948 4.948 0 0 0 1.026-3v-36a5.006 5.006 0 0 0 -5-5h-11v-11a1 1 0 0 1 1-1h38a1 1 0 0 1 1 1z"/><path d="m30 20h-22a2 2 0 0 0 -2 2v4a2 2 0 0 0 2 2h22a2 2 0 0 0 2-2v-4a2 2 0 0 0 -2-2zm-22 6v-4h22v4z"/><path d="m17 30h-10a1 1 0 0 0 -1 1v10a1 1 0 0 0 1 1h10a1 1 0 0 0 1-1v-10a1 1 0 0 0 -1-1zm-1 10h-8v-8h8z"/><path d="m31 30h-10a1 1 0 0 0 -1 1v10a1 1 0 0 0 1 1h10a1 1 0 0 0 1-1v-10a1 1 0 0 0 -1-1zm-1 10h-8v-8h8z"/><path d="m31 44h-10a1 1 0 0 0 -1 1v12a1 1 0 0 0 1 1h10a1 1 0 0 0 1-1v-12a1 1 0 0 0 -1-1zm-1 12h-8v-10h8z"/><path d="m11 39h2v-2h2v-2h-2v-2h-2v2h-2v2h2z"/><path d="m23 35h6v2h-6z"/><path d="m17 44h-10a1 1 0 0 0 -1 1v12a1 1 0 0 0 1 1h10a1 1 0 0 0 1-1v-12a1 1 0 0 0 -1-1zm-1 12h-8v-10h8z"/><path d="m10.832 54.555 1.168-1.752 1.168 1.752 1.664-1.11-1.63-2.445 1.63-2.445-1.664-1.11-1.168 1.752-1.168-1.752-1.664 1.11 1.63 2.445-1.63 2.445z"/><path d="m23 50h6v2h-6z"/><path d="m25 47h2v2h-2z"/><path d="m25 53h2v2h-2z"/><path d="m55.192 40.151a1 1 0 0 0 -1.414 0l-7.778 7.778-3.536-3.535a1 1 0 0 0 -1.414 0l-2.828 2.828a1 1 0 0 0 0 1.414l7.071 7.071a1 1 0 0 0 1.414 0l11.314-11.313a1 1 0 0 0 0-1.415zm-9.192 13.435-5.657-5.657 1.414-1.414 3.536 3.535a1 1 0 0 0 1.414 0l7.778-7.778 1.415 1.415z"/><path d="m56 13v-4a1 1 0 0 0 -1-1h-30a1 1 0 0 0 -1 1v4a1 1 0 0 0 1 1h30a1 1 0 0 0 1-1zm-2-1h-28v-2h28z"/><path d="m38 18h4v2h-4z"/><path d="m44 18h12v2h-12z"/><path d="m38 24h4v2h-4z"/><path d="m44 24h12v2h-12z"/><path d="m38 30h4v2h-4z"/><path d="m44 30h12v2h-12z"/><path d="m38 36h4v2h-4z"/><path d="m44 36h12v2h-12z"/></g></svg>