<svg id="Capa_1" enable-background="new 0 0 511.996 511.996" fill="#169d50" height="512" viewBox="0 0 511.996 511.996" width="512" xmlns="http://www.w3.org/2000/svg"><g><path d="m485.379 229.385h-11.611v-108.271c11.561-8.307 19.111-21.858 19.111-37.149v-38.23c0-1.156-.275-2.324-.792-3.357l-19.11-38.23c-1.271-2.543-3.869-4.148-6.709-4.148h-79.239c-4.143 0-7.5 3.357-7.5 7.5s3.357 7.5 7.5 7.5h74.603l11.612 23.23h-358.032l11.612-23.23h227.523c4.143 0 7.5-3.357 7.5-7.5s-3.357-7.5-7.5-7.5h-232.159c-2.841 0-5.438 1.605-6.709 4.147l-19.11 38.23c-.516 1.033-.791 2.203-.791 3.357v38.23c0 15.29 7.55 28.841 19.11 37.148v108.272h-11.61c-12.072 0-22.285 8.081-25.532 19.115h-9.592l-16.918-16.919c-.355-.354 2.196-9.142 2.196-13.812 0-14.676-11.939-26.615-26.615-26.615s-26.615 11.939-26.615 26.615 11.939 26.615 26.615 26.615c4.67 0 9.06-1.213 12.879-3.334.269.401 20.048 20.253 20.048 20.253 1.407 1.406 3.315 2.196 5.304 2.196h12.698c2.547 8.654 9.378 15.486 18.032 18.032v130.61c0 4.143 3.357 7.5 7.5 7.5h31.15c-.275 2.762-.421 5.562-.421 8.396 0 46.296 37.664 83.961 83.96 83.961s83.961-37.665 83.961-83.961c0-2.833-.145-5.633-.421-8.396h53.32c4.143 0 7.5-3.357 7.5-7.5 0-4.142-3.357-7.5-7.5-7.5h-56.241c-10.158-34.943-42.443-60.564-80.619-60.564s-70.461 25.621-80.618 60.564h-26.571v-122.025h367.3v122.025h-90.56c-4.143 0-7.5 3.358-7.5 7.5 0 4.143 3.357 7.5 7.5 7.5h52.33v20.798c-16.358 3.464-28.673 18.012-28.673 35.386 0 19.945 16.228 36.173 36.173 36.173s36.173-16.228 36.173-36.173c0-17.374-12.315-31.922-28.673-35.386v-20.798h30.73c4.143 0 7.5-3.357 7.5-7.5v-130.607c11.035-3.247 19.116-13.461 19.116-25.533 0-14.676-11.939-26.615-26.615-26.615zm-458.762 0c-6.404 0-11.615-5.211-11.615-11.615s5.211-11.615 11.615-11.615 11.615 5.211 11.615 11.615-5.211 11.615-11.615 11.615zm191.151 129.69c38.025 0 68.961 30.936 68.961 68.96 0 38.025-30.936 68.961-68.961 68.961-38.024 0-68.96-30.936-68.96-68.961 0-38.024 30.935-68.96 68.96-68.96zm250.553 116.748c0 11.675-9.498 21.173-21.173 21.173s-21.173-9.498-21.173-21.173c0-9.032 5.694-16.739 13.673-19.775v19.775c0 4.143 3.357 7.5 7.5 7.5s7.5-3.357 7.5-7.5v-19.775c7.979 3.037 13.673 10.744 13.673 19.775zm-32.783-250.553v-97.073c7.743 1.998 15.486 1.997 23.229-.003v97.075h-23.229zm-19.12-172.036h61.461v30.73c0 16.944-13.785 30.729-30.73 30.729s-30.73-13.785-30.73-30.729v-30.73zm-76.46 0h61.46v30.73c0 16.944-13.785 30.729-30.729 30.729-16.945 0-30.73-13.785-30.73-30.729v-30.73zm-76.46 0h61.46v30.73c0 16.944-13.785 30.729-30.729 30.729-16.945 0-30.73-13.785-30.73-30.729v-30.73zm-76.46 0h61.46v30.73c0 16.944-13.785 30.729-30.73 30.729-16.944 0-30.729-13.785-30.729-30.729v-30.73zm-76.46 30.731v-30.73h61.46v30.73c0 16.944-13.785 30.729-30.73 30.729s-30.73-13.785-30.73-30.729zm49.84 100.005c-4.143 0-7.5 3.357-7.5 7.5v37.91h-23.23v-101.186c7.743 1.999 15.486 2 23.23.003v30.584c0 4.143 3.357 7.5 7.5 7.5s7.5-3.357 7.5-7.5v-37.66c4.576-3.287 8.51-7.405 11.611-12.118 17.603 26.795 58.753 26.957 76.469.013 17.609 26.782 58.748 26.939 76.46 0 17.613 26.787 58.762 26.937 76.469-.014 3.101 4.713 7.035 8.831 11.611 12.118v108.265h-23.234v-49.845c0-4.142-3.357-7.5-7.5-7.5h-11.615v-11.615c0-4.143-3.357-7.5-7.5-7.5-4.142 0-7.5 3.357-7.5 7.5v11.615h-23.23v-11.615c0-4.143-3.357-7.5-7.5-7.5s-7.5 3.357-7.5 7.5v11.615h-11.615c-4.143 0-7.5 3.358-7.5 7.5v49.845h-25.904c8.423-17.29-4.589-38.23-23.942-38.23h-38.23c-19.354 0-32.365 20.941-23.942 38.23h-25.907v-37.915c-.001-4.143-3.358-7.5-7.501-7.5zm221.886 3.07v42.345h-23.23v-42.345zm-38.231 0v42.345h-23.23v-42.345zm-76.46 30.73c0 6.404-5.211 11.615-11.615 11.615h-38.23c-6.404 0-11.615-5.211-11.615-11.615s5.211-11.615 11.615-11.615h38.23c6.404-.001 11.615 5.21 11.615 11.615zm217.814 49.843c-.017 0-.032-.002-.049-.002h-382.3c-.016 0-.032.002-.048.002-6.382-.026-11.567-5.225-11.567-11.613 0-6.404 5.211-11.615 11.615-11.615h382.301c6.404 0 11.615 5.211 11.615 11.615 0 6.388-5.185 11.587-11.567 11.613z"/><path d="m217.768 473.766c25.216 0 45.73-20.515 45.73-45.73 0-25.216-20.515-45.73-45.73-45.73-25.216 0-45.729 20.515-45.729 45.73-.001 25.215 20.513 45.73 45.729 45.73zm0-76.461c16.945 0 30.73 13.785 30.73 30.73s-13.785 30.73-30.73 30.73c-16.944 0-30.729-13.785-30.729-30.73-.001-16.945 13.784-30.73 30.729-30.73z"/></g></svg>