<svg id="outline" height="512" viewBox="0 0 512 512" width="512" xmlns="http://www.w3.org/2000/svg"><path d="m487.99609 287.99414h-48v-144a8.00039 8.00039 0 0 0 -8-8h-16v-64a8.00039 8.00039 0 0 0 -8-8h-16v-16a8.00039 8.00039 0 0 0 -8-8h-18.23339l-6.17676-18.53027a8.00029 8.00029 0 0 0 -7.58985-5.46973h-80a8.00028 8.00028 0 0 0 -7.58984 5.46973l-6.17676 18.53027h-18.2334a8.00039 8.00039 0 0 0 -8 8v16h-16a8.00039 8.00039 0 0 0 -8 8v64h-16a8.00039 8.00039 0 0 0 -8 8v24h16v-16h224v136h-48a8.00039 8.00039 0 0 0 -8 8v40h-80v16h80v16h-80v16h80v96h-16v-72a8.00039 8.00039 0 0 0 -8-8h-56v16h16v64h-16v-32h-16v32h-8v16h224a8.00039 8.00039 0 0 0 8-8v-192a8.00039 8.00039 0 0 0 -8-8zm-210.23437-256h68.46875l2.666 8h-73.80077zm-29.76563 24h128v8h-128zm-24 24h176v56h-16v-32a8.00039 8.00039 0 0 0 -8-8h-128a8.00039 8.00039 0 0 0 -8 8v32h-16zm64 32h16v24h-16zm-16 24h-16v-24h16zm48-24h16v24h-16zm32 0h16v24h-16zm128 192v16h-96v-16zm-160 112h16v64h-16zm64 64v-144h96v144z"/><path d="m455.99609 351.99414h-48a8.00039 8.00039 0 0 0 -8 8v96a8.00039 8.00039 0 0 0 8 8h48a8.00039 8.00039 0 0 0 8-8v-96a8.00039 8.00039 0 0 0 -8-8zm-8 96h-32v-80h32z"/><path d="m223.996 175.994h16v16h-16z"/><path d="m255.996 175.994h16v16h-16z"/><path d="m287.996 175.994h16v16h-16z"/><path d="m319.996 175.994h16v16h-16z"/><path d="m351.996 175.994h16v16h-16z"/><path d="m383.996 175.994h16v16h-16z"/><path d="m223.996 207.994h16v16h-16z"/><path d="m255.996 207.994h16v16h-16z"/><path d="m287.996 207.994h16v16h-16z"/><path d="m319.996 207.994h16v16h-16z"/><path d="m351.996 207.994h16v16h-16z"/><path d="m383.996 207.994h16v16h-16z"/><path d="m223.996 239.994h16v16h-16z"/><path d="m255.996 239.994h16v16h-16z"/><path d="m287.996 239.994h16v16h-16z"/><path d="m319.996 239.994h16v16h-16z"/><path d="m351.996 239.994h16v16h-16z"/><path d="m271.996 271.994h16v16h-16z"/><path d="m303.996 271.994h16v16h-16z"/><path d="m335.996 271.994h16v16h-16z"/><path d="m303.996 303.994h16v16h-16z"/><path d="m335.996 303.994h16v16h-16z"/><path d="m383.996 239.994h16v16h-16z"/><path d="m271.99609 407.99414v-80a48.05374 48.05374 0 0 0 -48-48h-43.35009a39.75689 39.75689 0 0 0 3.35009-16v-23.09961a38.0804 38.0804 0 0 0 16-31.01172v-17.88867a8.00039 8.00039 0 0 0 -8-8h-55.97461a38.77171 38.77171 0 0 0 -36.78125 51.03027l4.75586 14.26856v14.70117a39.75689 39.75689 0 0 0 3.3501 16h-43.3501a48.05375 48.05375 0 0 0 -48 48v55.168a56.78764 56.78764 0 0 0 24 46.34473v66.4873h16v-58.54544a56.645 56.645 0 0 0 16.833 2.54541c1.51636 0 3.02881-.06641 4.53589-.18652a150.3861 150.3861 0 0 0 81.89771 24.18652h56.73339a55.7999 55.7999 0 0 0 16-2.34131v34.34131h16v-42.083a55.96508 55.96508 0 0 0 24.00001-45.917zm-104-144a24 24 0 1 1 -48 0v-12.68555l14.94727-14.94726a36.73354 36.73354 0 0 0 26.94141 11.63281 38.211 38.211 0 0 0 6.11132-.49634zm0 112h16a16.01833 16.01833 0 0 1 16 16v8h-32zm-25.4414-40h2.88281l4.8 24h-12.48286zm4.49707-16h-6.11133l-3.21021-6.42041 6.26587-6.26611 6.26587 6.26611zm-33.12012-102.75293a22.73653 22.73653 0 0 1 22.08984-17.24707h47.97461v9.88867a22.13616 22.13616 0 0 1 -22.11132 22.11133 20.83106 20.83106 0 0 1 -18.7334-11.57812 8.00106 8.00106 0 0 0 -12.8125-2.07911l-14.84668 14.84766-1.07227-3.21973a22.726 22.726 0 0 1 -.48828-12.72363zm-81.93555 165.9209v-55.168a32.03667 32.03667 0 0 1 32-32h56v-.022a40.03972 40.03972 0 0 0 8.02442 4.6831l-21.68164 21.68164 11.31445 11.31446 8.15137-8.15131 1.80859 3.61719-6.17578 30.877h-33.44141v-24h-16v32a8.00039 8.00039 0 0 0 8 8h72v26.04834l-67.43261 20.23a40.83513 40.83513 0 0 1 -52.56739-39.11035zm127.26661 64.832a134.41778 134.41778 0 0 1 -59.1626-13.67871l61.06982-18.32129h46.82617a8.00039 8.00039 0 0 0 8-8v-72h-16v28.30518a31.79447 31.79447 0 0 0 -16-4.30518h-17.4414l-6.17578-30.877 1.80859-3.61711 8.15137 8.15137 11.31445-11.31446-21.68164-21.68164a40.03964 40.03964 0 0 0 8.02441-4.6831v.022h56a32.03667 32.03667 0 0 1 32 32v80a40.04583 40.04583 0 0 1 -40 40z"/></svg>