<svg id="Layer_5" enable-background="new 0 0 64 64" height="512" viewBox="0 0 64 64" width="512" xmlns="http://www.w3.org/2000/svg" fill="#24730a"><path d="m49 14.618 13.236-6.618-13.236-6.618v2.618h-19v2h21v-1.382l6.764 3.382-6.764 3.382v-1.382h-29v2h27z"/><path d="m26 4h2v2h-2z"/><path d="m22 4h2v2h-2z"/><path d="m36 49.382-13.236 6.618 13.236 6.618v-2.618h19v-2h-21v1.382l-6.764-3.382 6.764-3.382v1.382h29v-2h-27z"/><path d="m57 58h2v2h-2z"/><path d="m61 58h2v2h-2z"/><path d="m57 40h2v2h-2z"/><path d="m53 40h2v2h-2z"/><path d="m49 40h2v2h-2z"/><path d="m49 36h10v2h-10z"/><path d="m60 20h-7-10-6.819c-3.813-4.452-9.313-7-15.181-7-11.028 0-20 8.972-20 20s8.972 20 20 20c5.868 0 11.368-2.548 15.181-7h23.819c1.654 0 3-1.346 3-3v-20c0-1.654-1.346-3-3-3zm-9 2v4h-6v-4zm-16.886-1.314c-.42.343-.744.793-.93 1.314h-5.448c-.665-2.653-1.587-4.948-2.754-6.557 3.479.786 6.652 2.599 9.132 5.243zm-1.114 21.314h-4.822c.484-2.525.757-5.271.811-8h4.011zm-12 9c-1.69 0-3.491-2.637-4.674-7h9.349c-1.184 4.363-2.985 7-4.675 7zm-5.152-9c-.474-2.326-.772-5.029-.829-8h11.963c-.057 2.971-.356 5.674-.829 8zm-12.797-8h9.96c.054 2.729.327 5.475.811 8h-8.386c-1.381-2.378-2.225-5.097-2.385-8zm17.949-19c1.69 0 3.491 2.637 4.674 7h-9.349c1.184-4.363 2.985-7 4.675-7zm5.152 9c.474 2.326.772 5.029.829 8h-11.962c.057-2.971.356-5.674.829-8zm-13.141 8h-9.96c.161-2.903 1.004-5.622 2.385-8h8.386c-.484 2.525-.757 5.271-.811 8zm19.989 0h-4.011c-.054-2.729-.327-5.475-.811-8h4.822zm-15.996-16.538c-1.16 1.608-2.078 3.895-2.74 6.538h-7.48c2.512-3.239 6.094-5.597 10.22-6.538zm-10.22 28.538h7.48c.662 2.643 1.579 4.93 2.74 6.537-4.126-.94-7.708-3.298-10.22-6.537zm18.198 6.557c1.167-1.609 2.089-3.904 2.754-6.557h5.448c.186.521.509.971.93 1.314-2.48 2.644-5.653 4.457-9.132 5.243zm36.018-7.557c0 .552-.449 1-1 1h-24c-.551 0-1-.448-1-1v-20c0-.551.449-1 1-1h7v6h10v-6h7c.551 0 1 .449 1 1z"/><path d="m17 36h2v2h-2z"/><path d="m21 36h2v2h-2z"/><path d="m23 28h2v2h-2z"/><path d="m19 28h2v2h-2z"/></svg>