<svg id="Capa_1" enable-background="new 0 0 511.985 511.985" height="512" viewBox="0 0 511.985 511.985" width="512" xmlns="http://www.w3.org/2000/svg"><g id="XMLID_1348_"><path id="XMLID_2048_" d="m503.19 184.134-175.363-175.362c-11.696-11.695-30.729-11.697-42.427 0l-195.214 195.213h-60.163c-16.542 0-30 13.458-30 30v248c0 16.542 13.458 30 30 30h372c16.542 0 30-13.458 30-30v-184.257l71.167-71.167c11.696-11.697 11.697-30.729 0-42.427zm-203.647-161.219c3.899-3.9 10.244-3.898 14.142 0l22.299 22.299-158.772 158.771h-58.741zm112.48 459.07c0 5.514-4.486 10-10 10h-372c-5.514 0-10-4.486-10-10v-248c0-5.514 4.486-10 10-10h372c5.514 0 10 4.486 10 10zm77.025-269.566-57.024 57.024v-35.457c0-16.542-13.458-30-30-30h-122.989l107.86-107.86 102.152 102.151c3.899 3.899 3.899 10.243.001 14.142z"/><circle id="XMLID_2067_" cx="88.231" cy="297.985" r="36"/><path id="XMLID_2068_" d="m58.023 401.985h42.271c5.522 0 10-4.477 10-10s-4.478-10-10-10h-42.271c-5.522 0-10 4.477-10 10s4.478 10 10 10z"/><path id="XMLID_2069_" d="m191.537 437.985h-133.514c-5.522 0-10 4.477-10 10s4.478 10 10 10h133.514c5.522 0 10-4.477 10-10s-4.478-10-10-10z"/><path id="XMLID_2072_" d="m374.023 437.985h-42.271c-5.522 0-10 4.477-10 10s4.478 10 10 10h42.271c5.522 0 10-4.477 10-10s-4.477-10-10-10z"/><path id="XMLID_2073_" d="m191.537 381.985h-42.271c-5.522 0-10 4.477-10 10s4.478 10 10 10h42.271c5.522 0 10-4.477 10-10s-4.478-10-10-10z"/><path id="XMLID_2074_" d="m282.78 381.985h-42.27c-5.522 0-10 4.477-10 10s4.478 10 10 10h42.271c5.522 0 10-4.477 10-10s-4.478-10-10.001-10z"/><path id="XMLID_2075_" d="m374.023 381.985h-42.271c-5.522 0-10 4.477-10 10s4.478 10 10 10h42.271c5.522 0 10-4.477 10-10s-4.477-10-10-10z"/><path id="XMLID_2136_" d="m286.023 281.985v32c0 11.046 8.954 20 20 20h14v-72h-14c-11.045 0-20 8.955-20 20z"/><path id="XMLID_2323_" d="m374.023 313.985v-32c0-11.046-8.954-20-20-20h-14v72h14c11.046 0 20-8.954 20-20z"/></g></svg>