<svg xmlns="http://www.w3.org/2000/svg" viewBox="0 0 480 480" fill="#169d50" xmlns:v="https://vecta.io/nano"><path d="M392 368h-8v-32h-16v32H32V168a8 8 0 0 1 8-8h280v-16H40c-13.255 0-24 10.745-24 24v200H8a8 8 0 0 0-8 8v24c0 8.837 7.163 16 16 16h368c8.837 0 16-7.163 16-16v-24a8 8 0 0 0-8-8zm-8 32H16v-16h144a8 8 0 0 0 8 8h64a8 8 0 0 0 8-8h144v16zM64 336V192h256v-16H64c-8.837 0-16 7.163-16 16v152a8 8 0 0 0 8 8h288a8 8 0 0 0 8-8v-8H64zm128-80h16v16h-16zm48 0h16v16h-16zm-96 0h16v16h-16zM456 64h-96c-13.255 0-24 10.745-24 24v208c0 13.255 10.745 24 24 24h96c13.255 0 24-10.745 24-24V88c0-13.255-10.745-24-24-24zm8 232a8 8 0 0 1-8 8h-96a8 8 0 0 1-8-8v-24h112v24zm0-40H352V112h112v144zm0-160H352v-8a8 8 0 0 1 8-8h96a8 8 0 0 1 8 8v8zm-64 184h16v16h-16zm0-112h16v16h-16zm32 0h16v16h-16zm-64 0h16v16h-16z"/></svg>