<svg xmlns="http://www.w3.org/2000/svg" viewBox="-35 1 511 511.999" fill="#169d50" xmlns:v="https://vecta.io/nano"><path d="M271.05 180c5.52 0 10-4.48 10-10s-4.48-10-10-10a10 10 0 1 0 0 20zm-100 0c5.52 0 10-4.48 10-10s-4.48-10-10-10a10 10 0 1 0 0 20zm0 0"/><path d="M194.316 248.734c8.395 3.957 17.4 5.965 26.73 5.965a62.35 62.35 0 0 0 26.22-5.723c5.02-2.3 7.215-8.246 4.9-13.266s-8.246-7.215-13.266-4.906a42.5 42.5 0 0 1-17.863 3.895c-6.37 0-12.496-1.363-18.203-4.055a10 10 0 1 0-8.527 18.09zM441.6 405.77c0-54.988-62.625-98.113-116.305-100.156l-27.387-24.605C331.254 256.672 351.5 217.562 351.5 176v-66c0-60.652-49.504-110-110.352-110h-40C140.383 0 91.5 49.172 91.5 110v66c0 41.492 19.977 80.527 52.898 104.82l-27.594 24.793C63.242 307.652.5 350.668.5 405.77V502a10 10 0 0 0 10 10h421.1a10 10 0 0 0 10-10zM198.895 446h44.246l10.484 46h-65.52zM244 426h-45.738l-7.672-23.902 30.46-15.23 31.113 15.563zm-22.953-69.18l-34.75-55.6c11.285 3.137 23.012 4.766 34.852 4.766 11.727 0 23.367-1.598 34.594-4.684zm14.313 14.844l48.012-76.824 25.895 23.266-32.95 74.043zM201.148 20h40c49.82 0 90.352 40.37 90.352 90v8.266l-18.777-27.04a10 10 0 0 0-7.379-4.262 9.99 9.99 0 0 0-7.984 2.973c-20.33 20.8-43.864 30.063-76.3 30.063s-55.98-9.273-76.324-30.062a10 10 0 0 0-8.023-2.97 9.99 9.99 0 0 0-7.383 4.324l-17.82 26.113V110c0-49.63 40.215-90 89.648-90zM111.5 176v-23.113l27.773-40.7C161.523 131.113 187.816 140 221.05 140c33.27 0 59.582-8.906 81.836-27.87l28.613 41.203V176c0 59.887-48.95 110-110.352 110-61.203 0-109.648-49.957-109.648-110zm47.22 118.844l48.02 76.82-40.965 20.484-32.95-74.043zM20.5 405.77c0-41.195 50.078-76.766 93.84-80l37.414 84.066c1.1 2.492 3.2 4.426 5.762 5.348a10.01 10.01 0 0 0 7.848-.469l7.125-3.566 8.113 25.266L167.563 492H20.5zM421.6 492H274.137l-12.633-55.434 8.7-25.117 6.523 3.266a10.01 10.01 0 0 0 13.61-4.878l37.414-84.066c43.762 3.238 93.84 38.805 93.84 80zm0 0"/><path d="M351.05 446h-40a10 10 0 1 0 0 20h40a10 10 0 1 0 0-20zm39.45 0c5.52 0 10 4.48 10 10s-4.48 10-10 10-10-4.48-10-10 4.48-10 10-10zm0 0"/></svg>