<svg id="Layer_1" data-name="Layer 1" xmlns="http://www.w3.org/2000/svg" viewBox="0 0 193.4 29.49"><defs><style>.cls-1{fill:#129805;}.cls-2{fill:#f06906;}.cls-3{fill:#385067;}.cls-4{fill:#333434;}</style></defs><path class="cls-1" d="M11.91,14.18s-2.2,1.27-.94,5.35,6,3.46,8.66,3,6.3-10.23-.32-10.85c2.21-.16-6.13-3-6.13-3a9.47,9.47,0,0,1,4.26-.16,13,13,0,0,1,4.72,1.74c3.15,2.05,4.88,5.23,4.1,9.76s-6,8.83-11.5,7.4-8-8.35-6.3-10.72,3.45-2.52,3.45-2.52Z" transform="translate(-5.75 -8.35)"/><path class="cls-2" d="M18.06,27.58s-6,1.09-9.6-2.83A9.6,9.6,0,0,1,6.56,14.2,9.84,9.84,0,0,1,15.7,8.38a8.88,8.88,0,0,1,8.82,7.4c.58,4.57-2.2,6.46-3.3,6.93a5,5,0,0,1-3.94-.31s2.83-1.58,2.68-4.26c-.14-2.22-.86-4-3.3-4.72-2.05-.63-5.67-.31-6.47,3.79a8.85,8.85,0,0,0,2.68,7.55,12.61,12.61,0,0,0,5.19,2.82Z" transform="translate(-5.75 -8.35)"/><path class="cls-3" d="M28.94,14.51h2.93v1.1a6.79,6.79,0,0,1,1.81-1.06,5,5,0,0,1,1.65-.3,4.18,4.18,0,0,1,3,1.12,3.56,3.56,0,0,1,1,2.77v7h-2.9V20.51A10.8,10.8,0,0,0,36.22,18a1.81,1.81,0,0,0-.66-1,2,2,0,0,0-1.15-.33,2.31,2.31,0,0,0-1.53.54,3,3,0,0,0-.89,1.5,11.65,11.65,0,0,0-.12,2.15v4.26H28.94V14.51Z" transform="translate(-5.75 -8.35)"/><rect class="cls-3" x="36.06" y="2.05" width="2.94" height="14.73"/><path class="cls-3" d="M49.89,10.64a1.94,1.94,0,0,0-1.32-.5,1.89,1.89,0,0,0-1.32.5,1.54,1.54,0,0,0-.54,1.2,1.68,1.68,0,0,0,.55,1.25,2,2,0,0,0,2.65,0,1.6,1.6,0,0,0,.53-1.22A1.67,1.67,0,0,0,49.89,10.64Zm-2.8,3.87V25.15H50V14.51Z" transform="translate(-5.75 -8.35)"/><path class="cls-3" d="M52.68,14.51h2.94v1.1a6.79,6.79,0,0,1,1.81-1.06,5,5,0,0,1,1.65-.3,4.19,4.19,0,0,1,3,1.12,3.56,3.56,0,0,1,1,2.77v7H60.15V20.51A10.25,10.25,0,0,0,60,18a1.71,1.71,0,0,0-.66-1,1.92,1.92,0,0,0-1.14-.33,2.31,2.31,0,0,0-1.53.54,3,3,0,0,0-.89,1.5,11.65,11.65,0,0,0-.12,2.15v4.26H52.68V14.51Z" transform="translate(-5.75 -8.35)"/><path class="cls-3" d="M77.61,20.09a5.51,5.51,0,0,0-1.72-4.24,6.31,6.31,0,0,0-4.5-1.6,6.14,6.14,0,0,0-4.32,1.6,5.31,5.31,0,0,0-1.72,4,5,5,0,0,0,1.74,3.94,6.32,6.32,0,0,0,4.48,1.58,7.53,7.53,0,0,0,3.06-.57,5.58,5.58,0,0,0,2.2-1.77L74.37,22a4.18,4.18,0,0,1-2.84,1,3.64,3.64,0,0,1-2.25-.66,2.78,2.78,0,0,1-1.1-1.81H77.6Zm-9.31-1.6a3.54,3.54,0,0,1,1.08-1.37,3.73,3.73,0,0,1,2.15-.63,3.59,3.59,0,0,1,2,.56,2.68,2.68,0,0,1,1.15,1.44Z" transform="translate(-5.75 -8.35)"/><polygon class="cls-3" points="79.71 2.42 82.72 2.42 82.72 14.18 87.11 14.18 87.11 16.78 79.71 16.78 79.71 2.42"/><path class="cls-3" d="M106.54,20.09a5.54,5.54,0,0,0-1.72-4.24,6.34,6.34,0,0,0-4.5-1.6A6.14,6.14,0,0,0,96,15.85a5.34,5.34,0,0,0-1.72,4A5.07,5.07,0,0,0,96,23.84a6.34,6.34,0,0,0,4.48,1.58,7.5,7.5,0,0,0,3.06-.57,5.54,5.54,0,0,0,2.21-1.77L103.29,22a4.19,4.19,0,0,1-2.83,1,3.67,3.67,0,0,1-2.26-.66,2.77,2.77,0,0,1-1.09-1.81h9.41Zm-9.3-1.6a3.54,3.54,0,0,1,1.08-1.37,3.78,3.78,0,0,1,2.16-.63,3.69,3.69,0,0,1,2,.56,2.7,2.7,0,0,1,1.14,1.44Z" transform="translate(-5.75 -8.35)"/><path class="cls-3" d="M117.53,14.51v1.17a6.12,6.12,0,0,0-1.78-1.11,5.31,5.31,0,0,0-1.92-.33,5.41,5.41,0,0,0-3.71,1.39,5.17,5.17,0,0,0-1.72,4.06A5.19,5.19,0,0,0,110,23.6a5.91,5.91,0,0,0,5.91,1.23,4.85,4.85,0,0,0,1.61-1,4.18,4.18,0,0,1-.29,1.82,2.16,2.16,0,0,1-1,.87,4.58,4.58,0,0,1-1.89.33,5.41,5.41,0,0,1-1.6-.23,2.77,2.77,0,0,1-1.11-.68h-3.23a4.64,4.64,0,0,0,1.2,1.85,5.37,5.37,0,0,0,2,1.14,9.17,9.17,0,0,0,2.88.4,6.28,6.28,0,0,0,4.83-1.72,5.62,5.62,0,0,0,1.2-4v-9.1h-2.94Zm-.73,7.39a3.16,3.16,0,0,1-2.25.83,3.33,3.33,0,0,1-2.33-.85,2.84,2.84,0,0,1-.92-2.17,2.73,2.73,0,0,1,.9-2.12,3.56,3.56,0,0,1,4.59,0,2.83,2.83,0,0,1,.88,2.16A2.75,2.75,0,0,1,116.8,21.9Z" transform="translate(-5.75 -8.35)"/><path class="cls-3" d="M132.06,14.51v1.17a5.25,5.25,0,0,0-3.69-1.44,5.26,5.26,0,0,0-3.87,1.58,5.42,5.42,0,0,0-1.6,4,5.31,5.31,0,0,0,1.65,4,5.49,5.49,0,0,0,3.93,1.6,5.31,5.31,0,0,0,1.88-.33A5.75,5.75,0,0,0,132.08,24v1.13H135V14.5h-2.95Zm-.78,7.58a3.39,3.39,0,0,1-4.56,0,3.06,3.06,0,0,1-.92-2.26,3,3,0,0,1,.91-2.24A3.06,3.06,0,0,1,129,16.7a3.28,3.28,0,0,1,2.31.87,3,3,0,0,1,.9,2.24A3,3,0,0,1,131.28,22.09Z" transform="translate(-5.75 -8.35)"/><rect class="cls-3" x="131.88" y="2.05" width="2.94" height="14.73"/><rect class="cls-3" x="142.77" y="2.42" width="2.99" height="14.37"/><path class="cls-3" d="M154.57,14.51h2.94v1.1a6.91,6.91,0,0,1,1.8-1.06,5,5,0,0,1,1.65-.3,4.2,4.2,0,0,1,3,1.12,3.56,3.56,0,0,1,1,2.77v7H162V20.51a10.8,10.8,0,0,0-.19-2.52,1.76,1.76,0,0,0-.66-1A1.93,1.93,0,0,0,160,16.7a2.28,2.28,0,0,0-1.52.54,3,3,0,0,0-.89,1.5,10.78,10.78,0,0,0-.12,2.15v4.26h-2.94V14.51Z" transform="translate(-5.75 -8.35)"/><path class="cls-3" d="M176.39,10.4v5.28a5.26,5.26,0,0,0-1.7-1.08,5.36,5.36,0,0,0-2-.36,5.3,5.3,0,0,0-3.89,1.58,5.42,5.42,0,0,0-1.6,4,5.27,5.27,0,0,0,1.65,4,5.45,5.45,0,0,0,3.91,1.6,5.14,5.14,0,0,0,1.87-.33A5.51,5.51,0,0,0,176.37,24v1.13h2.94V10.4Zm-.78,11.69a3.38,3.38,0,0,1-4.55,0,3,3,0,0,1-.92-2.26,3,3,0,0,1,.9-2.24,3.08,3.08,0,0,1,2.26-.87,3.2,3.2,0,0,1,2.29.87,2.92,2.92,0,0,1,.91,2.24A2.88,2.88,0,0,1,175.61,22.09Z" transform="translate(-5.75 -8.35)"/><path class="cls-3" d="M184.76,10.64a1.87,1.87,0,0,0-1.32-.5,1.9,1.9,0,0,0-1.32.5,1.56,1.56,0,0,0-.53,1.2,1.68,1.68,0,0,0,.55,1.25,2,2,0,0,0,2.64,0,1.58,1.58,0,0,0,.54-1.22A1.68,1.68,0,0,0,184.76,10.64ZM182,14.51V25.15h2.93V14.51Z" transform="translate(-5.75 -8.35)"/><path class="cls-3" d="M196.2,14.51v1.17a5.29,5.29,0,0,0-3.69-1.44,5.24,5.24,0,0,0-3.87,1.58,5.42,5.42,0,0,0-1.6,4,5.31,5.31,0,0,0,1.65,4,5.51,5.51,0,0,0,3.93,1.6,5.18,5.18,0,0,0,1.87-.33A5.51,5.51,0,0,0,196.21,24v1.13h2.94V14.5h-3Zm-.79,7.58a3.38,3.38,0,0,1-4.55,0,3.24,3.24,0,0,1,0-4.5,3.11,3.11,0,0,1,2.26-.87,3.22,3.22,0,0,1,2.3.87,3,3,0,0,1,.9,2.24A2.91,2.91,0,0,1,195.41,22.09Z" transform="translate(-5.75 -8.35)"/><rect class="cls-4" x="0.05" y="24.58" width="17.7" height="0.71"/><rect class="cls-4" x="175.69" y="24.5" width="17.7" height="0.71"/><path class="cls-4" d="M30.27,31.26h0a2.4,2.4,0,0,0-.9-1.05A2.55,2.55,0,0,0,28,29.84a2.46,2.46,0,0,0-1.35.37,2.63,2.63,0,0,0-.89,1.05,3.38,3.38,0,0,0-.34,1.6v.31a3.3,3.3,0,0,0,.34,1.56,2.17,2.17,0,0,0,.89,1,2.74,2.74,0,0,0,1.35.35,2.45,2.45,0,0,0,1.35-.38,2.05,2.05,0,0,0,.9-1,3.55,3.55,0,0,0,.33-1.59v-.26A3.71,3.71,0,0,0,30.27,31.26Zm-.81,1.65h0v.18a3.22,3.22,0,0,1-.38,1.52,1.19,1.19,0,0,1-1,.55,1.21,1.21,0,0,1-1.07-.55,2.69,2.69,0,0,1-.38-1.52v-.31a2.69,2.69,0,0,1,.38-1.52A1.3,1.3,0,0,1,28,30.74a1.23,1.23,0,0,1,1.08.55,2.73,2.73,0,0,1,.37,1.54Z" transform="translate(-5.75 -8.35)"/><path class="cls-4" d="M35.92,31.29a2.46,2.46,0,0,0-1-1,3.05,3.05,0,0,0-1.43-.35H31.68V36h1.83a3.1,3.1,0,0,0,1.43-.37,2.56,2.56,0,0,0,1-1,3.38,3.38,0,0,0,.35-1.51v-.28A3.43,3.43,0,0,0,35.92,31.29Zm-.75,1.85a2.19,2.19,0,0,1-.43,1.47,1.52,1.52,0,0,1-1.23.52h-.7V30.79h.73a1.47,1.47,0,0,1,1.23.52,2.39,2.39,0,0,1,.4,1.5Z" transform="translate(-5.75 -8.35)"/><path class="cls-4" d="M40.71,33.41l.08,0a1.81,1.81,0,0,0,.79-.64,2,2,0,0,0,.27-1,1.65,1.65,0,0,0-.57-1.33,2.41,2.41,0,0,0-1.65-.47H37.39V36h1.13V33.73h1.16l0,0L40.84,36h1.21Zm-1.08-.55H38.49V30.81h1.12a1,1,0,0,1,.83.29,1,1,0,0,1,.28.75.94.94,0,0,1-.28.73A1.09,1.09,0,0,1,39.63,32.86Z" transform="translate(-5.75 -8.35)"/><polygon class="cls-4" points="49.04 21.59 49.04 22.46 47.12 22.46 47.12 27.65 46 27.65 46 22.46 44.11 22.46 44.11 21.59 49.04 21.59"/><polygon class="cls-4" points="56.32 21.59 56.32 27.68 55.19 27.68 55.19 26.06 55.34 22.58 53.5 27.68 52.74 27.68 50.9 22.58 51.05 26.06 51.05 27.68 49.92 27.68 49.92 21.59 51.46 21.59 53.04 26.06 53.12 26.27 54.78 21.59 56.32 21.59"/><path class="cls-4" d="M74.2,33.41l.08,0a1.76,1.76,0,0,0,.79-.64,2,2,0,0,0,.27-1,1.65,1.65,0,0,0-.57-1.33,2.41,2.41,0,0,0-1.65-.47H70.88V36H72V33.73h1.16l0,0L74.33,36h1.21Zm-1.08-.55H72V30.81H73.1a1,1,0,0,1,.83.29,1,1,0,0,1,.28.75.94.94,0,0,1-.28.73A1.09,1.09,0,0,1,73.12,32.86Z" transform="translate(-5.75 -8.35)"/><path class="cls-4" d="M80.3,33.66A2.36,2.36,0,0,0,79.78,32a1.88,1.88,0,0,0-1.44-.57,2,2,0,0,0-1.1.3,1.9,1.9,0,0,0-.74.82,2.6,2.6,0,0,0-.25,1.2v.13a2.27,2.27,0,0,0,.62,1.62,2.2,2.2,0,0,0,1.6.6,2.31,2.31,0,0,0,1-.23,1.89,1.89,0,0,0,.69-.54l-.51-.55a1.45,1.45,0,0,1-1.12.47,1.18,1.18,0,0,1-1.22-1.07v-.1h3Zm-1-.23h-1.9v-.09a1.39,1.39,0,0,1,.3-.77.82.82,0,0,1,.66-.29.93.93,0,0,1,.68.26.94.94,0,0,1,.26.7Z" transform="translate(-5.75 -8.35)"/><path class="cls-4" d="M84.09,31.52l-.06.55-.13-.14a1.36,1.36,0,0,0-1.12-.49,1.54,1.54,0,0,0-1.3.61,2.65,2.65,0,0,0-.5,1.6h0v.16a2.69,2.69,0,0,0,.5,1.68,1.5,1.5,0,0,0,1.28.62,1.41,1.41,0,0,0,1.08-.47l.14-.15V36a1.05,1.05,0,0,1-.31.8,1.12,1.12,0,0,1-.83.29,1.54,1.54,0,0,1-1.11-.48l-.44.62a1.74,1.74,0,0,0,.65.45,2.49,2.49,0,0,0,1,.2A2.65,2.65,0,0,0,84,37.61a1.79,1.79,0,0,0,.74-.66,2,2,0,0,0,.27-1V31.52ZM84,34.81a1,1,0,0,1-1.63.06,1.62,1.62,0,0,1-.28-1,1.81,1.81,0,0,1,.28-1.13.86.86,0,0,1,.76-.4.91.91,0,0,1,.87.46v2Z" transform="translate(-5.75 -8.35)"/><path class="cls-4" d="M86.22,31.54V36h1.07V31.54Zm1-1.7a.62.62,0,0,0-.46-.15.56.56,0,0,0-.45.15.54.54,0,0,0-.16.41.43.43,0,0,0,.2.4h0a.55.55,0,0,0,.43.15.55.55,0,0,0,.43-.15.61.61,0,0,0,0-.82Z" transform="translate(-5.75 -8.35)"/><path class="cls-4" d="M92,34.74a1.14,1.14,0,0,1-.51,1,2.21,2.21,0,0,1-1.34.37,2.59,2.59,0,0,1-1-.2,1.48,1.48,0,0,1-.67-.54,1.15,1.15,0,0,1-.24-.65h1a.82.82,0,0,0,.26.5,1,1,0,0,0,.67.2,1.11,1.11,0,0,0,.6-.15.55.55,0,0,0,.23-.42.5.5,0,0,0-.27-.44,3.79,3.79,0,0,0-.75-.23c-1.07-.23-1.58-.66-1.58-1.32a1.22,1.22,0,0,1,.48-1,1.91,1.91,0,0,1,1.29-.39,2.19,2.19,0,0,1,1.37.39,1.21,1.21,0,0,1,.49.94H90.94a.6.6,0,0,0-.2-.41.81.81,0,0,0-.6-.21,1,1,0,0,0-.53.14.46.46,0,0,0-.22.43.49.49,0,0,0,.24.41,2.08,2.08,0,0,0,.68.22,4.5,4.5,0,0,1,.76.2A1.19,1.19,0,0,1,92,34.74Z" transform="translate(-5.75 -8.35)"/><path class="cls-4" d="M95.17,35.23V36a2.62,2.62,0,0,1-.67.08,1.07,1.07,0,0,1-1.23-1.23V32.26h-.7v-.74h.67V30.38h1.08v1.16h.8v.74h-.8v2.41a.54.54,0,0,0,.12.42.61.61,0,0,0,.45.13Z" transform="translate(-5.75 -8.35)"/><path class="cls-4" d="M98.4,31.48v1.05H98A1,1,0,0,0,97,33v3H96V31.54h1l0,.73.14-.22a1.1,1.1,0,0,1,1-.61A1.76,1.76,0,0,1,98.4,31.48Z" transform="translate(-5.75 -8.35)"/><path class="cls-4" d="M102.61,35.05V33a1.41,1.41,0,0,0-.47-1.15,2,2,0,0,0-1.31-.42,2.42,2.42,0,0,0-1,.2,1.56,1.56,0,0,0-.66.51,1.07,1.07,0,0,0-.24.62H100a.52.52,0,0,1,.2-.39.83.83,0,0,1,.55-.18.72.72,0,0,1,.58.21.94.94,0,0,1,.17.57v.34h-.65a2.6,2.6,0,0,0-1.53.37,1.25,1.25,0,0,0-.51,1.07,1.14,1.14,0,0,0,.41.92,1.64,1.64,0,0,0,1.09.37,1.43,1.43,0,0,0,1.1-.46l.12-.12,0,.16a1.61,1.61,0,0,0,.12.39h1.07A2.36,2.36,0,0,1,102.61,35.05Zm-1.09-.24a.88.88,0,0,1-.37.37,1.26,1.26,0,0,1-.55.13.72.72,0,0,1-.5-.17.63.63,0,0,1-.18-.45v-.08c0-.48.39-.72,1.06-.72h.55Z" transform="translate(-5.75 -8.35)"/><path class="cls-4" d="M105.91,35.23V36a2.56,2.56,0,0,1-.67.08A1.07,1.07,0,0,1,104,34.85V32.26h-.67v-.74H104V30.38h1v1.16h.8v.74h-.8v2.41a.51.51,0,0,0,.13.42.56.56,0,0,0,.44.13Z" transform="translate(-5.75 -8.35)"/><path class="cls-4" d="M107.77,29.84a.65.65,0,0,0-.46-.15.58.58,0,0,0-.46.15.54.54,0,0,0-.16.41.39.39,0,0,0,.2.39l0,0a.51.51,0,0,0,.42.15.56.56,0,0,0,.44-.15.64.64,0,0,0,0-.82Zm-1,1.7V36h1.08V31.54Z" transform="translate(-5.75 -8.35)"/><path class="cls-4" d="M112.42,32a2.35,2.35,0,0,0-2.59-.27,1.72,1.72,0,0,0-.74.79,2.62,2.62,0,0,0-.25,1.2v0a2.43,2.43,0,0,0,.57,1.7,2.22,2.22,0,0,0,3.08,0,2.31,2.31,0,0,0,.57-1.65V33.5A2.27,2.27,0,0,0,112.42,32Zm-.71,2.88a.83.83,0,0,1-.76.37.9.9,0,0,1-.79-.4,1.67,1.67,0,0,1-.27-1,2.05,2.05,0,0,1,.27-1.13.86.86,0,0,1,.76-.4,1,1,0,0,1,.79.4,1.63,1.63,0,0,1,.28,1A1.85,1.85,0,0,1,111.71,34.89Z" transform="translate(-5.75 -8.35)"/><path class="cls-4" d="M117.76,33.12V36h-1.07V33.12a.83.83,0,0,0-.21-.64,1,1,0,0,0-.62-.2.93.93,0,0,0-.85.49V36h-1.08V31.54h1l0,.69.14-.18a1.56,1.56,0,0,1,1.28-.58,1.22,1.22,0,0,1,1,.41A2,2,0,0,1,117.76,33.12Z" transform="translate(-5.75 -8.35)"/><path class="cls-4" d="M122.41,34.74a1.16,1.16,0,0,1-.51,1,2.27,2.27,0,0,1-1.35.37,2.62,2.62,0,0,1-1-.2,1.46,1.46,0,0,1-.66-.54,1.15,1.15,0,0,1-.24-.65h1a.78.78,0,0,0,.26.5,1,1,0,0,0,.67.2,1.1,1.1,0,0,0,.59-.15.53.53,0,0,0,.24-.42.5.5,0,0,0-.28-.44,3.27,3.27,0,0,0-.74-.23c-1.07-.23-1.59-.66-1.59-1.32a1.22,1.22,0,0,1,.49-1,1.91,1.91,0,0,1,1.29-.39,2.19,2.19,0,0,1,1.37.39,1.17,1.17,0,0,1,.48.94h-1.07a.57.57,0,0,0-.21-.41.8.8,0,0,0-.6-.21,1.1,1.1,0,0,0-.53.14.49.49,0,0,0-.22.43.5.5,0,0,0,.25.41,2,2,0,0,0,.67.22,4.05,4.05,0,0,1,.76.2A1.19,1.19,0,0,1,122.41,34.74Z" transform="translate(-5.75 -8.35)"/><path class="cls-4" d="M129.62,35l0-.06a3,3,0,0,0,.55-1.83h-.9a2.3,2.3,0,0,1-.27,1l0,.1-.08-.09-1.14-1.31.56-.39a1.58,1.58,0,0,0,.72-1.25,1.22,1.22,0,0,0-.42-1,1.46,1.46,0,0,0-1.08-.39,1.61,1.61,0,0,0-1.18.44,1.51,1.51,0,0,0-.44,1.13,1.37,1.37,0,0,0,.15.64,5.39,5.39,0,0,0,.43.68l0,.06-.06.05a3.41,3.41,0,0,0-.86.81,1.38,1.38,0,0,0-.22.76,1.53,1.53,0,0,0,.55,1.2,2,2,0,0,0,1.41.47,2.67,2.67,0,0,0,1.53-.45l.06,0,.33.39h1.18Zm-2.5-4.07a.61.61,0,0,1,.48-.2.63.63,0,0,1,.48.18.59.59,0,0,1,.17.42.9.9,0,0,1-.11.4,1.28,1.28,0,0,1-.39.34l-.4.24,0-.06a1.47,1.47,0,0,1-.41-.84A.52.52,0,0,1,127.12,30.91Zm1.2,4.08a1.58,1.58,0,0,1-.9.27.83.83,0,0,1-.68-.29.84.84,0,0,1-.25-.64,1,1,0,0,1,.42-.84l.14-.09,0,.05,1.3,1.49Z" transform="translate(-5.75 -8.35)"/><path class="cls-4" d="M138.34,34a2.06,2.06,0,0,1-.72,1.51,2.45,2.45,0,0,1-1.7.55,2.24,2.24,0,0,1-1.82-.77,3.17,3.17,0,0,1-.68-2.17v-.39a3.65,3.65,0,0,1,.3-1.54,2.48,2.48,0,0,1,.87-1,2.31,2.31,0,0,1,1.33-.35,2.43,2.43,0,0,1,1.68.55,2.33,2.33,0,0,1,.73,1.48h-1.12a1.39,1.39,0,0,0-.36-.85,1.29,1.29,0,0,0-.93-.31,1.13,1.13,0,0,0-1,.5,2.71,2.71,0,0,0-.35,1.47v.46a2.84,2.84,0,0,0,.32,1.52,1.14,1.14,0,0,0,1,.5,1.31,1.31,0,0,0,.93-.3,1.2,1.2,0,0,0,.36-.84Z" transform="translate(-5.75 -8.35)"/><path class="cls-4" d="M142.65,32h0a2,2,0,0,0-1.46-.54,2,2,0,0,0-1.12.27,1.85,1.85,0,0,0-.75.79,2.68,2.68,0,0,0-.25,1.2v0a2.46,2.46,0,0,0,.58,1.71,2.24,2.24,0,0,0,3.07,0,2.33,2.33,0,0,0,.58-1.66V33.5A2.21,2.21,0,0,0,142.65,32ZM142,34.89a.83.83,0,0,1-.76.37.92.92,0,0,1-.79-.39,1.76,1.76,0,0,1-.27-1.06,1.9,1.9,0,0,1,.27-1.13.89.89,0,0,1,.77-.4.92.92,0,0,1,.78.4,1.64,1.64,0,0,1,.28,1A1.81,1.81,0,0,1,142,34.89Z" transform="translate(-5.75 -8.35)"/><path class="cls-4" d="M150.68,33.14V36h-1.05V33.17a.9.9,0,0,0-.17-.62.72.72,0,0,0-.61-.21.86.86,0,0,0-.84.59v3.12h-1.08V33.19a1,1,0,0,0-.17-.64.72.72,0,0,0-.61-.21.93.93,0,0,0-.84.48h0v3.22h-1.08V31.59h1l0,.61.13-.17a1.53,1.53,0,0,1,1.28-.56,1.2,1.2,0,0,1,1.17.65l.06.12.08-.11a1.53,1.53,0,0,1,1.32-.66,1.29,1.29,0,0,1,1.05.41A1.81,1.81,0,0,1,150.68,33.14Z" transform="translate(-5.75 -8.35)"/><path class="cls-4" d="M155.8,33.89v-.1a2.85,2.85,0,0,0-.45-1.71,1.49,1.49,0,0,0-1.28-.61A1.39,1.39,0,0,0,153,32l-.13.13-.06-.57h-1v6.24h1.08V35.47l.14.14a1.34,1.34,0,0,0,1.08.47,1.5,1.5,0,0,0,1.25-.61,2.5,2.5,0,0,0,.47-1.58ZM154.38,35a.8.8,0,0,1-.57.21h-.05a.88.88,0,0,1-.87-.52V32.77a.94.94,0,0,1,.87-.49.88.88,0,0,1,.74.4,1.9,1.9,0,0,1,.24,1A1.8,1.8,0,0,1,154.38,35Z" transform="translate(-5.75 -8.35)"/><rect class="cls-4" x="151.06" y="21.23" width="1.08" height="6.42"/><path class="cls-4" d="M159.16,31.54V36h1.08V31.54Zm1-1.7a.65.65,0,0,0-.46-.15.6.6,0,0,0-.46.15.54.54,0,0,0-.16.41.39.39,0,0,0,.2.39v0a.57.57,0,0,0,.44.15.55.55,0,0,0,.43-.15.61.61,0,0,0,0-.82Z" transform="translate(-5.75 -8.35)"/><path class="cls-4" d="M165,35.05V33a1.44,1.44,0,0,0-.46-1.15,2,2,0,0,0-1.32-.42,2.4,2.4,0,0,0-1,.2,1.53,1.53,0,0,0-.67.51,1.19,1.19,0,0,0-.24.62h1.08a.5.5,0,0,1,.21-.39.78.78,0,0,1,.54-.18.68.68,0,0,1,.58.22.85.85,0,0,1,.17.56v.34h-.65a2.58,2.58,0,0,0-1.52.37,1.23,1.23,0,0,0-.51,1.07,1.1,1.1,0,0,0,.41.92,1.59,1.59,0,0,0,1.08.37,1.43,1.43,0,0,0,1.1-.46l.11-.14,0,.18a2.23,2.23,0,0,0,.13.39h1.06A2.42,2.42,0,0,1,165,35.05Zm-1.09-.25a.74.74,0,0,1-.37.37,1.13,1.13,0,0,1-.55.14.65.65,0,0,1-.5-.18.59.59,0,0,1-.18-.44v-.08c0-.48.39-.72,1.07-.72h.54Z" transform="translate(-5.75 -8.35)"/><path class="cls-4" d="M169.9,33.12V36h-1.08V33.12a.79.79,0,0,0-.21-.64,1,1,0,0,0-.62-.2.94.94,0,0,0-.85.49V36h-1.07V31.54h1l0,.69.14-.18a1.56,1.56,0,0,1,1.28-.58,1.21,1.21,0,0,1,1,.41A1.91,1.91,0,0,1,169.9,33.12Z" transform="translate(-5.75 -8.35)"/><path class="cls-4" d="M174.75,34.59a1.36,1.36,0,0,1-.25.72,1.65,1.65,0,0,1-.66.6,2,2,0,0,1-1,.2,2,2,0,0,1-1.51-.6,2.41,2.41,0,0,1-.55-1.7v-.08a2.26,2.26,0,0,1,.55-1.64,1.94,1.94,0,0,1,1.51-.62,1.9,1.9,0,0,1,1.34.46,1.66,1.66,0,0,1,.51,1.18h-1a.92.92,0,0,0-.26-.57.84.84,0,0,0-.62-.26.79.79,0,0,0-.71.35,1.77,1.77,0,0,0-.25,1.08v.13a2.18,2.18,0,0,0,.22,1.08.89.89,0,0,0,.74.34.91.91,0,0,0,.62-.2.71.71,0,0,0,.25-.47Z" transform="translate(-5.75 -8.35)"/><path class="cls-4" d="M179.47,34.09v-.43A2.33,2.33,0,0,0,179,32a1.86,1.86,0,0,0-1.43-.56,2,2,0,0,0-1.09.3,1.92,1.92,0,0,0-.75.82,2.57,2.57,0,0,0-.25,1.2v.13a2.16,2.16,0,0,0,.63,1.61,2.09,2.09,0,0,0,1.59.61,2.4,2.4,0,0,0,1-.23,1.93,1.93,0,0,0,.69-.54l-.52-.55a1.4,1.4,0,0,1-1.11.47,1.23,1.23,0,0,1-.83-.3,1.16,1.16,0,0,1-.39-.77v-.1Zm-2.91-.75a1.29,1.29,0,0,1,.3-.77.83.83,0,0,1,.66-.29.89.89,0,0,1,.67.27.92.92,0,0,1,.26.69v.19h-1.92Z" transform="translate(-5.75 -8.35)"/><ellipse class="cls-4" cx="40.38" cy="24.54" rx="0.94" ry="0.98"/><ellipse class="cls-4" cx="60.75" cy="24.54" rx="0.94" ry="0.98"/></svg>