<?xml version="1.0" encoding="utf-8"?>
<!-- Generator: Adobe Illustrator 24.3.0, SVG Export Plug-In . SVG Version: 6.00 Build 0)  -->
<svg version="1.1" id="Layer_1" xmlns="http://www.w3.org/2000/svg" xmlns:xlink="http://www.w3.org/1999/xlink" x="0px" y="0px"
	 viewBox="0 0 204.9 33.7" style="enable-background:new 0 0 204.9 33.7;" xml:space="preserve">
<style type="text/css">
	.st0{fill:#129805;}
	.st1{fill:#F06906;}
	.st2{fill:#385067;}
	.st3{fill:#333434;}
	.st4{fill:#FDFBFB;}
</style>
<g>
	<path class="st0" d="M11.9,6.1c0,0-2.3,1.3-1,5.6s6.2,3.6,9,3.1s6.6-10.6-0.3-11.3c2.3-0.2-6.4-3.1-6.4-3.1c1.4-0.4,3-0.5,4.4-0.2
		C19.3,0.5,21,1.1,22.5,2c3.3,2.1,5.1,5.4,4.3,10.1s-6.2,9.2-11.9,7.7S6.5,11.2,8.3,8.7S11.9,6.1,11.9,6.1z"/>
	<path class="st1" d="M18.3,20c0,0-6.2,1.1-10-2.9c-2.8-2.9-3.6-7.3-2-11c1.7-3.8,5.4-6.1,9.6-6.1c4.5,0,8.4,3.2,9.2,7.7
		c0.6,4.8-2.3,6.7-3.4,7.2c-1.4,0.5-2.8,0.3-4.1-0.3c0,0,3-1.6,2.8-4.4c-0.1-2.3-0.9-4.1-3.4-4.9c-2.1-0.6-5.9-0.3-6.7,3.9
		c-0.4,2.9,0.7,5.8,2.8,7.9C14.4,18.5,16.2,19.5,18.3,20z"/>
	<path class="st2" d="M29.6,8h3v1.2c0.6-0.5,1.2-0.8,1.9-1.1c0.6-0.2,1.1-0.3,1.7-0.3c1.1,0,2.2,0.4,3.1,1.1
		c0.8,0.8,1.1,1.8,1.1,2.9v7.3h-3v-4.8c0-0.9,0-1.8-0.2-2.6c-0.1-0.4-0.3-0.8-0.7-1c-0.4-0.2-0.8-0.4-1.2-0.3
		c-0.6,0-1.1,0.2-1.6,0.6c-0.5,0.4-0.8,1-0.9,1.6c-0.1,0.7-0.2,1.5-0.1,2.2v4.4h-3L29.6,8z"/>
	<path class="st2" d="M43,3.8h3v15.3h-3V3.8z"/>
	<path class="st2" d="M50,3.5c0.5,0,1,0.2,1.4,0.5c0.7,0.6,0.8,1.7,0.1,2.4c0,0-0.1,0.1-0.1,0.1C51,6.9,50.5,7.1,50,7.1
		c-0.5,0-1-0.2-1.4-0.5C48.2,6.2,48,5.7,48,5.2c0-0.5,0.2-0.9,0.6-1.2C49,3.7,49.5,3.5,50,3.5z M48.5,8h3v11h-3V8z"/>
	<path class="st2" d="M54.3,8h3v1.2c0.6-0.5,1.2-0.8,1.9-1.1c0.6-0.2,1.1-0.3,1.7-0.3c1.1,0,2.2,0.4,3.1,1.1
		c0.7,0.8,1.1,1.8,1.1,2.9v7.3h-3v-4.8c0-0.9,0-1.8-0.2-2.6c-0.1-0.4-0.3-0.8-0.7-1c-0.4-0.2-0.8-0.4-1.2-0.3
		c-0.6,0-1.1,0.2-1.6,0.6c-0.5,0.4-0.8,1-0.9,1.6c-0.1,0.7-0.2,1.5-0.1,2.2v4.4h-3.1V8z"/>
	<path class="st2" d="M80.2,14.4h-9.8c0.1,0.7,0.5,1.4,1.1,1.9c0.7,0.5,1.5,0.7,2.3,0.7c1.1,0,2.1-0.4,2.9-1.1l2.6,1.1
		c-0.6,0.8-1.4,1.4-2.3,1.8c-1,0.4-2.1,0.6-3.2,0.6c-1.7,0.1-3.4-0.5-4.7-1.6c-1.1-1.1-1.8-2.6-1.7-4.1c0-1.6,0.6-3.1,1.8-4.2
		c1.2-1.1,2.8-1.7,4.5-1.7c1.7-0.1,3.4,0.5,4.7,1.7c1.2,1.1,1.9,2.7,1.8,4.4L80.2,14.4z M77.2,12.2C77,11.6,76.5,11,76,10.7
		c-0.6-0.4-1.3-0.6-2.1-0.6c-0.8,0-1.6,0.2-2.2,0.6c-0.5,0.4-0.9,0.9-1.2,1.4L77.2,12.2z"/>
	<path class="st2" d="M84.4,4.2h3.1v12.2H92v2.7h-7.7V4.2z"/>
	<path class="st2" d="M106.3,14.4h-9.8c0.1,0.8,0.5,1.4,1.1,1.9c0.7,0.5,1.5,0.7,2.3,0.7c1.1,0,2.1-0.4,2.9-1.1l2.6,1.1
		c-0.6,0.8-1.4,1.4-2.3,1.8c-1,0.4-2.1,0.6-3.2,0.6c-1.7,0.1-3.4-0.5-4.7-1.6c-1.2-1-1.8-2.5-1.8-4.1c0-1.6,0.6-3.1,1.8-4.2
		c1.2-1.1,2.8-1.7,4.5-1.7c1.7-0.1,3.4,0.5,4.7,1.7c1.2,1.1,1.9,2.7,1.8,4.4V14.4z M103.3,12.2c-0.2-0.6-0.6-1.2-1.2-1.5
		c-0.6-0.4-1.3-0.6-2.1-0.6c-0.8,0-1.6,0.2-2.2,0.6c-0.5,0.4-0.9,0.9-1.1,1.4H103.3z"/>
	<path class="st2" d="M117.7,8h3v9.5c0.1,1.5-0.3,3-1.2,4.1c-1.3,1.3-3.2,1.9-5,1.8c-1,0-2-0.1-3-0.4c-0.7-0.2-1.4-0.7-2-1.2
		c-0.6-0.5-1-1.2-1.2-1.9h3.4c0.3,0.3,0.7,0.6,1.2,0.7c0.5,0.2,1.1,0.3,1.7,0.2c0.7,0,1.4-0.1,2-0.4c0.4-0.2,0.8-0.5,1.1-0.9
		c0.2-0.6,0.4-1.2,0.3-1.9c-0.5,0.5-1.1,0.8-1.7,1c-0.6,0.2-1.3,0.3-2,0.3c-1.5,0-3-0.5-4.1-1.6c-1.1-1-1.7-2.5-1.7-4.1
		c-0.1-1.6,0.6-3.2,1.8-4.2c1.1-1,2.4-1.5,3.9-1.4c0.7,0,1.4,0.1,2,0.3c0.7,0.3,1.3,0.7,1.9,1.2L117.7,8z M114.6,10.3
		c-0.9,0-1.7,0.3-2.4,0.9c-0.6,0.6-1,1.4-0.9,2.2c0,0.9,0.3,1.7,1,2.3c0.7,0.6,1.5,0.9,2.4,0.9c0.9,0,1.7-0.3,2.3-0.9
		c0.6-0.6,1-1.4,0.9-2.3c0-0.8-0.3-1.7-0.9-2.2C116.3,10.6,115.4,10.3,114.6,10.3L114.6,10.3z"/>
	<path class="st2" d="M132.8,8h3v11h-3v-1.1c-0.5,0.5-1.1,0.8-1.8,1.1c-0.6,0.2-1.3,0.3-1.9,0.3c-1.5,0-3-0.6-4.1-1.7
		c-1.1-1.1-1.8-2.6-1.7-4.1c-0.1-1.6,0.5-3.1,1.7-4.2c1.6-1.6,4-2.1,6.1-1.3c0.7,0.3,1.3,0.6,1.8,1.1V8z M129.6,10.3
		c-0.9,0-1.7,0.3-2.3,0.9c-0.6,0.6-1,1.5-0.9,2.3c0,0.9,0.3,1.8,1,2.4c0.6,0.6,1.5,0.9,2.3,0.9c0.9,0,1.7-0.3,2.4-0.9
		c0.7-0.6,1-1.5,1-2.4c0-0.9-0.3-1.7-1-2.3C131.4,10.6,130.5,10.3,129.6,10.3L129.6,10.3z"/>
	<path class="st2" d="M138.6,3.8h3.1v15.3h-3.1V3.8z"/>
	<path class="st2" d="M146.9,4.2h3.1v14.9h-3.1V4.2z"/>
	<path class="st2" d="M153.2,8h3.1v1.2c0.6-0.5,1.2-0.8,1.9-1.1c0.6-0.2,1.1-0.3,1.7-0.3c1.1,0,2.2,0.4,3.1,1.1
		c0.7,0.8,1.1,1.8,1.1,2.9v7.3h-3v-4.8c0-0.9,0-1.8-0.2-2.6c-0.1-0.4-0.3-0.8-0.7-1c-0.4-0.2-0.8-0.4-1.2-0.3
		c-0.6,0-1.1,0.2-1.6,0.6c-0.5,0.4-0.8,1-0.9,1.6c-0.1,0.7-0.2,1.5-0.1,2.2v4.4h-3.1L153.2,8z"/>
	<path class="st2" d="M175.9,3.8h3.1v15.3h-3.1v-1.2c-0.5,0.5-1.1,0.8-1.8,1.1c-0.6,0.2-1.3,0.3-2,0.3c-1.5,0-3-0.6-4.1-1.7
		c-1.1-1.1-1.7-2.6-1.7-4.1c-0.1-1.6,0.5-3.1,1.7-4.2c1.1-1.1,2.5-1.7,4-1.6c0.7,0,1.4,0.1,2,0.4c0.7,0.3,1.3,0.6,1.8,1.1L175.9,3.8
		z M172.7,10.3c-0.9,0-1.7,0.3-2.4,0.9c-0.6,0.6-1,1.5-0.9,2.3c0,0.9,0.4,1.7,1,2.4c1.3,1.2,3.4,1.2,4.7,0c0.7-0.6,1-1.5,1-2.4
		c0-0.9-0.3-1.7-1-2.3C174.5,10.6,173.6,10.3,172.7,10.3z"/>
	<path class="st2" d="M183.2,3.5c0.5,0,1,0.2,1.4,0.5c0.7,0.6,0.8,1.7,0.1,2.4c0,0-0.1,0.1-0.1,0.1c-0.4,0.3-0.9,0.5-1.4,0.5
		c-0.5,0-1-0.2-1.4-0.5c-0.4-0.3-0.6-0.8-0.6-1.3c0-0.5,0.2-0.9,0.6-1.3C182.2,3.7,182.7,3.5,183.2,3.5z M181.7,8h3v11h-3V8z"/>
	<path class="st2" d="M196.5,8h3v11h-3v-1.1c-0.5,0.5-1.1,0.8-1.8,1.1c-0.6,0.2-1.3,0.3-1.9,0.3c-1.5,0-3-0.6-4.1-1.7
		c-1.1-1.1-1.8-2.6-1.7-4.1c-0.1-1.6,0.5-3.1,1.7-4.2c1.6-1.6,4-2.1,6.1-1.3c0.7,0.3,1.2,0.7,1.8,1.2V8z M193.3,10.3
		c-0.9,0-1.7,0.3-2.4,0.9c-0.6,0.6-1,1.5-0.9,2.3c0,0.9,0.3,1.8,1,2.4c0.6,0.6,1.5,0.9,2.3,0.9c0.9,0,1.7-0.3,2.4-0.9
		c0.6-0.6,1-1.5,0.9-2.4c0-0.9-0.3-1.7-0.9-2.3C195,10.6,194.2,10.3,193.3,10.3L193.3,10.3z"/>
	<path class="st3" d="M74.8,27.9h-1.6V32H72v-4.1h-1.6V27h4.4V27.9z"/>
	<path class="st3" d="M79.2,32H78v-2c0-0.5-0.2-0.8-0.6-0.8c-0.2,0-0.4,0.1-0.5,0.2c-0.1,0.2-0.2,0.4-0.2,0.6v2h-1.2v-5.3h1.2v2.3
		l0,0c0.3-0.4,0.7-0.6,1.2-0.6c0.9,0,1.3,0.5,1.3,1.5L79.2,32z"/>
	<path class="st3" d="M83.7,30.5h-2.6c0,0.5,0.4,0.8,1.1,0.8c0.4,0,0.8-0.1,1.1-0.3v0.8c-0.4,0.2-0.9,0.3-1.4,0.3
		c-0.5,0-1.1-0.1-1.5-0.5c-0.4-0.4-0.6-0.8-0.5-1.4c0-0.5,0.2-1.1,0.6-1.4c0.4-0.4,0.9-0.5,1.4-0.5c0.5,0,1,0.1,1.3,0.5
		c0.3,0.3,0.5,0.8,0.5,1.3L83.7,30.5z M82.6,29.8c0-0.5-0.2-0.8-0.7-0.8c-0.2,0-0.4,0.1-0.5,0.2c-0.1,0.2-0.2,0.3-0.3,0.5L82.6,29.8
		z"/>
	<path class="st3" d="M88,30.3V32h-1.2v-5h2c1.4,0,2.1,0.5,2.1,1.6c0,0.5-0.2,0.9-0.6,1.2c-0.5,0.3-1,0.5-1.6,0.5L88,30.3z M88,27.8
		v1.6h0.4c0.7,0,1-0.3,1-0.8s-0.3-0.8-1-0.8H88z"/>
	<path class="st3" d="M93.4,32.1c-0.6,0-1.1-0.1-1.6-0.5c-0.8-0.8-0.8-2,0-2.7c0,0,0,0,0,0c0.5-0.4,1-0.5,1.6-0.5
		c0.6,0,1.1,0.1,1.5,0.5c0.4,0.3,0.6,0.8,0.6,1.3c0,0.5-0.2,1-0.6,1.4C94.5,31.9,94,32.1,93.4,32.1z M93.4,29.2
		c-0.3,0-0.5,0.1-0.7,0.3c-0.2,0.2-0.3,0.5-0.2,0.8c0,0.7,0.3,1,0.9,1s0.9-0.4,0.9-1.1S94,29.2,93.4,29.2L93.4,29.2z"/>
	<path class="st3" d="M102.1,28.4l-1.1,3.6h-1.3l-0.6-2.1c0-0.2-0.1-0.3-0.1-0.5l0,0c0,0.1,0,0.3-0.1,0.4L98.3,32H97l-1.1-3.6h1.2
		l0.5,2.3c0,0.1,0.1,0.3,0.1,0.4l0,0c0-0.1,0-0.3,0.1-0.4l0.7-2.3h1.2l0.6,2.3c0,0.1,0,0.2,0.1,0.4l0,0c0-0.1,0-0.3,0.1-0.4l0.5-2.3
		H102.1z"/>
	<path class="st3" d="M106.2,30.5h-2.6c0,0.5,0.4,0.8,1.1,0.8c0.4,0,0.8-0.1,1.2-0.3v0.8c-0.5,0.2-0.9,0.3-1.4,0.3
		c-0.5,0-1.1-0.1-1.5-0.5c-0.3-0.4-0.5-0.9-0.5-1.4c0-0.5,0.2-1.1,0.6-1.4c0.4-0.4,0.9-0.5,1.4-0.5c0.5,0,1,0.1,1.3,0.5
		c0.3,0.3,0.5,0.8,0.5,1.3L106.2,30.5z M105.1,29.8c0-0.5-0.2-0.8-0.7-0.8c-0.2,0-0.4,0.1-0.5,0.2c-0.1,0.2-0.2,0.3-0.3,0.5
		L105.1,29.8z"/>
	<path class="st3" d="M109.5,29.4c-0.2-0.1-0.3-0.1-0.5-0.1c-0.2,0-0.5,0.1-0.6,0.3c-0.2,0.2-0.2,0.5-0.2,0.7V32h-1.2v-3.6h1.2v0.7
		l0,0c0.1-0.4,0.5-0.7,1-0.7c0.1,0,0.2,0,0.3,0L109.5,29.4z"/>
	<path class="st3" d="M114.7,32.1c-0.7,0-1.4-0.2-1.9-0.7c-0.5-0.5-0.8-1.1-0.7-1.8c0-0.7,0.2-1.4,0.8-1.9c0.5-0.5,1.3-0.8,2-0.7
		c0.7,0,1.4,0.2,1.9,0.7c0.5,0.5,0.8,1.2,0.7,1.9c0,0.7-0.2,1.4-0.8,1.9C116.2,31.9,115.4,32.1,114.7,32.1z M114.8,27.9
		c-0.4,0-0.7,0.2-1,0.5c-0.5,0.7-0.5,1.7,0,2.4c0.6,0.5,1.4,0.5,2,0c0.3-0.3,0.4-0.8,0.4-1.2c0-0.4-0.1-0.9-0.4-1.2
		C115.5,28,115.2,27.8,114.8,27.9z"/>
	<path class="st3" d="M120.8,27.5c-0.1-0.1-0.3-0.1-0.4-0.1c-0.3,0-0.5,0.1-0.6,0.4c0,0.1,0,0.1,0,0.2v0.4h0.9v0.8h-0.9V32h-1.2
		v-2.8h-0.7v-0.8h0.7V28c0-0.4,0.1-0.8,0.4-1c0.3-0.3,0.8-0.4,1.2-0.4c0.2,0,0.4,0,0.6,0.1L120.8,27.5z"/>
	<path class="st3" d="M124.8,30.3V32h-1.2v-5h2c1.4,0,2.1,0.5,2.1,1.6c0,0.5-0.2,0.9-0.6,1.2c-0.5,0.3-1,0.5-1.6,0.5L124.8,30.3z
		 M124.8,27.8v1.6h0.5c0.7,0,1-0.3,1-0.8s-0.3-0.8-1-0.8H124.8z"/>
	<path class="st3" d="M131.9,30.5h-2.6c0,0.5,0.4,0.8,1.1,0.8c0.4,0,0.8-0.1,1.2-0.3v0.8c-0.4,0.2-0.9,0.3-1.4,0.3
		c-0.5,0-1.1-0.1-1.5-0.5c-0.4-0.4-0.6-0.8-0.5-1.4c0-0.5,0.2-1.1,0.6-1.4c0.4-0.4,0.9-0.5,1.4-0.5c0.5,0,1,0.1,1.3,0.5
		c0.3,0.3,0.5,0.8,0.5,1.3L131.9,30.5z M130.8,29.8c0-0.5-0.2-0.8-0.7-0.8c-0.2,0-0.4,0.1-0.5,0.2c-0.1,0.2-0.2,0.3-0.3,0.5
		L130.8,29.8z"/>
	<path class="st3" d="M134.5,32.1c-0.6,0-1.1-0.1-1.6-0.5c-0.8-0.8-0.8-2,0-2.7c0,0,0,0,0,0c0.4-0.4,1-0.5,1.6-0.5
		c0.6,0,1.1,0.1,1.6,0.5c0.4,0.3,0.6,0.8,0.6,1.3c0,0.5-0.2,1-0.6,1.4C135.6,31.9,135,32.1,134.5,32.1z M134.5,29.2
		c-0.3,0-0.5,0.1-0.7,0.3c-0.2,0.2-0.3,0.5-0.2,0.8c0,0.7,0.3,1,0.9,1s0.9-0.4,0.9-1.1S135.1,29.2,134.5,29.2L134.5,29.2z"/>
	<path class="st3" d="M138.7,31.6L138.7,31.6v2.1h-1.2v-5.2h1.2V29l0,0c0.3-0.4,0.8-0.7,1.3-0.6c0.4,0,0.9,0.1,1.2,0.5
		c0.3,0.4,0.4,0.8,0.4,1.3c0,0.5-0.1,1-0.5,1.5c-0.3,0.4-0.8,0.6-1.3,0.5C139.3,32.2,138.9,31.9,138.7,31.6z M138.7,30.1v0.3
		c0,0.2,0.1,0.4,0.2,0.6c0.1,0.2,0.4,0.2,0.6,0.2c0.2,0,0.5-0.1,0.6-0.3c0.2-0.2,0.3-0.5,0.2-0.8c0-0.6-0.3-1-0.8-1
		c-0.2,0-0.5,0.1-0.6,0.3C138.7,29.6,138.6,29.9,138.7,30.1L138.7,30.1z"/>
	<path class="st3" d="M143.6,32h-1.2v-5.3h1.2V32z"/>
	<path class="st3" d="M148.2,30.5h-2.6c0,0.5,0.4,0.8,1.1,0.8c0.4,0,0.8-0.1,1.1-0.3v0.8c-0.4,0.2-0.9,0.3-1.4,0.3
		c-0.5,0-1.1-0.1-1.5-0.5c-0.4-0.4-0.6-0.8-0.5-1.4c0-0.5,0.2-1.1,0.6-1.4c0.4-0.4,0.9-0.5,1.4-0.5c0.5,0,1,0.1,1.3,0.5
		c0.3,0.3,0.5,0.8,0.5,1.3V30.5z M147,29.8c0-0.5-0.2-0.8-0.7-0.8c-0.2,0-0.4,0.1-0.5,0.2c-0.1,0.2-0.2,0.3-0.3,0.5L147,29.8z"/>
	<rect x="180.5" y="20.9" class="st2" width="19" height="6.6"/>
	<path class="st4" d="M181.5,26c0-0.3,0.2-0.6,0.5-0.6c0,0,0,0,0,0c0.3,0,0.6,0.2,0.7,0.6s-0.2,0.6-0.6,0.7
		C181.9,26.7,181.6,26.4,181.5,26C181.5,26,181.5,26,181.5,26z"/>
	<path class="st4" d="M186.5,26.4c-0.4,0.1-0.7,0.2-1.1,0.2c-1.1,0.1-2-0.8-2.1-1.9c0-0.1,0-0.2,0-0.3c-0.1-1.2,0.8-2.2,2-2.3
		c0.1,0,0.2,0,0.2,0c0.3,0,0.7,0.1,1,0.2l-0.2,0.7c-0.2-0.1-0.5-0.2-0.8-0.2c-0.8,0-1.4,0.6-1.3,1.4c0,0.1,0,0.1,0,0.2
		c-0.1,0.7,0.4,1.4,1.2,1.5c0.1,0,0.1,0,0.2,0c0.3,0,0.6-0.1,0.8-0.2L186.5,26.4z"/>
	<path class="st4" d="M191.1,24.3c0.1,1.1-0.7,2.1-1.8,2.3c-0.1,0-0.1,0-0.2,0c-1.1,0-2-0.9-2-2c0-0.1,0-0.2,0-0.3
		c-0.1-1.1,0.7-2.2,1.8-2.3c0.1,0,0.2,0,0.2,0c1.1,0,2,0.9,2,2C191.1,24.2,191.1,24.2,191.1,24.3z M189.1,22.8
		c-0.8,0-1.1,0.8-1.1,1.6s0.4,1.6,1.1,1.6s1.1-0.7,1.1-1.6C190.2,23.6,189.9,22.8,189.1,22.8L189.1,22.8z"/>
	<path class="st4" d="M198,26.5h-0.9V24c0-0.7-0.2-1.2-0.8-1.2c-0.5,0-0.9,0.5-0.9,1v2.7h-0.9v-2.6c0-0.6-0.2-1.1-0.8-1.1
		c-0.5,0.1-0.9,0.5-0.9,1.1v2.6H192v-3.1c0-0.5,0-0.9,0-1.2h0.8v0.6l0,0c0.3-0.5,0.8-0.7,1.3-0.7c0.5,0,1,0.3,1.1,0.8l0,0
		c0.3-0.5,0.8-0.8,1.3-0.8c0.6,0,1.4,0.4,1.4,1.8L198,26.5z"/>
	<rect x="150.1" y="30" class="st3" width="49.4" height="0.7"/>
	<rect x="10.9" y="30" class="st3" width="58.4" height="0.7"/>
</g>
</svg>
