<svg height="100" viewBox="0 0 512 512" width="100" xmlns="http://www.w3.org/2000/svg"><g id="Flat"><path d="m168 24h176v32h-176z" fill="#fbbe1f"/><path d="m152 56h208v408h-208z" fill="#0093b9"/><path d="m152 432h208v32h-208z" fill="#fbbe1f"/><path d="m128 48h256v16h-256z" fill="#067a98"/><path d="m184 88h32v16h-32z" fill="#067a98"/><path d="m240 88h32v16h-32z" fill="#067a98"/><path d="m296 88h32v16h-32z" fill="#fbbe1f"/><path d="m184 120h32v16h-32z" fill="#067a98"/><path d="m240 120h32v16h-32z" fill="#fbbe1f"/><path d="m296 120h32v16h-32z" fill="#067a98"/><path d="m184 152h32v16h-32z" fill="#fbbe1f"/><g fill="#067a98"><path d="m240 152h32v16h-32z"/><path d="m296 152h32v16h-32z"/><path d="m184 184h32v16h-32z"/><path d="m240 184h32v16h-32z"/></g><path d="m296 184h32v16h-32z" fill="#fbbe1f"/><path d="m184 216h32v16h-32z" fill="#067a98"/><path d="m240 216h32v16h-32z" fill="#fbbe1f"/><path d="m296 216h32v16h-32z" fill="#067a98"/><path d="m184 248h32v16h-32z" fill="#fbbe1f"/><path d="m240 248h32v16h-32z" fill="#067a98"/><path d="m296 248h32v16h-32z" fill="#067a98"/><path d="m184 280h32v16h-32z" fill="#067a98"/><path d="m240 280h32v16h-32z" fill="#067a98"/><path d="m296 280h32v16h-32z" fill="#fbbe1f"/><path d="m184 312h32v16h-32z" fill="#067a98"/><path d="m240 312h32v16h-32z" fill="#fbbe1f"/><path d="m296 312h32v16h-32z" fill="#067a98"/><path d="m304 352h-96v16h16v24h16v-24h32v24h16v-24h16z" fill="#067a98"/><path d="m376 104h16v152h-16z" fill="#cacac9"/><path d="m376 272h16v16h-16z" fill="#cacac9"/><path d="m120 192h16v128h-16z" fill="#cacac9"/><path d="m56 384h24l24.971-24.971a24 24 0 0 1 16.97-7.029h30.059v32h32a24 24 0 0 1 24 24v56a24 24 0 0 1 -24 24h-46.059a81.941 81.941 0 0 1 -57.941-24h-24" fill="#f8caa8"/><path d="m16 368h40v112h-40z" fill="#0093b9"/><rect fill="#e99180" height="16" rx="8" width="24" x="128" y="376"/><path d="m456 384h-24l-24.971-24.971a24 24 0 0 0 -16.97-7.029h-30.059v32h-32a24 24 0 0 0 -24 24v56a24 24 0 0 0 24 24h46.059a81.941 81.941 0 0 0 57.941-24h24" fill="#f8caa8"/><path d="m456 368h40v112h-40z" fill="#0093b9"/><rect fill="#e99180" height="16" rx="8" width="24" x="360" y="376"/></g></svg>