<?xml version="1.0" encoding="iso-8859-1"?>
<!-- Generator: Adobe Illustrator 19.0.0, SVG Export Plug-In . SVG Version: 6.00 Build 0)  -->
<svg version="1.1" id="Capa_1" xmlns="http://www.w3.org/2000/svg" xmlns:xlink="http://www.w3.org/1999/xlink" x="0px" y="0px"
	 viewBox="0 0 480 480" style="enable-background:new 0 0 480 480;" xml:space="preserve" fill="#2fc72f">
<g>
	<g>
		<g>
			<path d="M296,288v-96c0-13.255-10.745-24-24-24H112c-13.255,0-24,10.745-24,24v96c0,13.255,10.745,24,24,24h160
				C285.255,312,296,301.255,296,288z M104,192c0-4.418,3.582-8,8-8h160c4.418,0,8,3.582,8,8v24H104V192z M104,288v-56h176v56
				c0,4.418-3.582,8-8,8H112C107.582,296,104,292.418,104,288z"/>
			<path d="M439.648,57.384c3.429-12.813-4.179-25.979-16.992-29.408c-12.813-3.429-25.979,4.179-29.408,16.992L384,79.48V24
				c0-13.255-10.745-24-24-24s-24,10.745-24,24v35.824l-8.184-30.504c-3.087-12.89-16.04-20.837-28.93-17.75
				s-20.837,16.04-17.75,28.93c0.101,0.42,0.213,0.838,0.336,1.252l19.592,73.24c-33.08-13.929-70.292-14.385-103.704-1.272
				c-6.505,2.654-11.543,7.993-13.816,14.64c-4.124,12.667,2.8,26.278,15.467,30.403c5.424,1.766,11.299,1.553,16.581-0.603
				c45.217-17.819,96.317,4.391,114.136,49.607s-4.391,96.317-49.607,114.136c-21.011,8.28-44.4,8.165-65.329-0.32
				c-10.94-4.263-23.35,0.17-29.112,10.4c-3.508,6.028-4.201,13.29-1.896,19.872c2.331,6.672,7.468,11.987,14.056,14.544
				c15.957,6.361,32.982,9.62,50.16,9.6v96c0,4.418,3.582,8,8,8h120c4.418,0,8-3.582,8-8V265.048l55.648-207.616V57.384z
				 M296.92,37.6c-0.563-2.057-0.275-4.254,0.8-6.096c1.059-1.841,2.815-3.176,4.872-3.704c2.038-0.572,4.221-0.283,6.04,0.8
				c1.831,1.039,3.17,2.768,3.72,4.8l28.856,107.504c-0.584-0.544-1.224-1.008-1.816-1.544c-2.264-2.056-4.576-4.048-6.96-5.936
				c-1.032-0.8-2.08-1.6-3.136-2.4c-2.315-1.723-4.683-3.36-7.104-4.912c-0.656-0.432-1.272-0.936-1.936-1.344L296.92,37.6z
				 M368,464H264v-96c0-4.418-3.582-8-8-8h-8c-15.167,0.017-30.197-2.867-44.28-8.496c-2.244-0.857-3.999-2.656-4.8-4.92
				c-0.773-2.194-0.53-4.619,0.664-6.616c1.766-3.379,5.789-4.891,9.344-3.512c53.259,21.507,113.869-4.233,135.376-57.491
				c21.507-53.259-4.232-113.869-57.491-135.376c-24.722-9.983-52.334-10.091-77.133-0.3c-3.862,1.675-8.365,0.141-10.4-3.544
				c-1.114-1.887-1.342-4.169-0.624-6.24c0.772-2.246,2.47-4.052,4.664-4.96c34.728-13.641,73.798-10.562,105.96,8.352
				c10.598,6.22,20.154,14.065,28.32,23.248l0.072,0.088l0.368,0.448c2.649,2.98,5.141,6.096,7.464,9.336
				c0.928,1.28,1.688,2.656,2.552,4c1.328,2.016,2.712,4,3.896,6.088c0.211,0.445,0.446,0.877,0.704,1.296
				c1.344,2.4,2.56,4.688,3.664,6.976c1.104,2.288,2.096,4.528,2.992,6.784c5.713,14.258,8.635,29.48,8.608,44.84
				c0.002,0.377,0.029,0.754,0.08,1.128V464z M368,176.152c-0.488-0.896-0.984-1.784-1.504-2.696L352,119.424V24
				c0-4.418,3.582-8,8-8s8,3.582,8,8V176.152z M424.184,53.312L384,203.264v-61.888l24.672-92.224
				c1.149-4.284,5.552-6.825,9.836-5.676S425.333,49.029,424.184,53.312z"/>
			<polygon points="48,232 32,232 32,216 16,216 16,232 0,232 0,248 16,248 16,264 32,264 32,248 48,248 			"/>
			<polygon points="464,232 464,216 448,216 448,232 432,232 432,248 448,248 448,264 464,264 464,248 480,248 480,232 			"/>
			<polygon points="64,128 80,128 80,112 96,112 96,96 80,96 80,80 64,80 64,96 48,96 48,112 64,112 			"/>
			<polygon points="80,352 64,352 64,368 48,368 48,384 64,384 64,400 80,400 80,384 96,384 96,368 80,368 			"/>
			<polygon points="432,352 416,352 416,368 400,368 400,384 416,384 416,400 432,400 432,384 448,384 448,368 432,368 			"/>
			<polygon points="208,48 224,48 224,32 240,32 240,16 224,16 224,0 208,0 208,16 192,16 192,32 208,32 			"/>
			<polygon points="208,432 192,432 192,448 176,448 176,464 192,464 192,480 208,480 208,464 224,464 224,448 208,448 			"/>
		</g>
	</g>
</g>
<g>
</g>
<g>
</g>
<g>
</g>
<g>
</g>
<g>
</g>
<g>
</g>
<g>
</g>
<g>
</g>
<g>
</g>
<g>
</g>
<g>
</g>
<g>
</g>
<g>
</g>
<g>
</g>
<g>
</g>
</svg>
