<svg id="Capa_1" enable-background="new 0 0 512 512" height="512" viewBox="0 0 512 512" width="512" xmlns="http://www.w3.org/2000/svg"><g><path d="m496 182h-480c-8.284 0-15 6.716-15 15v300c0 8.284 6.716 15 15 15h105l135-11 135 11h105c8.284 0 15-6.716 15-15v-300c0-8.284-6.716-15-15-15z" fill="#8cbcff"/><path d="m511 497v-300c0-8.284-6.716-15-15-15h-240v319l135 11h105c8.284 0 15-6.716 15-15z" fill="#4895ff"/><g><path d="m311 512h80v-395c0-8.284-6.716-15-15-15h-240c-8.284 0-15 6.716-15 15v395h80l55-14z" fill="#beebfa"/></g><path d="m376 102h-120v396l55 14h80v-395c0-8.284-6.716-15-15-15z" fill="#8cbcff"/><g><g><path d="m256 190c-4.748 0-9.216-2.248-12.045-6.061l-47.978-64.647c-16.934-22.817-19.519-52.76-6.748-78.143 12.772-25.381 38.357-41.149 66.771-41.149s53.999 15.768 66.771 41.149 10.186 55.324-6.748 78.143l-47.978 64.647c-2.829 3.813-7.297 6.061-12.045 6.061z" fill="#e20059"/></g><path d="m322.771 41.149c-12.772-25.381-38.357-41.149-66.771-41.149v190c4.748 0 9.216-2.248 12.045-6.061l47.978-64.647c16.933-22.818 19.519-52.761 6.748-78.143z" fill="#9d3b6e"/><g><g><g fill="#ebe1dc"><circle cx="451" cy="257" r="15"/><circle cx="451" cy="317" r="15"/><circle cx="451" cy="377" r="15"/><circle cx="451" cy="437" r="15"/><circle cx="316" cy="237" r="15"/><circle cx="316" cy="297" r="15"/><circle cx="316" cy="357" r="15"/></g><circle cx="196" cy="237" fill="#fff5f5" r="15"/><circle cx="196" cy="297" fill="#fff5f5" r="15"/><circle cx="196" cy="357" fill="#fff5f5" r="15"/><circle cx="256" cy="237" fill="#fff5f5" r="15"/><path d="m271 237c0-8.284-6.716-15-15-15v30c8.284 0 15-6.716 15-15z" fill="#ebe1dc"/><circle cx="316" cy="177" fill="#ebe1dc" r="15"/><circle cx="196" cy="177" fill="#fff5f5" r="15"/><circle cx="256" cy="297" fill="#fff5f5" r="15"/><path d="m271 297c0-8.284-6.716-15-15-15v30c8.284 0 15-6.716 15-15z" fill="#ebe1dc"/><circle cx="256" cy="357" fill="#fff5f5" r="15"/><path d="m271 357c0-8.284-6.716-15-15-15v30c8.284 0 15-6.716 15-15z" fill="#ebe1dc"/><circle cx="61" cy="257" fill="#fff5f5" r="15"/><circle cx="61" cy="317" fill="#fff5f5" r="15"/><circle cx="61" cy="377" fill="#fff5f5" r="15"/><circle cx="61" cy="437" fill="#fff5f5" r="15"/><g><path d="m311 417c0-8.284-6.716-15-15-15h-80c-8.284 0-15 6.716-15 15v95h30l25-8 25 8h30z" fill="#8cbcff"/><path d="m296 402h-40v102l25 8h30v-95c0-8.284-6.716-15-15-15z" fill="#4895ff"/><path d="m231 432h50v80h-50z" fill="#fff5f5"/><path d="m256 432h25v80h-25z" fill="#ebe1dc"/></g></g><g><g><circle cx="256" cy="75" fill="#fff5f5" r="15"/></g></g><path d="m256 60v30c8.284 0 15-6.716 15-15s-6.716-15-15-15z" fill="#ebe1dc"/></g></g></g></svg>