<svg id="Capa_1" enable-background="new 0 0 512 512" viewBox="0 0 512 512" xmlns="http://www.w3.org/2000/svg" fill="#fff"><g><path d="m77.674 446.723c4.143 0 7.5-3.357 7.5-7.5v-38.91l7.889 7.79c2.945 2.909 7.694 2.883 10.605-.066 2.911-2.946 2.881-7.695-.065-10.605l-20.658-20.401c-2.922-2.887-7.619-2.885-10.541 0l-20.657 20.401c-2.946 2.91-2.977 7.659-.065 10.606 2.896 2.932 7.644 2.99 10.606.065l7.887-7.789v38.909c-.001 4.142 3.357 7.5 7.499 7.5z"/><path d="m143.866 446.723c4.143 0 7.5-3.357 7.5-7.5v-38.91l7.889 7.79c2.944 2.909 7.694 2.883 10.605-.066 2.911-2.946 2.881-7.695-.065-10.605l-20.658-20.401c-2.922-2.887-7.619-2.885-10.541 0l-20.657 20.401c-2.946 2.91-2.977 7.659-.065 10.606 2.896 2.932 7.644 2.99 10.606.065l7.887-7.789v38.909c-.001 4.142 3.356 7.5 7.499 7.5z"/><path d="m219.018 457.767 5.523 5.675c10.509 10.797 27.846 11.035 38.648.521l29.661-28.87c6.021-5.86 8.046-14.776 5.156-22.715-.001-.001-.001-.001-.001-.002-2.541-6.977-7.413-9.564-15.677-18.161l-.006-.006c-.008-.007-.015-.014-.021-.021-1.655-1.611-6.492-6.318-19.113-18.604-10.799-10.511-28.137-10.275-38.648.523l-5.523 5.676c-2.889 2.968-2.824 7.716.144 10.604l28.135 27.386-28.135 27.387c-2.968 2.89-3.033 7.638-.143 10.607zm44.262-32.619c3.021-2.94 3.026-7.804 0-10.748l-28.282-27.529.292-.301c4.743-4.872 12.565-4.978 17.438-.236l19.846 19.316c.003.004.007.007.01.01l9.64 9.383c2.965 2.885 2.588 6.945.167 9.301l-29.662 28.871c-4.87 4.739-12.673 4.658-17.438-.236l-.292-.3z"/><path d="m401.701 36.743v-23.824c0-7.123-5.796-12.919-12.92-12.919h-59.109c-7.124 0-12.92 5.796-12.92 12.919v24.368c-10.487 3.326-20.594 7.854-30.096 13.542-3.555 2.128-4.711 6.733-2.584 10.287 2.128 3.556 6.731 4.71 10.288 2.584 19.809-11.857 42.542-18.125 65.744-18.125 70.697 0 128.213 57.516 128.213 128.212 0 70.697-57.516 128.213-128.213 128.213-6.25 0-12.519-.458-18.708-1.364v-82.654c0-10.308-8.386-18.694-18.693-18.694h-88.253c-1.689-8.37-2.558-16.92-2.558-25.5 0-35.385 14.104-68.33 39.713-92.77 2.997-2.859 3.107-7.607.248-10.604-2.858-2.997-7.606-3.106-10.604-.248-28.604 27.297-44.357 64.097-44.357 103.621 0 8.564.772 17.105 2.283 25.5h-191.798c-10.308 0-18.694 8.386-18.694 18.693v275.325c0 10.308 8.387 18.695 18.694 18.695h295.325c10.308 0 18.693-8.387 18.693-18.694v-39.09c0-4.143-3.357-7.5-7.5-7.5s-7.5 3.357-7.5 7.5v39.09c0 2.037-1.657 3.694-3.693 3.694h-295.325c-2.037 0-3.694-1.657-3.694-3.694v-275.326c0-2.036 1.657-3.693 3.694-3.693h114.033v38.2c0 7.753 6.307 14.06 14.06 14.06h39.142c7.753 0 14.06-6.307 14.06-14.06v-38.2h114.032c2.036 0 3.693 1.657 3.693 3.694v206.248c0 4.143 3.357 7.5 7.5 7.5s7.5-3.357 7.5-7.5v-108.46c6.201.811 12.462 1.231 18.708 1.231 78.968 0 143.213-64.245 143.213-143.213-.001-64.506-42.873-119.179-101.617-137.044zm-69.95-3.335v-18.408h54.949v18.062c-8.621-1.626-17.51-2.486-26.597-2.486-9.567-.001-19.063.961-28.352 2.832zm-138.081 218.139h-37.26v-37.26h37.261v37.26z"/><path d="m360.104 83.693c4.143 0 7.5-3.357 7.5-7.5v-8.556c0-4.143-3.357-7.5-7.5-7.5s-7.5 3.357-7.5 7.5v8.556c0 4.143 3.357 7.5 7.5 7.5z"/><path d="m457.699 181.288h8.556c4.143 0 7.5-3.357 7.5-7.5s-3.357-7.5-7.5-7.5h-8.556c-4.143 0-7.5 3.357-7.5 7.5s3.357 7.5 7.5 7.5z"/><path d="m352.604 271.382v8.556c0 4.143 3.357 7.5 7.5 7.5s7.5-3.357 7.5-7.5v-8.556c0-4.143-3.357-7.5-7.5-7.5s-7.5 3.357-7.5 7.5z"/><path d="m262.51 166.288h-8.557c-4.143 0-7.5 3.357-7.5 7.5s3.357 7.5 7.5 7.5h8.557c4.143 0 7.5-3.357 7.5-7.5s-3.357-7.5-7.5-7.5z"/><path d="m351.726 173.788c0 2.684 1.434 5.162 3.759 6.5 1.158.667 2.45 1 3.741 1 1.302 0 2.604-.339 3.768-1.015l30.528-17.737c3.582-2.081 4.798-6.672 2.718-10.253-2.082-3.583-6.673-4.798-10.253-2.718l-19.261 11.191v-50.819c0-4.143-3.357-7.5-7.5-7.5s-7.5 3.357-7.5 7.5z"/></g></svg>