<svg id="Capa_1" enable-background="new 0 0 512 512" height="512" viewBox="0 0 512 512" width="512" xmlns="http://www.w3.org/2000/svg" fill="#24730a"><g><path d="m477.717 127.298h-56.23v-33.683c0-15.974-13.128-28.969-29.264-28.969h-85.253v-35.3c0-5.523-4.477-10-10-10h-81.94c-5.523 0-10 4.477-10 10v35.3h-84.404c-16.136 0-29.264 12.995-29.264 28.969v33.683h-57.08c-18.903 0-34.282 15.379-34.282 34.283v296.79c0 18.903 15.379 34.283 34.283 34.283h443.435c18.903 0 34.283-15.379 34.283-34.283v-296.79c-.001-18.904-15.38-34.283-34.284-34.283zm-190.747-87.952v49.677h-61.62v-14.376c0-.869-.111-1.712-.319-2.516v-32.785zm-175.608 54.269c0-4.945 4.156-8.969 9.264-8.969h84.404v14.377c0 1.528.343 2.976.956 4.272 1.424 3.787 5.078 6.482 9.363 6.482h82.15c5.523 0 10-4.477 10-10v-15.13h84.723c5.108 0 9.264 4.023 9.264 8.969v33.683h-290.124zm380.638 364.756c0 7.875-6.407 14.283-14.283 14.283h-443.434c-7.875 0-14.283-6.407-14.283-14.283v-296.79c0-7.875 6.407-14.282 14.283-14.282h65.271c.587.107 1.191.164 1.809.164h310.125c.618 0 1.222-.056 1.809-.164h64.421c7.876 0 14.283 6.407 14.283 14.282v296.79z"/><path d="m277.628 193.335h-214.569c-5.523 0-10 4.477-10 10v225.026c0 5.523 4.477 10 10 10h214.569c5.523 0 10-4.477 10-10v-225.026c0-5.522-4.477-10-10-10zm-10 225.027h-194.569v-205.027h194.569z"/><path d="m121.226 392.911h98.234c5.523 0 10-4.477 10-10v-47.542c0-12.647-9.397-23.14-21.576-24.864 5.105-7.384 8.1-16.34 8.1-25.984 0-25.218-20.475-45.735-45.641-45.735s-45.641 20.517-45.641 45.735c0 9.644 2.994 18.6 8.099 25.984-12.179 1.724-21.576 12.217-21.576 24.864v47.542c.001 5.523 4.478 10 10.001 10zm49.117-134.124c14.139 0 25.641 11.544 25.641 25.735 0 14.19-11.503 25.735-25.641 25.735s-25.641-11.545-25.641-25.735c.001-14.191 11.503-25.735 25.641-25.735zm-39.117 76.582c0-2.819 2.293-5.112 5.112-5.112h68.01c2.819 0 5.112 2.293 5.112 5.112v37.542h-78.234z"/><path d="m331.194 280.678h68.998c5.523 0 10-4.477 10-10s-4.477-10-10-10h-68.998c-5.523 0-10 4.477-10 10s4.477 10 10 10z"/><path d="m438.343 305.849h-107.149c-5.523 0-10 4.477-10 10s4.477 10 10 10h107.149c5.523 0 10-4.477 10-10s-4.477-10-10-10z"/><path d="m438.343 351.019h-107.149c-5.523 0-10 4.477-10 10s4.477 10 10 10h107.149c5.523 0 10-4.477 10-10s-4.477-10-10-10z"/></g></svg>