<svg id="Capa_1" enable-background="new 0 0 512 512" height="512" viewBox="0 0 512 512" width="512" xmlns="http://www.w3.org/2000/svg" fill="#fff"><g><path d="m453.657 233.05h-33.647c.414-1.601.658-3.27.658-4.999v-14.299c0-2.074-.318-4.076-.907-5.959 8.05-2.587 13.895-10.14 13.895-19.038v-14.298c0-11.027-8.972-19.999-19.999-19.999h-30.187c-4.143 0-7.5 3.357-7.5 7.5s3.357 7.5 7.5 7.5h30.187c2.757 0 4.999 2.242 4.999 4.999v14.298c0 2.757-2.242 4.999-4.999 4.999-11.541 0-79.041 0-92.617 0v-24.296h32.443c4.143 0 7.5-3.357 7.5-7.5s-3.357-7.5-7.5-7.5h-32.443v-146.958c0-2.959-1.74-5.642-4.441-6.849-2.701-1.204-5.86-.711-8.064 1.264l-28.461 25.513-28.462-25.513c-2.848-2.553-7.163-2.554-10.013.001l-28.455 25.511-28.457-25.511c-2.85-2.555-7.164-2.555-10.014 0l-28.454 25.511-28.455-25.511c-2.85-2.555-7.164-2.555-10.014 0l-28.45 25.511-28.449-25.511c-2.203-1.977-5.362-2.47-8.064-1.265-2.702 1.207-4.442 3.89-4.442 6.849v75.765c0 4.143 3.357 7.5 7.5 7.5s7.5-3.357 7.5-7.5v-58.966l20.949 18.785c2.85 2.555 7.166 2.555 10.014 0l28.45-25.511 28.455 25.511c2.85 2.555 7.164 2.555 10.014 0l28.454-25.511 28.457 25.511c2.85 2.555 7.164 2.555 10.014 0l28.455-25.512 28.461 25.513c2.848 2.553 7.164 2.553 10.012 0l20.961-18.79v284.949c-12.313-7.224-26.629-11.387-41.907-11.387-25.064 0-47.553 11.171-62.8 28.776h-87.997c-4.143 0-7.5 3.357-7.5 7.5s3.357 7.5 7.5 7.5h77.618c-5.409 10.029-8.797 21.293-9.664 33.247h-67.953c-4.143 0-7.5 3.357-7.5 7.5s3.357 7.5 7.5 7.5h68.182c.989 9.305 3.529 18.291 7.596 26.812 1.785 3.74 6.265 5.324 9.999 3.538 3.738-1.784 5.322-6.261 3.538-9.999-4.385-9.186-6.607-19.039-6.607-29.285 0-37.544 30.545-68.089 68.089-68.089s68.089 30.545 68.089 68.089-30.545 68.089-68.089 68.089c-16.614 0-32.622-6.064-45.074-17.077-3.104-2.744-7.843-2.453-10.587.649-2.744 3.104-2.453 7.843.649 10.587 15.197 13.439 34.734 20.841 55.012 20.841 15.278 0 29.594-4.163 41.907-11.387v35.058l-20.961-18.79c-2.848-2.553-7.164-2.553-10.012 0l-28.461 25.513-28.455-25.512c-2.85-2.555-7.164-2.555-10.014 0l-28.457 25.511-28.454-25.511c-2.85-2.555-7.164-2.555-10.014 0l-28.455 25.511-28.45-25.511c-2.85-2.555-7.164-2.555-10.014 0l-20.949 18.785v-374.45c0-4.143-3.357-7.5-7.5-7.5s-7.5 3.357-7.5 7.5v391.248c0 2.959 1.74 5.642 4.442 6.849 2.704 1.205 5.861.709 8.064-1.265l28.448-25.511 28.45 25.511c2.85 2.555 7.164 2.555 10.014 0l28.455-25.511 28.454 25.511c2.85 2.555 7.164 2.555 10.014 0l28.457-25.512 28.455 25.512c2.85 2.555 7.165 2.554 10.013.001l28.461-25.513 28.461 25.513c2.203 1.975 5.362 2.469 8.063 1.264 2.702-1.207 4.442-3.89 4.442-6.849v-20.676h79.63c11.027 0 19.999-8.972 19.999-19.999v-14.299c0-4.728-1.658-9.071-4.412-12.498 2.754-3.427 4.412-7.771 4.412-12.499v-14.299c0-1.834-.269-3.603-.733-5.291 9.469-1.572 16.72-9.798 16.72-19.706v-14.298c0-9.908-7.251-18.135-16.721-19.706.465-1.689.733-3.458.733-5.292v-14.297c0-1.833-.269-3.601-.732-5.288 9.48-1.562 16.742-9.792 16.742-19.709v-14.299c0-1.729-.244-3.397-.658-4.998h17.636c11.027 0 19.999-8.972 19.999-19.999v-14.299c.002-11.027-8.97-19.998-19.997-19.998zm-52.988-24.296c2.757 0 4.999 2.242 4.999 4.998v14.299c0 2.757-2.242 4.999-4.999 4.999-16.299 0-63.347 0-79.63 0v-24.296zm-62.714 63.592h-16.915v-24.296h16.916c-.414 1.601-.658 3.27-.658 4.998v14.299c-.001 1.728.243 3.398.657 4.999zm67.713 59.294v14.298c0 2.757-2.242 4.999-4.999 4.999h-59.079c-3.481-8.953-8.467-17.153-14.651-24.296h73.73c2.757 0 4.999 2.242 4.999 4.999zm0 78.59v14.299c0 2.757-2.242 4.999-4.999 4.999h-69.195c5.283-7.303 9.418-15.486 12.117-24.296h57.078c2.757 0 4.999 2.243 4.999 4.998zm0 53.595c0 2.757-2.242 4.999-4.999 4.999h-79.63v-24.296h79.63c2.757 0 4.999 2.242 4.999 4.998zm15.988-92.889v14.298c0 2.757-2.242 4.999-4.999 4.999-20.242 0-47.159 0-69.968 0 .341-3.051.532-6.146.532-9.287 0-5.126-.491-10.137-1.384-15.009h70.819c2.758 0 5 2.242 5 4.999zm.022-78.592v14.299c0 2.756-2.242 4.998-4.998 4.998-14.814 0-84.141 0-95.641 0v-24.295h95.641c2.756 0 4.998 2.242 4.998 4.998zm36.978-24.997c0 2.757-2.242 4.999-4.999 4.999-11.886 0-85.918 0-96.361 0-2.756 0-4.998-2.242-4.998-4.999v-14.299c0-2.756 2.242-4.998 4.998-4.998h96.361c2.757 0 4.999 2.242 4.999 4.998z"/><path d="m84.882 150.188c-3.467-2.268-8.115-1.296-10.383 2.17s-1.296 8.114 2.17 10.383c6.655 4.354 11.507 6.042 17.573 6.614v4.344c0 4.143 3.357 7.5 7.5 7.5s7.5-3.357 7.5-7.5v-5.054c12.101-3.144 19.856-13.51 21.575-23.734 2.223-13.224-4.956-25.174-17.865-29.736-1.222-.432-2.465-.88-3.71-1.341v-23.71c5.867.85 10.299 2.962 10.473 3.048 3.702 1.84 8.19.343 10.044-3.353 1.857-3.702.361-8.209-3.341-10.066-.448-.226-7.618-3.754-17.176-4.721v-3.326c0-4.143-3.357-7.5-7.5-7.5s-7.5 3.357-7.5 7.5v4.376c-.402.106-.804.213-1.206.334-8.713 2.625-15.219 10.061-16.979 19.405-1.616 8.581 1.175 16.888 7.282 21.678 2.84 2.229 6.297 4.272 10.903 6.392v30.377c-3.14-.481-5.561-1.593-9.36-4.08zm31.143-7.763c-.636 3.786-2.938 7.76-6.782 10.104v-22.688c7.43 3.308 7.246 9.826 6.782 12.584zm-23.428-36.727c-1.66-1.302-2.366-4.089-1.799-7.099.391-2.076 1.484-4.456 3.444-6.12v14.391c-.584-.385-1.139-.775-1.645-1.172z"/><path d="m188.938 113.555h35.194c4.143 0 7.5-3.357 7.5-7.5s-3.357-7.5-7.5-7.5h-35.194c-4.143 0-7.5 3.357-7.5 7.5s3.357 7.5 7.5 7.5z"/><path d="m188.938 149.851h75.194c4.143 0 7.5-3.357 7.5-7.5s-3.357-7.5-7.5-7.5h-75.194c-4.143 0-7.5 3.357-7.5 7.5s3.357 7.5 7.5 7.5z"/><path d="m105.835 237.639c0 4.143 3.357 7.5 7.5 7.5h132.713c4.143 0 7.5-3.357 7.5-7.5s-3.357-7.5-7.5-7.5h-132.713c-4.142 0-7.5 3.357-7.5 7.5z"/><path d="m246.048 278.386h-132.713c-4.143 0-7.5 3.357-7.5 7.5s3.357 7.5 7.5 7.5h132.713c4.143 0 7.5-3.357 7.5-7.5s-3.357-7.5-7.5-7.5z"/></g></svg>