<svg id="Capa_1" enable-background="new 0 0 512.305 512.305" fill="#fff" height="512" viewBox="0 0 512.305 512.305" width="512" xmlns="http://www.w3.org/2000/svg"><g><path d="m296.981 314.293c85.964 0 155.9-70.496 155.9-157.146s-69.936-157.147-155.9-157.147-155.902 70.496-155.902 157.146 69.938 157.147 155.902 157.147zm43.394-93.133c-10.811 0-18.816-8.836-19.284-19.284-.467-10.415 9.197-19.284 19.284-19.284 10.811 0 18.816 8.836 19.284 19.284.467 10.415-9.196 19.284-19.284 19.284zm-4.653-157.007c7.639 3.206 11.232 11.997 8.026 19.636l-65.73 156.62c-2.41 5.742-7.977 9.199-13.838 9.199-1.935 0-3.901-.377-5.798-1.173-7.639-3.206-11.232-11.997-8.026-19.636l65.73-156.62c3.207-7.639 11.998-11.231 19.636-8.026zm-84.118 69.208c-10.811 0-18.816-8.836-19.284-19.284-.466-10.415 9.197-19.284 19.284-19.284 10.811 0 18.817 8.836 19.285 19.284.465 10.414-9.198 19.284-19.285 19.284z"/><path d="m56.856 364.694h-34.203c-8.284 0-15 6.716-15 15v117.59c0 8.284 6.716 15 15 15h34.203z"/><path d="m500.253 363.647c-28.114-28.115-73.861-28.116-101.974 0l-44.934 44.933-18.417 18.417c-7.443 7.443-17.539 11.625-28.066 11.625h-89.552c-8.088 0-15.048-6.216-15.429-14.295-.406-8.626 6.467-15.747 15.004-15.747h91.026c18.302 0 34.176-13.03 37.322-31.059.723-4.14 1.1-8.397 1.1-12.741.001-8.267-6.754-15.033-15.021-15.033h-49.877c-16.301 0-31.954-7.394-48.526-15.224-17.383-8.211-35.357-16.702-56.374-18.1-18.381-1.225-36.806.788-54.763 5.973-19.227 5.552-33.048 22.634-34.724 42.356-.064-.005-.129-.006-.194-.01v147.491c.007 0 .014 0 .021-.001v.072h258.406c17.768 0 34.474-6.92 47.04-19.485l107.93-107.93c5.868-5.864 5.868-15.376.002-21.242z"/></g></svg>