<svg id="_x31_" height="512" viewBox="0 0 24 24" width="512" xmlns="http://www.w3.org/2000/svg"><path d="m17 24c-.066 0-.132-.013-.194-.04-.238-.099-5.806-2.506-5.806-7.424v-4.179c0-.214.137-.405.34-.474l5.5-1.857c.104-.035.217-.035.32 0l5.5 1.857c.203.068.34.259.34.474v4.179c0 4.918-5.568 7.325-5.806 7.425-.062.026-.128.039-.194.039zm-5-11.284v3.82c0 3.785 4.055 5.958 5 6.414.944-.457 5-2.638 5-6.414v-3.82l-5-1.688z"/><path d="m16.5 19c-.009 0-.019 0-.027-.001-.143-.008-.274-.076-.363-.187l-2-2.5c-.172-.216-.138-.53.078-.703.218-.172.532-.137.703.078l1.65 2.064 3.105-3.105c.195-.195.512-.195.707 0s.195.512 0 .707l-3.5 3.5c-.093.095-.221.147-.353.147z"/><path d="m12.5 24h-9c-1.379 0-2.5-1.122-2.5-2.5v-8.13c0-1.031.645-1.967 1.604-2.328l11.716-4.509c.261-.098.548.03.646.287.099.258-.029.547-.287.646l-11.72 4.51c-.574.217-.959.776-.959 1.394v8.13c0 .827.673 1.5 1.5 1.5h9c.276 0 .5.224.5.5s-.224.5-.5.5z"/><path d="m14.5 9c-.276 0-.5-.224-.5-.5v-1.5c0-3.309-2.691-6-6-6s-6 2.691-6 6v.5c0 .276-.224.5-.5.5s-.5-.224-.5-.5v-.5c0-3.86 3.141-7 7-7s7 3.14 7 7v1.5c0 .276-.224.5-.5.5z"/></svg>