<svg xmlns="http://www.w3.org/2000/svg" height="682.667" viewBox="0 0 512 512" width="682.667" fill="#fff" xmlns:v="https://vecta.io/nano"><path d="M512 346.5c0-63.535-36.45-120.238-91.04-147.82-1.695 121.82-100.46 220.586-222.28 222.28C226.262 475.55 282.965 512 346.5 512c29.8 0 58.758-7.934 84.2-23.008l80.566 22.285-22.285-80.566C504.066 405.258 512 376.3 512 346.5zm-121-151C391 87.7 303.3 0 195.5 0S0 87.7 0 195.5c0 35.133 9.352 69.34 27.1 99.37L.72 390.277l95.4-26.387c30.04 17.758 64.247 27.1 99.38 27.1C303.3 391 391 303.3 391 195.5zM165.5 150h-30c0-33.086 26.914-60 60-60s60 26.914 60 60a60.15 60.15 0 0 1-19.512 44.277L210.5 217.605V241h-30v-36.605l35.234-32.25c6.297-5.762 9.766-13.625 9.766-22.145 0-16.543-13.457-30-30-30s-30 13.457-30 30zm15 121h30v30h-30zm0 0"/></svg>