<svg xmlns="http://www.w3.org/2000/svg" viewBox="0 0 42.46 48.99" fill="#fff"><title>quick</title><g id="Layer_2" data-name="Layer 2"><g id="Layer_1-2" data-name="Layer 1"><path d="M33.55,10.47,32.6,11.8a19.61,19.61,0,1,1-21.16-1l-.82-1.42a21.23,21.23,0,1,0,22.93,1.1Z"/><path d="M7.35,27.76a13.87,13.87,0,0,1,1.51-6.28l1,2.5,1.52-.6L9.74,19.29a.8.8,0,0,0-.91-.49l-4.09.81.32,1.6,2.34-.46a15.5,15.5,0,0,0,6.79,20.84c.33.17.67.33,1,.47l.64-1.5A13.88,13.88,0,0,1,7.35,27.76Z"/><path d="M36.34,27.76a15.36,15.36,0,0,0-4.78-11.2l-1.13,1.18a13.88,13.88,0,0,1,.42,19.62c-.33.34-.68.67-1,1V35.93H28.17V40a.81.81,0,0,0,.66.8l4.08.82.32-1.6-2.33-.47A15.51,15.51,0,0,0,36.34,27.76Z"/><path d="M30.22,10.73a.77.77,0,0,0-.41-.11H25.12L27.34,1a.82.82,0,0,0-.62-1l-.18,0H19.19a.81.81,0,0,0-.79.64l-3.27,14.7a.81.81,0,0,0,.8,1h6.34L20,26.77a.82.82,0,0,0,.5.94,1,1,0,0,0,.3.05.8.8,0,0,0,.7-.4l9-15.52A.8.8,0,0,0,30.22,10.73ZM22.71,22.07l1.36-6.38a.81.81,0,0,0-.62-1,.52.52,0,0,0-.17,0H16.94L19.85,1.63h5.67L23.3,11.25a.81.81,0,0,0,.61,1l.18,0h4.3Z"/><path d="M25.78,24.09l-1.42.82a4.08,4.08,0,1,1-5.57-1.5,3.39,3.39,0,0,1,.67-.31l-.54-1.54a5.71,5.71,0,1,0,6.86,2.53Z"/></g></g></svg>