<svg xmlns="http://www.w3.org/2000/svg" viewBox="0 0 41.57 54.57" fill="#fff"><title>recognized</title><g id="Layer_2" data-name="Layer 2"><g id="Layer_1-2" data-name="Layer 1"><path d="M20.79,6.4A14.39,14.39,0,1,0,35.18,20.79,14.4,14.4,0,0,0,20.79,6.4Zm0,25.58A11.2,11.2,0,1,1,32,20.79,11.21,11.21,0,0,1,20.79,32Z"/><path d="M27.74,16.63l-3.81-.56-1.71-3.45a1.6,1.6,0,0,0-2.87,0l-1.7,3.45-3.82.56a1.6,1.6,0,0,0-.89,2.72l2.77,2.7-.66,3.79a1.62,1.62,0,0,0,.64,1.57,1.59,1.59,0,0,0,1.68.12l3.42-1.79,3.41,1.79a1.6,1.6,0,0,0,2.32-1.69l-.65-3.79,2.76-2.7a1.6,1.6,0,0,0-.89-2.72ZM23,20.34a1.6,1.6,0,0,0-.46,1.42l.25,1.43-1.29-.68a1.63,1.63,0,0,0-1.49,0l-1.29.68L19,21.76a1.6,1.6,0,0,0-.46-1.42l-1-1,1.44-.21a1.61,1.61,0,0,0,1.2-.88l.65-1.3.64,1.3a1.61,1.61,0,0,0,1.2.88l1.44.21Z"/><path d="M40,24.33a6,6,0,0,0,1.6-3.54A6,6,0,0,0,40,17.24a5.54,5.54,0,0,1-.87-1.36,5.34,5.34,0,0,1,.07-1.7,5.83,5.83,0,0,0-.38-3.79,5.91,5.91,0,0,0-3.12-2.24,5.28,5.28,0,0,1-1.48-.77,5.4,5.4,0,0,1-.77-1.48,5.86,5.86,0,0,0-2.24-3.12,5.83,5.83,0,0,0-3.79-.38,5.34,5.34,0,0,1-1.7.07,5.26,5.26,0,0,1-1.36-.87A6,6,0,0,0,20.79,0a6,6,0,0,0-3.55,1.6,5.26,5.26,0,0,1-1.36.87,5.34,5.34,0,0,1-1.7-.07,5.83,5.83,0,0,0-3.79.38A5.91,5.91,0,0,0,8.15,5.9a5.14,5.14,0,0,1-.77,1.48,5.14,5.14,0,0,1-1.48.77,5.91,5.91,0,0,0-3.12,2.24,5.83,5.83,0,0,0-.38,3.79,5.34,5.34,0,0,1,.07,1.7,5.26,5.26,0,0,1-.87,1.36A6,6,0,0,0,0,20.79a6,6,0,0,0,1.6,3.54,5.26,5.26,0,0,1,.87,1.36,5.34,5.34,0,0,1-.07,1.7,5.83,5.83,0,0,0,.38,3.79A5.91,5.91,0,0,0,5.9,33.42a5.14,5.14,0,0,1,1.48.77,5.28,5.28,0,0,1,.77,1.48,12.73,12.73,0,0,0,.71,1.51L5.33,50.36a1.6,1.6,0,0,0,2.35,1.79l3.83-2.21,2.22,3.84a1.61,1.61,0,0,0,1.38.79h.21a1.61,1.61,0,0,0,1.34-1.17l3.2-11.94a3.63,3.63,0,0,0,1.85,0l3.2,11.94a1.61,1.61,0,0,0,1.34,1.17.74.74,0,0,0,.21,0,1.61,1.61,0,0,0,1.38-.79l2.22-3.84,3.83,2.21a1.6,1.6,0,0,0,2.35-1.79L32.71,37.18a12.73,12.73,0,0,0,.71-1.51,5.28,5.28,0,0,1,.77-1.48,5.55,5.55,0,0,1,1.48-.77,5.86,5.86,0,0,0,3.12-2.24,5.83,5.83,0,0,0,.38-3.79,5.34,5.34,0,0,1-.07-1.7A5.54,5.54,0,0,1,40,24.33Zm-25.4,24.5L13.48,47a1.6,1.6,0,0,0-2.18-.58L9.42,47.45l2.2-8.22a8.74,8.74,0,0,0,2.56-.06,5.34,5.34,0,0,1,1.7-.07,4.19,4.19,0,0,1,1.11.68Zm15.7-2.46a1.6,1.6,0,0,0-2.18.58L27,48.83l-2.42-9a4.19,4.19,0,0,1,1.11-.68,5.34,5.34,0,0,1,1.7.07,8.74,8.74,0,0,0,2.56.06l2.2,8.22Zm7.17-24A7.28,7.28,0,0,0,36,24.87a7.6,7.6,0,0,0,0,2.93,4.24,4.24,0,0,1,0,1.78,4.1,4.1,0,0,1-1.58.89,7.3,7.3,0,0,0-2.51,1.46,7.3,7.3,0,0,0-1.46,2.51A4.1,4.1,0,0,1,29.58,36a4.24,4.24,0,0,1-1.78,0,7.6,7.6,0,0,0-2.93,0,7.28,7.28,0,0,0-2.49,1.43,4.18,4.18,0,0,1-1.59.93,4.14,4.14,0,0,1-1.6-.93A7.28,7.28,0,0,0,16.7,36a5.17,5.17,0,0,0-1.29-.15,12.07,12.07,0,0,0-1.64.14A4.24,4.24,0,0,1,12,36a4.11,4.11,0,0,1-.88-1.58,7.49,7.49,0,0,0-1.47-2.51,7.3,7.3,0,0,0-2.51-1.46,4.1,4.1,0,0,1-1.58-.89,4.24,4.24,0,0,1,0-1.78,7.41,7.41,0,0,0,0-2.93,7.28,7.28,0,0,0-1.43-2.49,4.18,4.18,0,0,1-.93-1.59,4.14,4.14,0,0,1,.93-1.6A7.28,7.28,0,0,0,5.56,16.7a7.41,7.41,0,0,0,0-2.93,4.24,4.24,0,0,1,0-1.78,4.11,4.11,0,0,1,1.58-.88A7.49,7.49,0,0,0,9.64,9.64a7.49,7.49,0,0,0,1.47-2.51A4.11,4.11,0,0,1,12,5.55a4.24,4.24,0,0,1,1.78,0,7.6,7.6,0,0,0,2.93,0,7.28,7.28,0,0,0,2.49-1.43,4.14,4.14,0,0,1,1.6-.93,4.18,4.18,0,0,1,1.59.93,7.28,7.28,0,0,0,2.49,1.43,7.41,7.41,0,0,0,2.93,0,4.24,4.24,0,0,1,1.78,0,4.1,4.1,0,0,1,.89,1.58,7.3,7.3,0,0,0,1.46,2.51,7.49,7.49,0,0,0,2.51,1.47A4.11,4.11,0,0,1,36,12a4.24,4.24,0,0,1,0,1.78,7.6,7.6,0,0,0,0,2.93,7.28,7.28,0,0,0,1.43,2.49,4.14,4.14,0,0,1,.93,1.6,4.18,4.18,0,0,1-.93,1.59Z"/></g></g></svg>