<?xml version="1.0"?>
<svg xmlns="http://www.w3.org/2000/svg" fill="#169d50" viewBox="0 0 64 64" width="512" height="512"><g id="Outlines"><g><path d="M53,8a1,1,0,0,0,0-2H11a1,1,0,0,0-1,1V50a1,1,0,0,0,1,1H21.253l.037,0,.037,0H53a1,1,0,0,0,1-1V11a1,1,0,0,0-2,0V27H47.886c.111-.108.225-.213.329-.33a7.038,7.038,0,0,0,1.742-5.461,6.875,6.875,0,0,0-.647-2.224,1,1,0,1,0-1.8.868,4.866,4.866,0,0,1,.46,1.576A5,5,0,0,1,43,27H33a7,7,0,1,1,5.414-11.427,4.014,4.014,0,0,0,3.746,1.5,5.094,5.094,0,0,1,1.825.024,4.821,4.821,0,0,1,1.157.4,1,1,0,1,0,.865-1.8,6.7,6.7,0,0,0-1.642-.564,7.04,7.04,0,0,0-2.543-.031,1.994,1.994,0,0,1-1.859-.792A8.972,8.972,0,0,0,31.7,11.092a8.605,8.605,0,0,0-1.715.434,8.989,8.989,0,0,0-9.7,14.461A8.935,8.935,0,0,0,21.364,27H19a1,1,0,0,0,0,2H33.666a4,4,0,0,0-2.522,4.838l-1.526.881a7.556,7.556,0,0,0-5.306-1.169,19.271,19.271,0,0,0-7.035,2.52A7.99,7.99,0,0,0,15.993,49H12V33h3a1,1,0,0,0,1-1V24a1,1,0,0,0-1-1H12V8ZM27,27a7,7,0,0,1-1.025-13.927,7.127,7.127,0,0,1,1.368-.048A8.913,8.913,0,0,0,27.364,27Zm5.9,8.133a1,1,0,0,0,.367-1.366,2,2,0,1,1,3.677-.586,1,1,0,0,0,.67,1.158,2,2,0,1,1-2.347,2.892,1,1,0,0,0-1.367-.366L32.11,37.9a7.7,7.7,0,0,0-.441-.9,7.787,7.787,0,0,0-.559-.832ZM18.277,37.8a17.246,17.246,0,0,1,6.251-2.264,8.523,8.523,0,0,1,.924-.053A4.8,4.8,0,0,1,29.937,38c1.114,1.93.927,3.864-.573,5.914A17.268,17.268,0,0,1,24.277,48.2a6,6,0,1,1-6-10.392Zm12.7,7.291a7.577,7.577,0,0,0,1.64-5.179l1.527-.881a4,4,0,0,0,6.319-4.8,3.968,3.968,0,0,0-1.473-1.46A3.933,3.933,0,0,0,36.293,29h7.373a4,4,0,0,0-2.131,5.767,1,1,0,0,0,1.733-1,2,2,0,1,1,3.677-.586,1,1,0,0,0,.67,1.158,2,2,0,1,1-2.347,2.892,1,1,0,0,0-1.367-.366l-2.865,1.654a1.029,1.029,0,0,0-.474,1.086c.516,2.561-1.411,4.868-3.119,6.353a1,1,0,0,0,1.313,1.509c2.768-2.407,4.095-5,3.869-7.556l1.52-.877a4,4,0,0,0,6.319-4.8,3.968,3.968,0,0,0-1.473-1.46A3.933,3.933,0,0,0,46.293,29H52V49H47.974a4.966,4.966,0,0,0-2.028-7.606,1,1,0,1,0-.779,1.841A3,3,0,0,1,44,49H26.748A17.385,17.385,0,0,0,30.978,45.094ZM14,25v6H12V25Z"/><path d="M43.6,19.059a3.019,3.019,0,0,0-1.1-.016,6.022,6.022,0,0,1-5.635-2.2,4.991,4.991,0,0,0-4.609-1.785,5.081,5.081,0,0,0-4.22,4.342A5.163,5.163,0,0,0,28,20a5.006,5.006,0,0,0,5,5H43a3,3,0,0,0,3-3,3.3,3.3,0,0,0-.02-.353A3.026,3.026,0,0,0,43.6,19.059Zm.1,3.648A.981.981,0,0,1,43,23H33a3,3,0,0,1-3-3,3.2,3.2,0,0,1,.022-.377,3.069,3.069,0,0,1,2.513-2.59A3.188,3.188,0,0,1,32.979,17a2.993,2.993,0,0,1,2.336,1.1,8.032,8.032,0,0,0,7.522,2.911,1.1,1.1,0,0,1,.387.008,1.038,1.038,0,0,1,.768.842A1.27,1.27,0,0,1,44,22,.981.981,0,0,1,43.707,22.707Z"/><circle cx="33" cy="20" r="1"/><path d="M11,54v4a1,1,0,0,0,2,0V54a1,1,0,0,0-2,0Z"/><path d="M15,54v4a1,1,0,0,0,2,0V54a1,1,0,0,0-2,0Z"/><path d="M19,54v4a1,1,0,0,0,2,0V54a1,1,0,0,0-2,0Z"/><path d="M23,54v4a1,1,0,0,0,2,0V54a1,1,0,0,0-2,0Z"/><path d="M27,54v4a1,1,0,0,0,2,0V54a1,1,0,0,0-2,0Z"/><path d="M31,54v4a1,1,0,0,0,2,0V54a1,1,0,0,0-2,0Z"/><path d="M35,54v4a1,1,0,0,0,2,0V54a1,1,0,0,0-2,0Z"/><path d="M39,54v4a1,1,0,0,0,2,0V54a1,1,0,0,0-2,0Z"/><path d="M43,54v4a1,1,0,0,0,2,0V54a1,1,0,0,0-2,0Z"/><path d="M47,54v4a1,1,0,0,0,2,0V54a1,1,0,0,0-2,0Z"/><path d="M51,54v4a1,1,0,0,0,2,0V54a1,1,0,0,0-2,0Z"/><path d="M57,2H7A1,1,0,0,0,6,3V18a1,1,0,0,0,2,0V4H56V41a1,1,0,0,0,2,0V3A1,1,0,0,0,57,2Z"/><path d="M57,44a1,1,0,0,0-1,1V60H8V22a1,1,0,0,0-2,0V61a1,1,0,0,0,1,1H57a1,1,0,0,0,1-1V45A1,1,0,0,0,57,44Z"/></g></g></svg>
