<?xml version="1.0" encoding="iso-8859-1"?>
<!-- Generator: Adobe Illustrator 19.0.0, SVG Export Plug-In . SVG Version: 6.00 Build 0)  -->
<svg height="512pt" width="512pt" version="1.1" id="Capa_1" xmlns="http://www.w3.org/2000/svg" xmlns:xlink="http://www.w3.org/1999/xlink" x="0px" y="0px"
	 viewBox="0 0 512.001 512.001" style="enable-background:new 0 0 512.001 512.001;" xml:space="preserve" fill="#24730a">
<g>
	<g>
		<path d="M237.631,265.597h-48.116c-4.143,0-7.503,3.359-7.503,7.503v82.673c0,4.143,3.359,7.503,7.503,7.503h48.116
			c4.143,0,7.503-3.359,7.503-7.503V273.1C245.134,268.956,241.775,265.597,237.631,265.597z M230.129,348.271h-33.111v-11.472
			h33.111V348.271z M230.129,321.794h-33.111v-41.192h33.111V321.794z"/>
	</g>
</g>
<g>
	<g>
		<path d="M123.808,113.428H75.692c-4.143,0-7.503,3.359-7.503,7.503v82.673c0,4.143,3.358,7.502,7.503,7.502h48.116
			c4.143,0,7.503-3.359,7.503-7.502V120.93C131.31,116.787,127.951,113.428,123.808,113.428z M116.305,196.101H83.194v-11.472
			h33.111V196.101z M116.305,169.625H83.194v-41.192h33.111V169.625z"/>
	</g>
</g>
<g>
	<g>
		<path d="M123.808,239.12H75.692c-4.143,0-7.503,3.359-7.503,7.503v82.673c0,4.143,3.359,7.503,7.503,7.503h48.116
			c4.143,0,7.503-3.359,7.503-7.503v-82.673C131.31,242.479,127.951,239.12,123.808,239.12z M116.305,321.794H83.194v-11.471h33.111
			V321.794z M116.305,295.317H83.194v-41.192h33.111V295.317z"/>
	</g>
</g>
<g>
	<g>
		<path d="M508.983,82.502l-92.335-66.933c-2.627-1.904-6.18-1.904-8.807,0c0,0-92.081,66.749-92.334,66.932
			c-5.769,4.182-2.696,13.578,4.402,13.578h7.021v90.677l-67.253-37.874c-2.286-1.286-5.077-1.286-7.362,0l-67.254,37.874V96.079
			c0,0,7.004,0,7.041,0c7.289,0,10.191-9.882,4.044-13.823l-91.995-66.687c-2.627-1.904-6.18-1.904-8.807,0
			c0,0-92.176,66.818-92.335,66.932c-5.751,4.168-2.704,13.577,4.403,13.577h7.021v109.173c0,4.143,3.359,7.503,7.503,7.503
			s7.503-3.359,7.503-7.503V96.079h140.616v99.127c0,0-36.548,20.581-36.598,20.61c-6.566,3.697-3.821,14.04,3.681,14.04h15.63
			v252.999h-21.46v-90.572c0-4.143-3.359-7.503-7.503-7.503H75.692c-4.143,0-7.503,3.359-7.503,7.503v90.572H29.441V235.262
			c0-4.143-3.359-7.503-7.503-7.503s-7.503,3.359-7.503,7.503v255.095c0,4.143,3.359,7.502,7.503,7.502h468.117
			c4.143,0,7.503-3.359,7.503-7.502V96.079c0,0,7.005,0,7.021,0C511.683,96.079,514.749,86.681,508.983,82.502z M30.548,81.074
			L99.75,30.91l69.201,50.164H30.548z M116.305,482.854H83.194v-83.07h33.111V482.854z M412.245,30.909l69.202,50.164H343.044
			L412.245,30.909z M288.019,482.854h-64.042v-83.07h64.042V482.854z M344.221,482.854h-41.198v-90.572
			c0-4.143-3.359-7.503-7.503-7.503h-79.047c-4.143,0-7.503,3.359-7.503,7.503v90.572h-41.198V229.855h0.001h176.447V482.854z
			 M165.753,214.849l90.245-50.82l90.245,50.82H165.753z M428.802,482.854H395.69v-83.07h33.112V482.854z M482.554,482.854h-38.747
			v-90.572c0-4.143-3.359-7.503-7.502-7.503h-48.117c-4.143,0-7.503,3.359-7.503,7.503v90.572h-21.459V229.855c0,0,15.612,0,15.65,0
			c7.419,0,10.181-10.274,3.733-13.991c-0.025-0.015-0.046-0.034-0.072-0.049l-36.599-20.61V96.079h140.616V482.854z"/>
	</g>
</g>
<g>
	<g>
		<path d="M436.304,113.428h-48.117c-4.143,0-7.502,3.359-7.502,7.503v82.673c0,4.143,3.359,7.502,7.502,7.502h48.117
			c4.143,0,7.503-3.359,7.503-7.502V120.93C443.807,116.787,440.448,113.428,436.304,113.428z M428.802,196.101H395.69v-11.472
			h33.112V196.101z M428.802,169.625H395.69v-41.192h33.112V169.625z"/>
	</g>
</g>
<g>
	<g>
		<path d="M436.304,239.12h-48.117c-4.143,0-7.503,3.359-7.503,7.503v82.673c0,4.143,3.359,7.503,7.503,7.503h48.117
			c4.143,0,7.502-3.359,7.502-7.503v-82.673C443.807,242.479,440.448,239.12,436.304,239.12z M428.802,321.794H395.69v-11.471
			h33.112V321.794z M428.802,295.317H395.69v-41.192h33.112V295.317z"/>
	</g>
</g>
<g>
	<g>
		<path d="M322.48,265.597h-48.116c-4.143,0-7.503,3.359-7.503,7.503v82.673c0,4.143,3.359,7.503,7.503,7.503h48.116
			c4.143,0,7.503-3.359,7.503-7.503V273.1C329.982,268.956,326.623,265.597,322.48,265.597z M314.977,348.271h-33.111v-11.472
			h33.111V348.271z M314.977,321.794h-33.111v-41.192h33.111V321.794z"/>
	</g>
</g>
<g>
</g>
<g>
</g>
<g>
</g>
<g>
</g>
<g>
</g>
<g>
</g>
<g>
</g>
<g>
</g>
<g>
</g>
<g>
</g>
<g>
</g>
<g>
</g>
<g>
</g>
<g>
</g>
<g>
</g>
</svg>
