<svg xmlns="http://www.w3.org/2000/svg" viewBox="0 0 512 512" fill="#fff" xmlns:v="https://vecta.io/nano"><path d="M256 0C114.624 0 0 114.624 0 256s114.624 256 256 256 256-114.624 256-256S397.376 0 256 0zm62.368 192H336a16.01 16.01 0 0 1 16 16 16.01 16.01 0 0 1-16 16h-17.632c-7.424 36.48-39.744 64-78.368 64h-25.376l100.672 100.672c6.24 6.24 6.24 16.384 0 22.624-3.104 3.136-7.2 4.704-11.296 4.704a16.07 16.07 0 0 1-11.328-4.672l-128-128c-4.576-4.608-5.952-11.456-3.456-17.44A16 16 0 0 1 176 256h64c20.832 0 38.432-13.408 45.056-32H176a16.01 16.01 0 0 1-16-16 16.01 16.01 0 0 1 16-16h109.056c-6.624-18.592-24.224-32-45.056-32h-64a16.01 16.01 0 0 1-16-16 16.01 16.01 0 0 1 16-16h160a16.01 16.01 0 0 1 16 16 16.01 16.01 0 0 1-16 16h-32.416c7.072 9.344 12.384 20.096 14.784 32z"/></svg>