<svg id="_x33_0" enable-background="new 0 0 64 64" height="512" viewBox="0 0 64 64" width="512" xmlns="http://www.w3.org/2000/svg"><g><path d="m59.131 24.553c2.387-1.194 3.869-3.593 3.869-6.261v-5.292c0-3.716-2.911-6.766-6.573-6.987l-2.377-2.377c-1.699-1.7-3.96-2.636-6.363-2.636h-4.608c-3.904 0-7.079 3.175-7.079 7.079 0 2.162.968 4.176 2.657 5.527l1.701 1.361c-.351 2.917-.358 4.916-.358 5.033v1h2v.697c0 1.777.883 3.426 2.361 4.412.875.583 1.892.891 2.942.891h.271c.143 0 .284-.031.426-.042v3.622l-1.858.372c-.436.087-.836.322-1.125.66l-1.201 1.401c-1.245 1.452-2.253 3.069-3.029 4.787l-5.787 5.786v-3.771c0-3.984-1.72-7.773-4.718-10.396-2.518-2.205-5.749-3.419-9.097-3.419h-.185v-1.034c2.32-.171 4.337-1.615 5.211-3.802.524-1.308.789-2.685.789-4.094v-4.07c0-.707-.151-1.377-.417-1.987 1.526-1.444 2.417-3.479 2.417-5.599 0-1.179-.459-2.288-1.293-3.121-.833-.834-1.942-1.293-3.121-1.293h-8.05c-2.547 0-4.946.997-6.82 2.871-1.701 1.7-2.716 4.365-2.716 7.129 0 3.581 2.104 5.735 3.025 6.508.117 1.365.702 2.634 1.682 3.614l.293.292v4.598c-2.26.059-4.422.775-6.267 2.093-2.964 2.117-4.733 5.554-4.733 9.196v8.699c0 3.409 1.559 6.46 4 8.479v8.521h24v-6h2.687c2.404 0 4.664-.936 6.364-2.636l.95-.95v9.586h24v-25.146c0-1.368-.323-2.737-.935-3.959-.852-1.702-2.258-3.108-3.96-3.96l-1.106-.553v-3.764zm-19.225-12.509c-1.211-.969-1.906-2.415-1.906-3.965 0-2.801 2.278-5.079 5.079-5.079h4.608c1.87 0 3.627.728 4.95 2.05l2.949 2.95h.414c2.757 0 5 2.243 5 5v5.292c0 1.906-1.059 3.62-2.764 4.472l-1.996.998c-.487-.621-.837-1.32-1.017-2.057-.098-.401-.165-.797-.198-1.17.754-.545 1.975-1.707 1.975-3.535 0-2.206-1.794-4-4-4h-.136c-.197-.693-.606-1.316-1.224-1.861-1.107-.975-2.985-2.139-5.64-2.139-2.21 0-4.357 1.061-4.447 1.105l-.438.219-.096.479c-.128.64-.239 1.262-.337 1.862zm8.476 21.956h-1.386l.003-1.18 2.193-.438zm-1.097 11.454-1.254-2.257.857-7.197h1.31l1.429 6.43c-.676 1.082-1.457 2.095-2.342 3.024zm3.772-5.805-1.004-4.519 1.623-3.245 1.852-.37-1.73 6.054c-.204.713-.46 1.403-.741 2.08zm-1.057-13.029 3.196-.639-.393-1.961-4.582.917c-.212.042-.429.063-.647.063h-.271c-.654 0-1.288-.192-1.832-.555-.921-.613-1.471-1.641-1.471-2.748v-2.697h-1.971c.062-1.398.253-4.125.853-7.297.642-.263 1.899-.703 3.118-.703 2.031 0 3.469.892 4.318 1.64.472.416.682.835.682 1.36v1h2c1.103 0 2 .897 2 2 0 1.342-1.438 2.101-1.447 2.105l-.553.277v.618c0 .683.094 1.416.28 2.178.288 1.18.879 2.285 1.72 3.22v3.782l-5 1zm-5 8.121v.2l-.628 5.271-1.351-2.432c.553-1.073 1.214-2.09 1.979-3.039zm-12 5.074v5.771l-.535.535c-.559.559-1.333.879-2.123.879h-1.342v-6h-2v6h-.994c-.002 0-.003 0-.005 0-.001 0-.001 0-.001 0h-7v-2.802l6.356-15.437c1.312.495 2.536 1.223 3.609 2.162 2.564 2.244 4.035 5.485 4.035 8.892zm-4 12.293c.001.769-.299 1.495-.847 2.043-.544.545-1.263.845-2.026.849h-1.127v.001h-2v-6.001h2 1.006c1.648.003 2.991 1.354 2.994 3.108zm-9.618-24.108-1 2h-1.764l-1-2zm1.282 6.902-.624-3.746 1.569-3.137c.61.022 1.215.084 1.808.198zm-7.282-6.902 1.578 3.156-.497 2.98-2.862-6.082c.234-.018.464-.054.7-.054zm3.465 4h1.305l1.068 6.408-1.282 3.114-1.978-4.204zm8.153-14.93c0 1.153-.217 2.281-.646 3.351-.626 1.567-2.122 2.58-3.81 2.58-.813 0-1.6-.238-2.276-.689l-1.714-1.143-1.109 1.664 1.714 1.143c.568.378 1.191.644 1.84.814v1.21h-5v-5.414l-.879-.879c-.722-.723-1.12-1.685-1.12-2.707 0-.551.449-1 1-1h1v-3c0-1.654 1.346-3 3-3h5c1.654 0 3 1.346 3 3zm-14.428-1.828c-.72-.841-1.572-2.253-1.572-4.242 0-2.245.796-4.382 2.194-5.78 1.432-1.431 3.329-2.22 5.342-2.22h8.05c.635 0 1.258.258 1.707.707s.707 1.072.707 1.707c0 1.476-.589 2.891-1.598 3.944-.894-.836-2.085-1.358-3.402-1.358h-5c-2.757 0-5 2.243-5 5v1.171c-.578.205-1.074.583-1.428 1.071zm-7.572 30.758v-8.699c0-2.998 1.456-5.827 3.895-7.569.822-.587 1.721-1.023 2.667-1.315l7.438 15.807v2.776h-6v-6h-2v6c0 1.103.895 2 1.994 2h10.006v6.001l-9-.001c-4.962 0-9-4.037-9-9zm24 15h-20v-5.214c1.502.771 3.199 1.214 5 1.214l14.111.001h.001c.005 0 .01-.001.015-.001h.873zm9.636-8.05c-1.322 1.322-3.08 2.05-4.95 2.05h-1.656c.622-.841.972-1.855.97-2.989s-.395-2.17-1.032-3.011h.374c1.317 0 2.606-.534 3.538-1.465l5.551-5.551c-.275 1.324-.431 2.676-.431 4.044v4.558zm4.364-6.922c0-2.037.357-4.039 1.019-5.934l3.763 6.773c-.137.116-.266.239-.407.352l-.375.301v13.48h-4zm16.211-14.304c1.318.659 2.406 1.748 3.065 3.065.474.946.724 2.006.724 3.065v23.146h-6v-16h-2v16h-6v-12.526c3.238-2.712 5.557-6.283 6.721-10.355l2.013-7.045.126-.025z"/><circle cx="50" cy="56" r="1"/><circle cx="50" cy="52" r="1"/></g></svg>