<svg id="Capa_1" enable-background="new 0 0 512 512" fill="#169d50" height="512" viewBox="0 0 512 512" width="512" xmlns="http://www.w3.org/2000/svg"><g><path d="m479.5 456.809h-51.138v-36.414c0-4.142-3.358-7.5-7.5-7.5s-7.5 3.358-7.5 7.5v36.414h-191.546v-146.626c0-6.893-5.607-12.5-12.5-12.5h-82.734c-6.893 0-12.5 5.607-12.5 12.5v146.626h-15.444v-127.598c0-4.142-3.358-7.5-7.5-7.5s-7.5 3.358-7.5 7.5v127.598h-51.138c-17.92 0-32.5 14.58-32.5 32.5v10.191c0 6.893 5.607 12.5 12.5 12.5h487c6.893 0 12.5-5.607 12.5-12.5v-10.191c0-17.92-14.58-32.5-32.5-32.5zm-350.418-144.126h77.734v144.044h-77.734zm350.418 159.126c9.649 0 17.5 7.851 17.5 17.5v7.691h-482v-7.691c0-9.649 7.851-17.5 17.5-17.5z"/><path d="m197.114 97.81c4.142 0 7.5-3.358 7.5-7.5v-23.253h26.151v23.253c0 4.142 3.358 7.5 7.5 7.5s7.5-3.358 7.5-7.5v-59.466c0-4.142-3.358-7.5-7.5-7.5s-7.5 3.358-7.5 7.5v21.213h-26.151v-21.213c0-4.142-3.358-7.5-7.5-7.5s-7.5 3.358-7.5 7.5v59.466c0 4.142 3.358 7.5 7.5 7.5z"/><path d="m156.278 82.81c-5.892 0-11.561-2.374-15.165-6.352-2.78-3.068-7.523-3.303-10.594-.52-3.069 2.781-3.302 7.524-.521 10.594 6.4 7.062 16.224 11.278 26.28 11.278 12.564 0 23.116-8.02 25.088-19.07 1.485-8.318-2.287-19.183-17.33-24.731-7.292-2.69-14.083-5.619-16.179-6.537-1.585-1.28-1.531-3.06-1.425-3.803.149-1.037.903-3.571 4.683-4.71 8.354-2.516 16.104 3.611 16.305 3.772 3.171 2.63 7.873 2.208 10.527-.949 2.665-3.171 2.255-7.902-.916-10.567-.563-.473-13.966-11.523-30.243-6.619-8.234 2.48-14.061 8.972-15.205 16.941-1.074 7.479 2.168 14.673 8.46 18.775.332.216.679.405 1.041.567.344.153 8.536 3.799 17.76 7.202 2.591.956 8.534 3.651 7.754 8.021-.587 3.298-4.609 6.708-10.32 6.708z"/><path d="m350.277 90.31v-18.37c3.314-.017 6.95-.032 9.058-.032 13.57 0 24.61-10.892 24.61-24.282 0-13.389-11.04-24.281-24.61-24.281h-16.558c-4.087 0-7.5 3.414-7.5 7.5v59.465c0 4.142 3.358 7.5 7.5 7.5s7.5-3.358 7.5-7.5zm9.057-51.966c5.209 0 9.61 4.25 9.61 9.281s-4.401 9.282-9.61 9.282c-2.093 0-5.686.015-8.984.032-.017-3.412-.033-7.162-.033-9.314 0-1.825-.009-5.707-.019-9.281z"/><path d="m327.335 60.577c0-20.53-16.703-37.233-37.233-37.233s-37.233 16.702-37.233 37.233c0 20.53 16.703 37.233 37.233 37.233s37.233-16.703 37.233-37.233zm-59.466 0c0-12.259 9.974-22.233 22.233-22.233s22.233 9.974 22.233 22.233-9.974 22.233-22.233 22.233c-12.26 0-22.233-9.974-22.233-22.233z"/><path d="m248.137 297.683c-6.893 0-12.5 5.607-12.5 12.5v113.517c0 6.893 5.607 12.5 12.5 12.5h137.281c6.892 0 12.5-5.607 12.5-12.5v-113.517c0-6.893-5.608-12.5-12.5-12.5zm134.781 61.758h-58.64v-46.758h58.64zm-73.64-46.758v46.758h-58.641v-46.758zm-58.641 61.758h58.641v46.758h-58.641zm73.641 46.758v-46.758h58.64v46.758z"/><path d="m191.281 370.884-13.902-24.117c-1.757-3.593-5.395-5.881-9.431-5.881-4.006 0-7.619 2.255-9.389 5.802l-14.713 24.479c-4.38 1.724-7.493 5.986-7.493 10.97v20.612c0 6.503 5.291 11.793 11.793 11.793h39.604c6.503 0 11.793-5.291 11.793-11.793v-20.612c.001-5.274-3.479-9.749-8.262-11.253zm-17.626-.541h-11.814l6.03-10.033zm10.889 29.199h-33.191v-14.199h33.191z"/><path d="m448.349 165.369c0-12.407-10.093-22.5-22.5-22.5h-43.93v-22.328h18.257c9.649 0 17.5-7.851 17.5-17.5v-85.541c0-9.649-7.851-17.5-17.5-17.5h-186.088c-4.142 0-7.5 3.358-7.5 7.5s3.358 7.5 7.5 7.5h186.089c1.378 0 2.5 1.122 2.5 2.5v85.541c0 1.378-1.122 2.5-2.5 2.5h-288.354c-1.378 0-2.5-1.122-2.5-2.5v-85.541c0-1.378 1.122-2.5 2.5-2.5h70.237c4.142 0 7.5-3.358 7.5-7.5s-3.358-7.5-7.5-7.5h-70.237c-9.649 0-17.5 7.851-17.5 17.5v85.541c0 9.649 7.851 17.5 17.5 17.5h18.257v22.328h-43.93c-12.407 0-22.5 10.093-22.5 22.5v67.316c0 15.48 7.955 29.131 19.987 37.098v26.743c0 4.142 3.358 7.5 7.5 7.5s7.5-3.358 7.5-7.5v-20.399c3.058.667 6.228 1.028 9.483 1.028 15.395 0 28.985-7.866 36.97-19.787 7.985 11.921 21.575 19.787 36.97 19.787s28.984-7.866 36.97-19.787c7.985 11.921 21.575 19.787 36.97 19.787s28.984-7.866 36.97-19.787c7.985 11.921 21.575 19.787 36.97 19.787s28.984-7.866 36.97-19.787c7.985 11.921 21.575 19.787 36.97 19.787 3.255 0 6.425-.361 9.483-1.028v111.582c0 4.142 3.358 7.5 7.5 7.5s7.5-3.358 7.5-7.5v-117.926c12.032-7.967 19.987-21.618 19.987-37.098v-67.316zm-340.228 96.786c-16.249 0-29.47-13.22-29.47-29.47v-22.502h58.94v22.502c0 16.25-13.22 29.47-29.47 29.47zm73.939 0c-16.25 0-29.469-13.22-29.469-29.47v-22.502h58.939v22.502c0 16.25-13.22 29.47-29.47 29.47zm73.94 0c-16.249 0-29.47-13.22-29.47-29.47v-22.502h58.939v22.502c.001 16.25-13.219 29.47-29.469 29.47zm73.94 0c-16.25 0-29.47-13.22-29.47-29.47v-22.502h58.94v22.502c0 16.25-13.22 29.47-29.47 29.47zm73.939 0c-16.249 0-29.47-13.22-29.47-29.47v-22.502h58.939v22.502c.001 16.25-13.219 29.47-29.469 29.47zm-36.96-119.286h-21.97v-22.328h21.97zm-184.869 0v-22.328h147.9v22.328zm-36.969-22.328h21.97v22.328h-21.97zm-66.43 44.828c0-4.136 3.364-7.5 7.5-7.5h339.698c4.136 0 7.5 3.364 7.5 7.5v29.814h-354.698z"/></g></svg>