<svg id="_x31_" enable-background="new 0 0 24 24" height="512" viewBox="0 0 24 24" width="512" xmlns="http://www.w3.org/2000/svg" fill="#2fc72f"><path d="m19.5 20.5h-3c-.276 0-.5-.224-.5-.5v-1.956c0-.491-.281-.883-.516-1.125-.792-.815-1.129-1.931-.926-3.06.252-1.402 1.406-2.555 2.807-2.803 1.037-.182 2.088.094 2.883.761s1.252 1.645 1.252 2.683c0 .935-.369 1.812-1.038 2.473-.211.208-.462.548-.462.985v2.042c0 .276-.224.5-.5.5zm-2.5-1h2v-1.542c0-.611.27-1.213.76-1.697.477-.471.74-1.096.74-1.761 0-.741-.326-1.439-.895-1.917-.576-.483-1.309-.675-2.066-.543-.997.177-1.818.997-1.997 1.995-.145.808.095 1.605.66 2.187.522.538.798 1.168.798 1.822z"/><path d="m23.5 24h-11c-.276 0-.5-.224-.5-.5v-2.117c0-.755.565-1.395 1.314-1.488l3.124-.391 3.062-.004 3.186.395c.749.093 1.314.733 1.314 1.488v2.117c0 .276-.224.5-.5.5zm-10.5-1h10v-1.617c0-.251-.188-.465-.438-.496l-3.124-.391-2.938.004-3.062.387c-.25.031-.438.244-.438.496z"/><path d="m9.5 20h-7c-1.378 0-2.5-1.122-2.5-2.5v-15c0-1.378 1.122-2.5 2.5-2.5h12c1.378 0 2.5 1.122 2.5 2.5v6c0 .276-.224.5-.5.5s-.5-.224-.5-.5v-6c0-.827-.673-1.5-1.5-1.5h-12c-.827 0-1.5.673-1.5 1.5v15c0 .827.673 1.5 1.5 1.5h7c.276 0 .5.224.5.5s-.224.5-.5.5z"/><path d="m12.5 13h-8c-.276 0-.5-.224-.5-.5s.224-.5.5-.5h8c.276 0 .5.224.5.5s-.224.5-.5.5z"/><path d="m11.5 17h-7c-.276 0-.5-.224-.5-.5s.224-.5.5-.5h7c.276 0 .5.224.5.5s-.224.5-.5.5z"/><path d="m12.5 9h-8c-.276 0-.5-.224-.5-.5s.224-.5.5-.5h8c.276 0 .5.224.5.5s-.224.5-.5.5z"/><path d="m12.5 5h-8c-.276 0-.5-.224-.5-.5s.224-.5.5-.5h8c.276 0 .5.224.5.5s-.224.5-.5.5z"/></svg>