<svg width="131" height="27" viewBox="0 0 131 27" fill="none" xmlns="http://www.w3.org/2000/svg">
<path d="M10.5333 10.3166C10.5333 10.3166 7.10999 10.6958 4.82632 10.9493C4.62049 10.9742 4.43849 11.1118 4.37024 11.3209C4.30199 11.53 4.37024 11.7477 4.52191 11.8853C6.21841 13.4334 8.76749 15.7517 8.76749 15.7517C8.76532 15.7517 8.06766 19.1241 7.60399 21.3742C7.56499 21.5779 7.63866 21.7935 7.81632 21.9224C7.99291 22.0513 8.22041 22.0535 8.39916 21.9527C10.3968 20.8174 13.389 19.11 13.389 19.11C13.389 19.11 16.3822 20.8174 18.3767 21.9538C18.5587 22.0535 18.7862 22.0513 18.9627 21.9224C19.1404 21.7935 19.2141 21.5779 19.174 21.3753C18.7103 19.1241 18.0137 15.7517 18.0137 15.7517C18.0137 15.7517 20.5628 13.4334 22.2593 11.8885C22.411 11.7466 22.4782 11.5289 22.411 11.3209C22.3438 11.1129 22.1618 10.9753 21.956 10.9515C19.6723 10.6958 16.2479 10.3166 16.2479 10.3166C16.2479 10.3166 14.8287 7.17713 13.883 5.08413C13.7942 4.89671 13.6078 4.76562 13.389 4.76562C13.1702 4.76562 12.9827 4.89779 12.8982 5.08413C11.9514 7.17713 10.5333 10.3166 10.5333 10.3166Z" fill="#E8B900"/>
<path d="M36.5333 10.3166C36.5333 10.3166 33.11 10.6958 30.8263 10.9493C30.6205 10.9742 30.4385 11.1118 30.3702 11.3209C30.302 11.53 30.3702 11.7477 30.5219 11.8853C32.2184 13.4334 34.7675 15.7517 34.7675 15.7517C34.7653 15.7517 34.0677 19.1241 33.604 21.3742C33.565 21.5779 33.6387 21.7935 33.8163 21.9224C33.9929 22.0513 34.2204 22.0535 34.3992 21.9527C36.3968 20.8174 39.389 19.11 39.389 19.11C39.389 19.11 42.3822 20.8174 44.3767 21.9538C44.5587 22.0535 44.7862 22.0513 44.9627 21.9224C45.1404 21.7935 45.2141 21.5779 45.174 21.3753C44.7103 19.1241 44.0137 15.7517 44.0137 15.7517C44.0137 15.7517 46.5628 13.4334 48.2593 11.8885C48.411 11.7466 48.4782 11.5289 48.411 11.3209C48.3438 11.1129 48.1618 10.9753 47.956 10.9515C45.6723 10.6958 42.2479 10.3166 42.2479 10.3166C42.2479 10.3166 40.8287 7.17713 39.883 5.08413C39.7942 4.89671 39.6078 4.76562 39.389 4.76562C39.1702 4.76562 38.9827 4.89779 38.8982 5.08413C37.9514 7.17713 36.5333 10.3166 36.5333 10.3166Z" fill="#E8B900"/>
<path d="M62.5333 10.3166C62.5333 10.3166 59.11 10.6958 56.8263 10.9493C56.6205 10.9742 56.4385 11.1118 56.3702 11.3209C56.302 11.53 56.3702 11.7477 56.5219 11.8853C58.2184 13.4334 60.7675 15.7517 60.7675 15.7517C60.7653 15.7517 60.0677 19.1241 59.604 21.3742C59.565 21.5779 59.6387 21.7935 59.8163 21.9224C59.9929 22.0513 60.2204 22.0535 60.3992 21.9527C62.3968 20.8174 65.389 19.11 65.389 19.11C65.389 19.11 68.3822 20.8174 70.3767 21.9538C70.5587 22.0535 70.7862 22.0513 70.9627 21.9224C71.1404 21.7935 71.2141 21.5779 71.174 21.3753C70.7103 19.1241 70.0137 15.7517 70.0137 15.7517C70.0137 15.7517 72.5628 13.4334 74.2593 11.8885C74.411 11.7466 74.4782 11.5289 74.411 11.3209C74.3438 11.1129 74.1618 10.9753 73.956 10.9515C71.6723 10.6958 68.2479 10.3166 68.2479 10.3166C68.2479 10.3166 66.8287 7.17713 65.883 5.08413C65.7942 4.89671 65.6078 4.76562 65.389 4.76562C65.1702 4.76562 64.9827 4.89779 64.8982 5.08413C63.9514 7.17713 62.5333 10.3166 62.5333 10.3166Z" fill="#E8B900"/>
<path d="M88.5333 10.3166C88.5333 10.3166 85.11 10.6958 82.8263 10.9493C82.6205 10.9742 82.4385 11.1118 82.3702 11.3209C82.302 11.53 82.3702 11.7477 82.5219 11.8853C84.2184 13.4334 86.7675 15.7517 86.7675 15.7517C86.7653 15.7517 86.0677 19.1241 85.604 21.3742C85.565 21.5779 85.6387 21.7935 85.8163 21.9224C85.9929 22.0513 86.2204 22.0535 86.3992 21.9527C88.3968 20.8174 91.389 19.11 91.389 19.11C91.389 19.11 94.3822 20.8174 96.3767 21.9538C96.5587 22.0535 96.7862 22.0513 96.9627 21.9224C97.1404 21.7935 97.2141 21.5779 97.174 21.3753C96.7103 19.1241 96.0137 15.7517 96.0137 15.7517C96.0137 15.7517 98.5628 13.4334 100.259 11.8885C100.411 11.7466 100.478 11.5289 100.411 11.3209C100.344 11.1129 100.162 10.9753 99.956 10.9515C97.6723 10.6958 94.2479 10.3166 94.2479 10.3166C94.2479 10.3166 92.8287 7.17713 91.883 5.08413C91.7942 4.89671 91.6078 4.76562 91.389 4.76562C91.1702 4.76562 90.9827 4.89779 90.8982 5.08413C89.9514 7.17713 88.5333 10.3166 88.5333 10.3166Z" fill="#E8B900"/>
<path d="M114.533 10.3166C114.533 10.3166 111.11 10.6958 108.826 10.9493C108.62 10.9742 108.438 11.1118 108.37 11.3209C108.302 11.53 108.37 11.7477 108.522 11.8853C110.218 13.4334 112.767 15.7517 112.767 15.7517C112.765 15.7517 112.068 19.1241 111.604 21.3742C111.565 21.5779 111.639 21.7935 111.816 21.9224C111.993 22.0513 112.22 22.0535 112.399 21.9527C114.397 20.8174 117.389 19.11 117.389 19.11C117.389 19.11 120.382 20.8174 122.377 21.9538C122.559 22.0535 122.786 22.0513 122.963 21.9224C123.14 21.7935 123.214 21.5779 123.174 21.3753C122.71 19.1241 122.014 15.7517 122.014 15.7517C122.014 15.7517 124.563 13.4334 126.259 11.8885C126.411 11.7466 126.478 11.5289 126.411 11.3209C126.344 11.1129 126.162 10.9753 125.956 10.9515C123.672 10.6958 120.248 10.3166 120.248 10.3166C120.248 10.3166 118.829 7.17713 117.883 5.08413C117.794 4.89671 117.608 4.76562 117.389 4.76562C117.17 4.76562 116.983 4.89779 116.898 5.08413C115.951 7.17713 114.533 10.3166 114.533 10.3166Z" fill="#E8B900"/>
</svg>
