<svg height="512" viewBox="0 0 64 64" width="512" xmlns="http://www.w3.org/2000/svg" fill="#24730a"><path d="m54 2h-44a1 1 0 0 0 -1 1v58a1 1 0 0 0 1 1h38a1 1 0 0 0 .707-.293l6-6a1 1 0 0 0 .293-.707v-52a1 1 0 0 0 -1-1zm-43 2h42v50h-5a1 1 0 0 0 -1 1v5h-36zm40.586 52-2.586 2.586v-2.586z"/><path d="m14 28h6v2h-6z"/><path d="m30 28h20v2h-20z"/><path d="m26 28h2v2h-2z"/><path d="m14 24h6v2h-6z"/><path d="m26 24h20v2h-20z"/><path d="m48 24h2v2h-2z"/><path d="m14 36h6v2h-6z"/><path d="m30 36h20v2h-20z"/><path d="m26 36h2v2h-2z"/><path d="m14 32h6v2h-6z"/><path d="m26 32h20v2h-20z"/><path d="m48 32h2v2h-2z"/><path d="m14 44h6v2h-6z"/><path d="m30 44h20v2h-20z"/><path d="m26 44h2v2h-2z"/><path d="m14 40h6v2h-6z"/><path d="m26 40h20v2h-20z"/><path d="m48 40h2v2h-2z"/><path d="m13 18h38v2h-38z"/><path d="m18 16a5 5 0 1 0 -5-5 5.006 5.006 0 0 0 5 5zm0-8a3 3 0 1 1 -3 3 3 3 0 0 1 3-3z"/><path d="m25 6h10v2h-10z"/><path d="m25 10h6v2h-6z"/><path d="m37 6h14v2h-14z"/><path d="m33 10h18v2h-18z"/><path d="m25 14h14v2h-14z"/><path d="m41 14h2v2h-2z"/><path d="m13 50v8h26v-8zm24 6h-22v-4h22z"/></svg>