<svg id="Capa_1" enable-background="new 0 0 511.972 511.972" height="50" viewBox="0 0 511.972 511.972" width="50" xmlns="http://www.w3.org/2000/svg" fill="#14C44C"><g><path d="m254.636 88.033c-.026-.069-.053-.137-.081-.205-1.465-3.561-4.897-5.861-8.748-5.861-.002 0-.006 0-.009 0-3.854.003-7.287 2.31-8.747 5.877-.023.057-.046.114-.067.171l-32.462 85.233c-1.474 3.871.468 8.204 4.339 9.678 3.871 1.475 8.204-.469 9.678-4.339l6.245-16.397h41.805l6.18 16.376c1.133 3.003 3.987 4.854 7.018 4.854.88 0 1.775-.156 2.647-.485 3.875-1.462 5.831-5.79 4.368-9.665zm-24.139 59.158 15.285-40.133 15.146 40.133z"/><path d="m344.154 129.626 25.248-35.839c2.386-3.386 1.575-8.065-1.812-10.451-3.389-2.387-8.066-1.573-10.45 1.812l-22.153 31.447-22.119-31.443c-2.382-3.387-7.059-4.203-10.449-1.819-3.388 2.383-4.202 7.062-1.818 10.449l25.211 35.837-29.573 41.979c-2.386 3.386-1.575 8.065 1.812 10.451 1.313.925 2.82 1.369 4.313 1.369 2.357 0 4.678-1.108 6.138-3.181l26.479-37.586 26.438 37.582c1.46 2.076 3.781 3.186 6.141 3.186 1.49 0 2.996-.444 4.309-1.366 3.388-2.383 4.202-7.062 1.818-10.449z"/><path d="m192.166 81.967h-47.743c-4.142 0-7.5 3.358-7.5 7.5s3.358 7.5 7.5 7.5h16.275v78.951c0 4.142 3.358 7.5 7.5 7.5s7.5-3.358 7.5-7.5v-78.951h16.468c4.142 0 7.5-3.358 7.5-7.5s-3.358-7.5-7.5-7.5z"/><path d="m116.286 383.43c4.562 0 6.451 1.72 9.881 4.843 4.057 3.694 9.612 8.753 19.98 8.753 10.37 0 15.927-5.058 19.984-8.752 3.431-3.124 5.321-4.844 9.887-4.844s6.456 1.721 9.888 4.844c4.057 3.693 9.614 8.752 19.985 8.752 4.142 0 7.5-3.358 7.5-7.5s-3.358-7.5-7.5-7.5c-4.566 0-6.457-1.721-9.888-4.844-4.057-3.693-9.614-8.752-19.985-8.752s-15.927 5.058-19.985 8.752c-3.431 3.124-5.321 4.844-9.887 4.844-4.562 0-6.452-1.72-9.881-4.843-4.057-3.694-9.612-8.753-19.98-8.753-4.142 0-7.5 3.358-7.5 7.5s3.359 7.5 7.501 7.5z"/><path d="m116.286 413.556c4.562 0 6.451 1.72 9.881 4.843 4.057 3.694 9.612 8.753 19.98 8.753 10.37 0 15.927-5.058 19.984-8.752 3.431-3.124 5.321-4.844 9.887-4.844s6.456 1.721 9.888 4.844c4.057 3.693 9.614 8.752 19.985 8.752 4.142 0 7.5-3.358 7.5-7.5s-3.358-7.5-7.5-7.5c-4.566 0-6.457-1.721-9.888-4.844-4.057-3.693-9.614-8.752-19.985-8.752s-15.927 5.058-19.985 8.752c-3.431 3.124-5.321 4.844-9.887 4.844-4.562 0-6.452-1.72-9.881-4.843-4.057-3.694-9.612-8.753-19.98-8.753-4.142 0-7.5 3.358-7.5 7.5s3.359 7.5 7.501 7.5z"/><path d="m126.167 448.525c4.057 3.694 9.612 8.752 19.98 8.752 10.37 0 15.927-5.058 19.984-8.751 3.431-3.124 5.321-4.844 9.887-4.844s6.457 1.721 9.888 4.844c4.058 3.693 9.614 8.751 19.985 8.751 4.142 0 7.5-3.358 7.5-7.5s-3.358-7.5-7.5-7.5c-4.566 0-6.457-1.721-9.888-4.844-4.057-3.693-9.614-8.751-19.985-8.751s-15.927 5.058-19.985 8.752c-3.431 3.124-5.321 4.844-9.887 4.844-4.562 0-6.452-1.72-9.881-4.843-4.057-3.694-9.612-8.752-19.98-8.752-4.142 0-7.5 3.358-7.5 7.5s3.358 7.5 7.5 7.5c4.563-.001 6.453 1.719 9.882 4.842z"/><path d="m477.511 172.082c-.024-.218-.06-.435-.103-.65-4.636-34.714-22.226-52.345-52.741-79.161-.416-5.85-.832-11.388-1.266-16.797-1.574-19.738-17.034-35.589-36.767-37.692-15.122-1.603-30.359-2.933-45.328-3.973-29.253-16.089-58.14-27.709-83.631-33.615-1.114-.259-2.273-.258-3.387 0-25.512 5.916-54.391 17.536-83.611 33.614-15.23 1.057-30.478 2.389-45.347 3.974-19.722 2.102-35.178 17.953-36.751 37.688-.436 5.434-.853 10.967-1.267 16.787-30.906 27.159-46.219 42.658-52.771 79.314-.029.16-.052.321-.07.482-.003.03-.005.061-.008.091-10.533 97.147-10.53 195.66.005 292.806 2.33 21.453 19.58 38.249 41.013 39.937 4.939.392 9.88.763 14.81 1.115.181.013.362.019.541.019 3.899 0 7.191-3.017 7.473-6.967.294-4.132-2.816-7.72-6.947-8.014-4.89-.349-9.791-.717-14.695-1.106-14.193-1.118-25.625-12.213-27.258-26.413-.001-.017 0-.033-.002-.05-2.148-24.531 24.97-68.929 69.087-113.111 2.927-2.931 2.923-7.68-.008-10.606-2.931-2.927-7.68-2.924-10.606.008-23.957 23.992-48.517 54.112-62.333 81.84-5.466-71.13-5.282-142.781.593-213.873 10.86 16.827 26.973 32.925 38.642 43.511 2.783 2.528 5.687 5.081 8.58 7.545.879.762 1.776 1.514 2.683 2.275l.163.137c18.149 15.207 39.018 29.976 60.351 42.71 34.154 20.379 67.951 34.793 97.737 41.684.556.129 1.123.193 1.69.193s1.134-.064 1.691-.193c30.34-7.02 64.738-21.796 99.474-42.73 8.102-4.879 16.126-10.04 23.852-15.339 13.463-9.234 26.208-18.979 37.875-28.959 2.778-2.372 5.579-4.839 8.319-7.329 11.676-10.592 27.791-26.698 38.65-43.53 5.872 71.101 6.052 142.762.59 213.9-13.816-27.728-38.376-57.849-62.334-81.842-2.928-2.932-7.676-2.934-10.607-.008-2.931 2.927-2.935 7.676-.008 10.606 44.117 44.182 71.235 88.58 69.087 113.111-.003.035-.001.07-.004.105-1.657 14.174-13.081 25.241-27.261 26.358-104.18 8.211-209.874 9.243-314.148 3.07-4.141-.246-7.685 2.909-7.93 7.043-.245 4.135 2.909 7.686 7.043 7.93 44.998 2.664 90.254 3.995 135.544 3.995 60.353 0 120.761-2.364 180.668-7.085 21.442-1.688 38.696-18.484 41.027-39.939 10.529-97.166 10.529-195.7.001-292.866zm-221.529-156.875c14.837 3.572 30.912 9.188 47.566 16.567-31.661-1.22-63.463-1.22-95.127.001 16.642-7.376 32.716-12.992 47.561-16.568zm-206.629 158.742c4.781-26.502 13.642-39.23 36.551-60.292-2.293 38.014-3.499 76.362-3.605 114.432-21.767-22.13-34.115-42.166-32.946-54.14zm380.328 54.123c-.047-16.995-.31-34.021-.79-50.816-.118-4.14-3.587-7.402-7.711-7.283-4.141.118-7.401 3.571-7.283 7.711.61 21.352.859 43.076.763 64.635-1.838 1.639-3.686 3.264-5.531 4.84-11.271 9.641-23.59 19.059-36.615 27.993-7.483 5.133-15.257 10.133-23.107 14.861-32.751 19.737-65.011 33.741-93.424 40.566-27.883-6.698-59.559-20.35-91.741-39.552-20.659-12.332-40.855-26.622-58.402-41.325l-.162-.135c-.843-.707-1.678-1.407-2.544-2.157-1.971-1.679-3.906-3.378-5.814-5.077-.219-48.495 1.365-97.573 4.737-145.94.483-6.931.965-13.382 1.474-19.725 1.001-12.551 10.837-22.631 23.389-23.969 15.22-1.623 30.843-2.984 46.435-4.045 54.838-3.74 110.442-3.74 165.271 0 15.314 1.043 30.936 2.404 46.425 4.045 12.558 1.338 22.398 11.418 23.399 23.972.506 6.308.987 12.762 1.474 19.732 1.181 16.94 2.159 34.242 2.908 51.425.181 4.138 3.715 7.352 7.819 7.167 4.139-.18 7.347-3.681 7.167-7.82-.487-11.165-1.08-22.371-1.752-33.506 23.415 21.526 33.298 35.24 36.529 60.12 1.305 11.943-11.049 32.053-32.914 54.283z"/></g></svg>