<?xml version="1.0"?>
<svg xmlns="http://www.w3.org/2000/svg" viewBox="0 0 64 64" width="512" height="512" fill="#14C44C"><g id="Layer_9" data-name="Layer 9"><path d="M51.6,8H54V6H49a1,1,0,0,0-1,1v5h2V9.28A29,29,0,0,1,18.47,57.66l-.94,1.76A31,31,0,0,0,51.6,8Z"/><path d="M14,54.73A29,29,0,0,1,45.53,6.34l.94-1.76A31,31,0,0,0,12.4,56H10v2h5a1,1,0,0,0,1-1V52H14Z"/><path d="M9,32A23,23,0,1,0,32,9,23,23,0,0,0,9,32Zm44,0A21,21,0,1,1,32,11,21,21,0,0,1,53,32Z"/><path d="M13,32A19,19,0,1,0,32,13,19,19,0,0,0,13,32Zm29.71-9.29,2-2A16.92,16.92,0,0,1,49,31H46v2h3a16.92,16.92,0,0,1-4.26,10.27l-2-2-1.42,1.42,2,2A16.92,16.92,0,0,1,33,49V46H31v3a16.92,16.92,0,0,1-10.27-4.26l2-2-1.42-1.42-2,2A16.92,16.92,0,0,1,15.05,33H18V31H15.05a16.92,16.92,0,0,1,4.26-10.27l2,2,1.42-1.42-2-2A16.92,16.92,0,0,1,31,15.05V18h2V15.05a16.92,16.92,0,0,1,10.27,4.26l-2,2Z"/><path d="M33,20H31V32a1,1,0,0,0,.29.71l6,6,1.42-1.42L33,31.59Z"/></g></svg>
