<svg xmlns="http://www.w3.org/2000/svg" viewBox="0 0 512 512" fill="#169d50" xmlns:v="https://vecta.io/nano"><path d="M286 106h-15V91c0-8.284-6.716-15-15-15s-15 6.716-15 15v30c0 8.284 6.716 15 15 15h30c8.284 0 15-6.716 15-15s-6.716-15-15-15zm211 120c-8.284 0-15 6.716-15 15 0 19.9-12.975 36.794-30.9 42.725-5.917-57.57-43.628-105.7-95.218-130.338C359.2 143.18 361 132.298 361 121c0-57.897-47.103-105-105-105S151 63.103 151 121a105.02 105.02 0 0 0 2.094 20.909c-8.08 2.25-16.048 5.123-23.848 8.625C113.208 141.134 94.14 136 75 136c-28.014 0-50.762 10.933-70.608 30.786-5.855 5.858-5.855 15.353 0 21.2L45.277 232.5c-3.955 8.4-7.08 16.7-9.428 25.073C15.246 262.967 0 281.75 0 304.023V331c0 14.3 10.342 28.617 27 37.36 13.792 7.244 25.972 17.6 35.222 29.974C77.613 418.92 97.8 435.83 121 447.664V481c0 8.284 6.716 15 15 15h60c8.284 0 15-6.716 15-15v-15h60v15c0 8.284 6.716 15 15 15h60c8.284 0 15-6.716 15-15v-33.068c51.75-26.323 85.52-76.927 90.366-133.327C485.87 307.88 512 277.44 512 241c0-8.284-6.716-15-15-15zM256 46c41.355 0 75 33.645 75 75s-33.645 75-75 75-75-33.645-75-75 33.645-75 75-75zm84 378.7a15 15 0 0 0-8.99 13.745V466h-30v-15c0-8.284-6.716-15-15-15h-90c-8.284 0-15 6.716-15 15v15h-30v-27.816a15 15 0 0 0-8.963-13.731c-22.245-9.78-41.542-25.026-55.804-44.1-11.9-15.92-27.572-29.253-45.293-38.562-7.732-4.06-10.916-9.3-10.94-10.8v-26.977c0-9.428 7.28-17.174 16.5-17.946 7.565.76 13.5 7.163 13.5 14.923 0 8.284 6.716 15 15 15s15-6.716 15-15c0-17.198-9.7-32.167-23.915-39.74 2.602-8.062 6.12-16.167 10.664-24.5a15 15 0 0 0-2.566-17.781l-40.53-40.53C45.822 170.346 60.084 166 75 166c14.67 0 29.792 4.353 41.6 11.963l.092.082c.557.494 1.398 1.24 2.5 2.016a15 15 0 0 0 15.538 1.121c9.27-4.756 18.844-8.4 28.574-10.947a105.68 105.68 0 0 0 23.08 29.277C183.087 202.264 181 206.387 181 211c0 8.284 6.716 15 15 15h113.555c8.284 0 15-6.716 15-15a14.93 14.93 0 0 0-2.566-8.393 105.79 105.79 0 0 0 20.615-22.31C454.08 233.3 443.172 379.58 340 424.7z"/><circle cx="136" cy="271" r="15"/></svg>