<svg height="512pt" viewBox="0 -46 512 512" width="512pt" xmlns="http://www.w3.org/2000/svg" fill="#2fc72f"><path d="m469.660156 195.6875c-4.25 0-8.085937-2.769531-9.460937-6.78125-1.300781-3.773438-.136719-8.105469 2.867187-10.734375 3.277344-2.867187 8.171875-3.261719 11.871094-.972656 3.457031 2.140625 5.28125 6.292969 4.554688 10.285156-.855469 4.699219-5.058594 8.203125-9.832032 8.203125zm0 0"/><path d="m502 348.355469h-28.625c3.984375-6.4375 6.285156-14.023438 6.285156-22.136719v-95.121094c0-5.523437-4.476562-10-10-10-5.523437 0-10 4.476563-10 10v61.78125h-167.820312v-47.363281c1.859375 1.671875 4.261718 2.5625 6.695312 2.5625 1.898438 0 3.816406-.539063 5.515625-1.664063 4.601563-3.050781 5.863281-9.257812 2.8125-13.859374l-16.6875-25.191407c-1.851562-2.796875-4.980469-4.476562-8.335937-4.476562-3.355469 0-6.484375 1.679687-8.335938 4.476562l-16.6875 25.191407c-3.050781 4.601562-1.789062 10.808593 2.8125 13.859374 3.882813 2.570313 8.902344 2.078126 12.210938-.898437v47.363281h-55.769532v-47.363281c1.859376 1.671875 4.261719 2.5625 6.699219 2.5625 1.894531 0 3.8125-.539063 5.511719-1.664063 4.605469-3.050781 5.863281-9.257812 2.8125-13.859374l-16.6875-25.191407c-1.851562-2.796875-4.980469-4.476562-8.335938-4.476562-3.351562 0-6.484374 1.679687-8.335937 4.476562l-16.6875 25.191407c-3.050781 4.601562-1.789063 10.808593 2.8125 13.859374 3.882813 2.570313 8.902344 2.078126 12.210937-.898437v47.367187h-30.714843v-232.707031c0-12.207031 9.890625-22.140625 22.050781-22.140625h63.417969v116.414063c0 3.402343 1.726562 6.570312 4.589843 8.410156 2.859376 1.839844 6.460938 2.097656 9.554688.6875l47.539062-21.660156 47.535157 21.660156c1.320312.601563 2.734375.898437 4.144531.898437 1.890625 0 3.773438-.535156 5.410156-1.589843 2.863282-1.839844 4.589844-5.007813 4.589844-8.410157v-116.40625h63.417969c12.160156 0 22.050781 9.929688 22.050781 22.136719v80.476563c0 5.523437 4.476562 10 10 10s10-4.476563 10-10v-80.476563c0-23.234375-18.863281-42.136719-42.050781-42.136719h-250.199219c-23.1875 0-42.050781 18.902344-42.050781 42.136719v266.042969c0 8.113281 2.300781 15.699219 6.285156 22.136719h-21.074219c-4.242187-25.484375-24.410156-45.652344-49.894531-49.894531v-288.460938c0-5.523438-4.476563-10-10-10h-60.671875c-5.523438 0-10 4.476562-10 10s4.476562 10 10 10h50.671875v278.460938c-28.738281 4.78125-50.71875 29.820312-50.71875 59.894531 0 33.480469 27.238281 60.71875 60.71875 60.71875h431.328125c5.523438 0 10-4.476563 10-10v-50.71875c0-5.523438-4.476562-10-10-10zm-231.175781-310.316407h83.367187v100.863282l-37.535156-17.105469c-2.632812-1.199219-5.660156-1.199219-8.292969 0l-37.539062 17.105469zm-200.152344 361.035157c-22.453125 0-40.71875-18.265625-40.71875-40.71875s18.265625-40.71875 40.71875-40.71875c22.449219 0 40.714844 18.265625 40.714844 40.71875s-18.265625 40.71875-40.714844 40.71875zm94.683594-86.195313h294.304687v13.339844c0 12.207031-9.890625 22.136719-22.050781 22.136719h-250.203125c-12.160156 0-22.050781-9.929688-22.050781-22.136719zm326.644531 86.195313h-376.324219c7.636719-8.433594 12.941407-19.015625 14.890625-30.71875h361.433594zm0 0"/><path d="m417.945312 226.238281h-52.996093c-5.523438 0-10-4.476562-10-10 0-5.523437 4.476562-10 10-10h52.996093c5.523438 0 10 4.476563 10 10 0 5.523438-4.476562 10-10 10zm0 0"/><path d="m417.945312 270.160156h-52.996093c-5.523438 0-10-4.476562-10-10 0-5.523437 4.476562-10 10-10h52.996093c5.523438 0 10 4.476563 10 10 0 5.523438-4.476562 10-10 10zm0 0"/></svg>