<?xml version="1.0" encoding="utf-8"?>
<!-- Generator: Adobe Illustrator 26.0.1, SVG Export Plug-In . SVG Version: 6.00 Build 0)  -->
<svg version="1.1" id="Layer_1" xmlns="http://www.w3.org/2000/svg" xmlns:xlink="http://www.w3.org/1999/xlink" x="0px" y="0px"
	 viewBox="0 0 130 130" style="enable-background:new 0 0 130 130;" xml:space="preserve">
<style type="text/css">
	.st0{fill:none;stroke:#FFFFFF;stroke-width:6;stroke-linecap:round;stroke-miterlimit:10;}
	.st1{fill:none;stroke:#FFFFFF;stroke-width:6;stroke-linecap:round;stroke-linejoin:round;stroke-miterlimit:10.0001;}
	.st2{fill:none;stroke:#FFFFFF;stroke-width:6;stroke-linecap:round;stroke-linejoin:round;stroke-miterlimit:10;}
</style>
<g>
	<path class="st0" d="M33.09,64.43c2.7-7.87,7.35-15.47,13.88-22c19.94-19.94,49.89-22.32,66.9-5.32s14.62,46.95-5.32,66.9
		s-49.89,22.32-66.9,5.32c-2.38-2.38-4.39-5.02-6.01-7.85"/>
	<line class="st0" x1="49.64" y1="39.93" x2="44.93" y2="34.18"/>
	<line class="st0" x1="24.58" y1="20.04" x2="52.72" y2="20.04"/>
	<line class="st0" x1="4.79" y1="58.61" x2="22.29" y2="58.61"/>
	<line class="st0" x1="17.93" y1="74.25" x2="48" y2="74.25"/>
	<line class="st0" x1="4.79" y1="94.61" x2="55.43" y2="94.61"/>
	<line class="st0" x1="82.65" y1="69.33" x2="102.36" y2="51.54"/>
	<path class="st0" d="M111.79,20.04c0,0,8.84,6.43,13.42,11.79"/>
	<line class="st0" x1="30.11" y1="75.25" x2="30.11" y2="83.4"/>
	<line class="st0" x1="17.93" y1="113.47" x2="29.08" y2="113.47"/>
	<path class="st0" d="M114.81,71.59c0,0-0.44,17.16-15.17,28.45s-27.16,11.17-27.16,11.17"/>
	
		<ellipse transform="matrix(0.7636 -0.6457 0.6457 0.7636 -28.9107 67.4795)" class="st1" cx="77.7" cy="73.22" rx="5.79" ry="4.29"/>
	<path class="st2" d="M94.86,17.47H78.58c-2.25,0-4.07-1.82-4.07-4.07l0,0c0-2.25,1.82-4.07,4.07-4.07h16.29
		c2.25,0,4.07,1.82,4.07,4.07l0,0C98.93,15.65,97.11,17.47,94.86,17.47z"/>
</g>
</svg>
